<?xml version="1.0" encoding="UTF-8" standalone="no"?>
<svg width="100px" height="100px" viewBox="0 0 100 100" version="1.1" xmlns="http://www.w3.org/2000/svg" xmlns:xlink="http://www.w3.org/1999/xlink">
    <!-- Generator: Sketch 40 (33762) - http://www.bohemiancoding.com/sketch -->
    <title>Artboard</title>
    <desc>Created with Sketch.</desc>
    <defs></defs>
    <g id="Page-1" stroke="none" stroke-width="1" fill="none" fill-rule="evenodd">
        <g id="Artboard" fill="#4A4A4A">
            <g id="noun_196220_cc" transform="translate(6.000000, 6.000000)">
                <g id="Group">
                    <path d="M30.7423226,23.7572581 C27.4622419,23.7572581 24.7908065,21.0886935 24.7908065,17.8057419 C24.7908065,14.5256613 27.4622419,11.8542258 30.7423226,11.8542258 C34.0224032,11.8542258 36.6924032,14.5242258 36.6924032,17.8057419 C36.6924032,21.0886935 34.0224032,23.7572581 30.7423226,23.7572581 L30.7423226,23.7572581 Z M30.7423226,15.0855 C29.239371,15.0855 28.0206452,16.3070968 28.0206452,17.8071774 C28.0206452,19.3072581 29.2408065,20.5288548 30.7423226,20.5288548 C32.2424032,20.5288548 33.4625645,19.3072581 33.4625645,17.8071774 C33.4625645,16.3070968 32.2424032,15.0855 30.7423226,15.0855 L30.7423226,15.0855 Z" id="Shape"></path>
                    <path d="M88.7947258,12.816 C88.8679355,12.3265 88.7444839,11.8140323 88.3669516,11.4379355 L78.2941613,1.36514516 C78.144871,1.21585484 77.9654355,1.09670968 77.7702097,1.01775806 C77.3754516,0.852677419 76.9290161,0.852677419 76.5342581,1.01775806 C76.3390323,1.09814516 76.1610323,1.21585484 76.0117419,1.36514516 L65.9389516,11.4379355 C65.9001935,11.478129 65.8829677,11.5312419 65.8470806,11.5771774 L41.652,11.5771774 C39.4786774,7.79180645 35.4076452,5.23233871 30.7423226,5.23233871 C26.9411613,5.23233871 23.5361935,6.93482258 21.2279355,9.60769355 L12.9882581,1.36658065 C12.8389677,1.21729032 12.6609677,1.09814516 12.4643065,1.01919355 C12.2662097,0.935935484 12.056629,0.892870968 11.8456129,0.892870968 C11.6345968,0.892870968 11.4250161,0.935935484 11.2254839,1.01919355 C11.0805,1.07804839 10.9613548,1.17566129 10.8407742,1.27470968 C10.7977097,1.30916129 10.7431613,1.32495161 10.7000968,1.36658065 L0.630177419,11.439371 C0.252645161,11.8154677 0.129193548,12.3279355 0.202403226,12.8174355 C0.190919355,12.8963871 0.157903226,12.9652903 0.157903226,13.0456774 L0.157903226,86.4950806 C0.157903226,86.7046613 0.199532258,86.9156774 0.282790323,87.1123387 C0.445,87.5042258 0.759370968,87.8185968 1.15269355,87.9836774 C1.35222581,88.068371 1.56037097,88.11 1.77282258,88.11 C1.98240323,88.11 2.19341935,88.068371 2.39008065,87.9836774 C2.58817742,87.9018548 2.76617742,87.7841452 2.91403226,87.6334194 L11.8441774,78.7061452 L20.7743226,87.6334194 C21.0886935,87.9506613 21.5006774,88.11 21.9155323,88.11 C21.9672097,88.11 22.0131452,88.0841613 22.0648226,88.0798548 C22.119371,88.0855968 22.163871,88.11 22.2198548,88.11 L67.0528871,88.11 C67.0600645,88.11 67.064371,88.1042581 67.0701129,88.1042581 C67.0758548,88.1042581 67.0772903,88.11 67.0787258,88.11 C67.4935806,88.11 67.9055645,87.9506613 68.221371,87.6334194 L77.1529516,78.7061452 L86.0830968,87.6334194 C86.2323871,87.7841452 86.4089516,87.9032903 86.6070484,87.9836774 C86.8037097,88.068371 87.0132903,88.11 87.2243065,88.11 C87.4353226,88.11 87.6449032,88.068371 87.8444355,87.9836774 C88.2363226,87.8185968 88.552129,87.5042258 88.7157742,87.1123387 C88.7975968,86.9156774 88.8392258,86.7060968 88.8392258,86.4950806 L88.8392258,13.0442419 C88.8406613,12.9638548 88.8062097,12.8949516 88.7947258,12.816 L88.7947258,12.816 Z M10.2306935,75.7476129 L3.38917742,82.594871 L3.38917742,13.2480806 L10.2306935,6.40369355 L10.2306935,75.7476129 L10.2306935,75.7476129 Z M30.7423226,8.46217742 C35.8957097,8.46217742 40.0887581,12.6566613 40.0887581,17.8114839 C40.0887581,19.2914677 39.7313226,20.7082903 39.0796129,21.9987903 L38.6504032,22.7409355 C38.4724032,23.0265968 38.3044516,23.318 38.0905645,23.5893065 C36.3048226,25.857371 33.6276452,27.1564839 30.7423226,27.1564839 C28.1153871,27.1564839 25.5946774,26.0425484 23.8232903,24.0989032 C23.5304516,23.7744839 23.2878548,23.4184839 23.0438226,23.0624839 L22.4093387,21.9614677 C21.7691129,20.6767097 21.3930161,19.271371 21.3930161,17.8100484 C21.3915806,12.6566613 25.5860645,8.46217742 30.7423226,8.46217742 L30.7423226,8.46217742 Z M34.5894194,29.7748065 L30.7538065,36.4153548 L26.9282419,29.7891613 C28.1527097,30.1796129 29.4360323,30.3863226 30.7423226,30.3863226 C32.0715806,30.3848871 33.3606452,30.1652581 34.5894194,29.7748065 L34.5894194,29.7748065 Z M13.4605323,75.7519194 L13.4605323,6.40512903 L19.4206613,12.3652581 C18.6225323,14.014629 18.1617419,15.8577903 18.1617419,17.8100484 C18.1617419,19.7938871 18.6742097,21.7030806 19.5527258,23.4414516 C19.5656452,23.4672903 19.5642097,23.493129 19.5785645,23.5175323 L19.666129,23.671129 C19.8613548,24.0400484 20.0565806,24.4017903 20.289129,24.7491774 L20.6078065,25.3004032 L20.6078065,82.8977581 L13.4605323,75.7519194 L13.4605323,75.7519194 Z M65.4408387,84.8787258 L36.1871129,84.8787258 L36.1871129,83.2221774 C36.1871129,82.6250161 35.7062258,82.1455645 35.1105,82.1455645 C34.5162097,82.1455645 34.0338871,82.6250161 34.0338871,83.2221774 L34.0338871,84.8787258 L23.8362097,84.8787258 L23.8362097,30.8930484 L29.0398387,39.9050161 C29.3384194,40.4217903 29.8810323,40.7117581 30.440871,40.7117581 C30.5470968,40.7117581 30.6490161,40.6485968 30.7538065,40.6270645 C30.8600323,40.6485968 30.9619516,40.7117581 31.0681774,40.7117581 C31.6280161,40.7117581 32.170629,40.4217903 32.4692097,39.9050161 L41.4854839,24.2855161 C41.6347742,24.0386129 41.7869355,23.7931452 41.9204355,23.537629 L41.9304839,23.5175323 C41.9347903,23.5089194 41.9347903,23.5003065 41.9390968,23.4916935 C42.8305323,21.7418387 43.3185968,19.8197258 43.3185968,17.8100484 C43.3185968,16.773629 43.1764839,15.7702258 42.939629,14.8055806 L54.1751613,14.8055806 L54.1751613,17.669371 C54.1751613,18.2636613 54.6560484,18.7459839 55.2517742,18.7459839 C55.8460645,18.7459839 56.3283871,18.2636613 56.3283871,17.669371 L56.3283871,14.8055806 L65.4408387,14.8055806 L65.4408387,84.8787258 L65.4408387,84.8787258 Z M75.5394677,75.7519194 L68.6706774,82.6178387 L68.6706774,13.2739194 L75.5394677,6.40656452 L75.5394677,75.7519194 L75.5394677,75.7519194 Z M85.6108226,82.5934355 L78.7693065,75.7519194 L78.7693065,6.40512903 L85.6108226,13.2480806 L85.6108226,82.5934355 L85.6108226,82.5934355 Z" id="Shape"></path>
                    <path d="M52.6621613,34.8205323 C52.9363387,34.8205323 53.2119516,34.7157419 53.4215323,34.5032903 L56.3283871,31.595 L56.3283871,26.658371 C56.3283871,26.0626452 55.8460645,25.5817581 55.2517742,25.5817581 C54.6560484,25.5817581 54.1751613,26.0626452 54.1751613,26.658371 L54.1751613,30.7035645 L51.8984839,32.9831129 C51.4778871,33.4037097 51.4778871,34.0855645 51.8984839,34.5061613 C52.1095,34.7157419 52.3851129,34.8205323 52.6621613,34.8205323 L52.6621613,34.8205323 Z" id="Shape"></path>
                    <path d="M47.0120968,44.7397258 C47.2877097,44.7397258 47.5647581,44.6349355 47.7743387,44.4239194 C48.1949355,44.0033226 48.1949355,43.3214677 47.7743387,42.900871 L46.3977097,41.5256774 L48.2308226,39.6925645 C48.6514194,39.2719677 48.6514194,38.5901129 48.2308226,38.1695161 C47.8102258,37.7489194 47.128371,37.7489194 46.7077742,38.1695161 L43.3516129,41.5256774 L46.2512903,44.4239194 C46.4623065,44.6335 46.7379194,44.7397258 47.0120968,44.7397258 L47.0120968,44.7397258 Z" id="Shape"></path>
                    <path d="M52.0477742,47.1743065 C51.6271774,46.7537097 50.9453226,46.7537097 50.5247258,47.1743065 C50.104129,47.5949032 50.104129,48.2767581 50.5247258,48.6973548 L52.9750968,51.1505968 L59.0586774,51.1505968 L59.0586774,53.3626774 C59.0586774,53.9540968 59.541,54.4392903 60.1352903,54.4392903 C60.7295806,54.4392903 61.2119032,53.9540968 61.2119032,53.3626774 L61.2119032,48.997371 L53.8665323,48.997371 L52.0477742,47.1743065 L52.0477742,47.1743065 Z" id="Shape"></path>
                    <path d="M60.1367258,58.8634516 C59.5424355,58.8634516 59.0601129,59.3429032 59.0601129,59.9400645 L59.0601129,62.1521452 L56.0183226,62.1521452 C55.4225968,62.1521452 54.9417097,62.6344677 54.9417097,63.2287581 C54.9417097,63.8259194 55.4225968,64.305371 56.0183226,64.305371 L61.2133387,64.305371 L61.2133387,59.9400645 C61.2133387,59.3429032 60.7310161,58.8634516 60.1367258,58.8634516 L60.1367258,58.8634516 Z" id="Shape"></path>
                    <path d="M36.487129,68.8745161 L34.0338871,71.3277581 L34.0338871,75.5868387 C34.0338871,76.184 34.5162097,76.6634516 35.1105,76.6634516 C35.7062258,76.6634516 36.1871129,76.184 36.1871129,75.5868387 L36.1871129,72.2191935 L38.0101774,70.396129 C38.4307742,69.9755323 38.4307742,69.2936774 38.0101774,68.8730806 C37.5895806,68.4524839 36.9077258,68.4553548 36.487129,68.8745161 L36.487129,68.8745161 Z" id="Shape"></path>
                    <path d="M47.7757742,62.1521452 L43.2095,62.1521452 L40.759129,64.6025161 C40.3385323,65.0231129 40.3385323,65.7049677 40.759129,66.1255645 C40.9687097,66.3351452 41.2443226,66.4428065 41.5185,66.4428065 C41.7941129,66.4428065 42.0711613,66.3365806 42.2807419,66.1255645 L44.1009355,64.305371 L47.7757742,64.305371 C48.3715,64.305371 48.8523871,63.8259194 48.8523871,63.2287581 C48.8523871,62.6344677 48.3715,62.1521452 47.7757742,62.1521452 L47.7757742,62.1521452 Z" id="Shape"></path>
                </g>
            </g>
        </g>
    </g>
</svg>