<?xml version="1.0" encoding="UTF-8" standalone="no"?>
<svg width="1440px" height="666px" viewBox="0 0 1440 666" version="1.1" xmlns="http://www.w3.org/2000/svg" xmlns:xlink="http://www.w3.org/1999/xlink">
    <!-- Generator: Sketch 39.1 (31720) - http://www.bohemiancoding.com/sketch -->
    <title>Desktop HD</title>
    <desc>Created with Sketch.</desc>
    <defs></defs>
    <g id="Page-1" stroke="none" stroke-width="1" fill="none" fill-rule="evenodd">
        <g id="Desktop-HD">
            <circle id="Oval-2" stroke="#F7F7F7" stroke-width="2" cx="178" cy="185" r="5"></circle>
            <circle id="Oval-2" stroke="#F7F7F7" cx="285" cy="399" r="5"></circle>
            <circle id="Oval-2" stroke="#F7F7F7" stroke-width="1.4" cx="734.5" cy="427.5" r="3.5"></circle>
            <circle id="Oval-2" stroke="#F7F7F7" stroke-width="2" cx="905" cy="262" r="5"></circle>
            <circle id="Oval-2" stroke="#F7F7F7" stroke-width="2" cx="1237" cy="599" r="5"></circle>
            <circle id="Oval-2" stroke="#F7F7F7" stroke-width="2" cx="200" cy="525" r="5"></circle>
            <g id="Group-2" transform="translate(361.000000, 215.000000)" stroke="#EEEEEE" stroke-width="3" stroke-linecap="round">
                <path d="M3.5,0.5 L3.5,8.5" id="Line"></path>
                <path d="M8,4 L0,4" id="Line"></path>
            </g>
            <g id="Group-2" transform="translate(516.000000, 442.000000)" stroke="#EEEEEE" stroke-width="2.4" stroke-linecap="round">
                <path d="M2.5,0.333333333 L2.5,5.66666667" id="Line"></path>
                <path d="M5,3 L0,3" id="Line"></path>
            </g>
            <g id="Group-2" transform="translate(832.000000, 310.000000)" stroke="#EEEEEE" stroke-width="3" stroke-linecap="round">
                <path d="M4.5,0.5 L4.5,8.5" id="Line"></path>
                <path d="M8,3 L0,3" id="Line"></path>
            </g>
            <g id="Group-2" transform="translate(1100.000000, 383.000000)" stroke="#EEEEEE" stroke-width="2" stroke-linecap="round">
                <path d="M4,0.5 L4,8.5" id="Line"></path>
                <path d="M8,4 L0,4" id="Line"></path>
            </g>
            <g id="Group-2" transform="translate(1072.000000, 197.000000)" stroke="#EEEEEE" stroke-width="2" stroke-linecap="round">
                <path d="M4,0.5 L4,8.5" id="Line"></path>
                <path d="M8,4 L0,4" id="Line"></path>
            </g>
            <g id="Group-2" transform="translate(1373.000000, 150.000000)" stroke="#EEEEEE" stroke-width="2.8" stroke-linecap="round">
                <path d="M3,0.333333333 L3,5.66666667" id="Line"></path>
                <path d="M6,3 L0,3" id="Line"></path>
            </g>
            <g id="Group-2" transform="translate(1296.000000, 591.000000)" stroke="#EEEEEE" stroke-width="4" stroke-linecap="round">
                <path d="M4,0.5 L4,8.5" id="Line"></path>
                <path d="M8,4.5 L0,4.5" id="Line"></path>
            </g>
            <g id="Group-2" transform="translate(1041.000000, 558.000000)" stroke="#EEEEEE" stroke-width="4" stroke-linecap="round">
                <path d="M4,0.5 L4,8.5" id="Line"></path>
                <path d="M8,4.5 L0,4.5" id="Line"></path>
            </g>
            <g id="Group-2" transform="translate(153.000000, 327.000000)" stroke="#EEEEEE" stroke-width="2" stroke-linecap="round">
                <path d="M2,0.277777778 L2,4.72222222" id="Line"></path>
                <path d="M4,2.5 L0,2.5" id="Line"></path>
            </g>
            <circle id="Oval-2" stroke="#F7F7F7" cx="372" cy="332" r="3"></circle>
            <circle id="Oval-2" stroke="#F7F7F7" cx="656.5" cy="336.5" r="2.5"></circle>
            <path d="M525.5,289.5 L538.5,285.5" id="Line" stroke="#F5F5F5" stroke-width="3" stroke-linecap="round"></path>
            <path d="M1020.5,255.5 L1033.5,251.5" id="Line" stroke="#F5F5F5" stroke-width="3" stroke-linecap="round" transform="translate(1027.000000, 253.500000) rotate(21.000000) translate(-1027.000000, -253.500000) "></path>
            <path d="M247.200524,196.630881 L254.5,196.630881" id="Line" stroke="#F5F5F5" stroke-width="3" stroke-linecap="round"></path>
        </g>
    </g>
</svg>