<?xml version="1.0" encoding="UTF-8" standalone="no"?>
<svg width="1440px" height="269px" viewBox="0 0 1440 269" version="1.1" xmlns="http://www.w3.org/2000/svg" xmlns:xlink="http://www.w3.org/1999/xlink">
    <!-- Generator: Sketch 40.1 (33804) - http://www.bohemiancoding.com/sketch -->
    <title>Artboard</title>
    <desc>Created with Sketch.</desc>
    <defs>
        <path d="M122.001257,78.2632317 C114.039066,79.6787217 108,86.6335615 108,95 C108,104.390905 115.61067,112 124.998908,112 L195.001092,112 C204.394767,112 212,104.388841 212,95 C212,88.0912506 207.880857,82.146875 201.965177,79.4871629 C201.445231,71.951578 195.167648,66 187.5,66 C182.465848,66 178.030884,68.5654321 175.431149,72.4602561 C172.875768,60.205849 162.012955,51 149,51 C134.088312,51 122,63.0883118 122,78 C122,78.0878425 122.000419,78.175587 122.001257,78.2632317 Z" id="path-1"></path>
        <mask id="mask-2" maskContentUnits="userSpaceOnUse" maskUnits="objectBoundingBox" x="0" y="0" width="104" height="61" fill="white">
            <use xlink:href="#path-1"></use>
        </mask>
    </defs>
    <g id="Page-1" stroke="none" stroke-width="1" fill="none" fill-rule="evenodd">
        <g id="Artboard" stroke="#EFEFEF">
            <path d="M1148.36027,200.05291 C1154.57848,169.772428 1181.37985,147 1213.5,147 C1223.5867,147 1233.1489,149.245705 1241.71387,153.264406 C1254.14405,124.852351 1282.50364,105 1315.5,105 C1354.65692,105 1387.28404,132.957411 1394.50912,170 L1415.50445,170 C1437.86953,170 1456,188.12755 1456,210.5 C1456,232.867532 1437.86691,251 1415.50445,251 L1187.49555,251 C1167.6587,251 1151.15318,236.739206 1147.67499,217.904394 C1147.23143,216.500171 1147,215.032039 1147,213.5 C1147,212.936657 1147.007,212.37495 1147.02093,211.814961 C1147.00701,211.378353 1147,210.939998 1147,210.5 C1147,206.887669 1147.47295,203.385797 1148.36027,200.052921 Z" id="Combined-Shape"></path>
            <path d="M1128.97087,48.0200278 C1119.07059,35.8066733 1103.94697,28 1087,28 C1071.49794,28 1057.52156,34.5322225 1047.67324,44.9942896 C1044.88747,44.3439225 1041.9839,44 1039,44 C1018.01318,44 1001,61.0131795 1001,82 C1001,102.98682 1018.01318,120 1039,120 C1041.9839,120 1044.88747,119.656078 1047.67324,119.00571 C1057.52156,129.467777 1071.49794,136 1087,136 C1103.94697,136 1119.07059,128.193327 1128.97087,115.979972 C1134.09324,118.552076 1139.87753,120 1146,120 C1166.98682,120 1184,102.98682 1184,82 C1184,61.0131795 1166.98682,44 1146,44 C1139.87753,44 1134.09324,45.4479242 1128.97087,48.0200278 Z" id="Combined-Shape"></path>
            <path d="M287.904756,179.053318 C281.4221,156.50031 260.637977,140 236,140 C211.955434,140 191.581316,155.715055 184.588396,177.434414 C170.219714,182.855503 160,196.73428 160,213 C160,233.98682 177.01318,251 198,251 C198.657496,251 199.311092,250.983301 199.960387,250.950305 C203.030447,251.254883 206.482617,251.412654 210.358867,251.412654 C241.324975,251.315238 264.872812,250.643014 282.519425,249.471643 C289.149382,249.614864 296.484105,249.720516 304.582362,249.787523 C334.097789,250.031738 343,233.98682 343,213 C343,192.01318 325.98682,175 305,175 C298.851171,175 293.043441,176.460418 287.904753,179.053309 Z" id="Combined-Shape"></path>
            <use id="Combined-Shape" mask="url(#mask-2)" stroke-width="2" xlink:href="#path-1"></use>
        </g>
    </g>
</svg>