<?xml version="1.0" encoding="UTF-8" standalone="no"?>
<svg width="1440px" height="1024px" viewBox="0 0 1440 1024" version="1.1" xmlns="http://www.w3.org/2000/svg" xmlns:xlink="http://www.w3.org/1999/xlink">
    <!-- Generator: Sketch 39.1 (31720) - http://www.bohemiancoding.com/sketch -->
    <title>Desktop HD Copy</title>
    <desc>Created with Sketch.</desc>
    <defs>
        <polygon id="path-1" points="660.467087 730 860.422607 730 960 930 560 930"></polygon>
        <mask id="mask-2" maskContentUnits="userSpaceOnUse" maskUnits="objectBoundingBox" x="0" y="0" width="400" height="200" fill="white">
            <use xlink:href="#path-1"></use>
        </mask>
    </defs>
    <g id="Page-1" stroke="none" stroke-width="1" fill="none" fill-rule="evenodd">
        <g id="Desktop-HD-Copy">
            <polyline id="Path-3" stroke="#F9F9F9" stroke-width="8" points="227.853733 551.999477 561.529422 333.936363 855.4948 525.48676 1191.80066 182.805752 1486.12584 454.379879"></polyline>
            <g id="Group" transform="translate(105.000000, 336.000000)" stroke="#F9F9F9" stroke-width="10">
                <path d="M59,4.5 L59,530.807922" id="Line" stroke-linecap="square"></path>
                <polyline id="Path-4" points="0 39.9451132 58.9480705 0 119.902344 40.988082"></polyline>
                <polyline id="Path-4-Copy" points="0 119.945113 58.9480705 80 119.902344 120.988082"></polyline>
                <polyline id="Path-4-Copy-2" points="0 190.945113 58.9480705 151 119.902344 191.988082"></polyline>
                <polyline id="Path-4-Copy-3" points="0 261.945113 58.9480705 222 119.902344 262.988082"></polyline>
            </g>
            <g id="Group-Copy" transform="translate(1100.000000, 455.000000)" stroke="#F9F9F9" stroke-width="10">
                <path d="M59,4.5 L59,530.807922" id="Line" stroke-linecap="square"></path>
                <polyline id="Path-4" points="0 39.9451132 58.9480705 0 119.902344 40.988082"></polyline>
                <polyline id="Path-4-Copy" points="0 119.945113 58.9480705 80 119.902344 120.988082"></polyline>
                <polyline id="Path-4-Copy-2" points="0 190.945113 58.9480705 151 119.902344 191.988082"></polyline>
                <polyline id="Path-4-Copy-3" points="0 261.945113 58.9480705 222 119.902344 262.988082"></polyline>
            </g>
            <use id="Rectangle-4" stroke="#F9F9F9" mask="url(#mask-2)" stroke-width="18" xlink:href="#path-1"></use>
            <path d="M664.557581,737.401178 L756.141038,923.34115" id="Line" stroke="#F9F9F9" stroke-width="9" stroke-linecap="square"></path>
            <path d="M662.5,737.535405 L662.5,923.022405" id="Line" stroke="#F9F9F9" stroke-width="9" stroke-linecap="square"></path>
            <path d="M360.5,820.5 L419.5,920.5" id="Line" stroke="#F9F9F9" stroke-width="7" stroke-linecap="round"></path>
            <path d="M420.5,820.5 L360.5,920.5" id="Line" stroke="#F9F9F9" stroke-width="7" stroke-linecap="round"></path>
            <path d="M391.5,820.5 L391.5,913.505379" id="Line" stroke="#F9F9F9" stroke-width="7" stroke-linecap="round"></path>
            <polyline id="Path-5" stroke="#F9F9F9" stroke-width="3" stroke-linecap="round" stroke-linejoin="round" points="391.036891 764.939431 409.980982 725.640388 390.123021 686.990325 410.600824 645.953605 390.536249 607.06779"></polyline>
            <path d="M1028.28287,68.0000009 C1068.32797,71.8435372 1099.64143,105.582534 1099.64143,146.63518 C1099.64143,190.265676 1064.27193,225.63518 1020.64143,225.63518 C996.278601,225.63518 974.491543,214.606992 960,197.270361 C962.514578,197.51171 965.063586,197.63518 967.641431,197.63518 C1011.27193,197.63518 1046.64143,162.265676 1046.64143,118.63518 C1046.64143,99.3675151 1039.74369,81.7109036 1028.28286,68 Z" id="Combined-Shape-Copy" stroke="#F7F7F7" stroke-width="5"></path>
            <circle id="Oval-2-Copy" stroke="#F7F7F7" stroke-width="1.4" cx="52.5" cy="271.5" r="3.5"></circle>
            <circle id="Oval-2-Copy-2" stroke="#F7F7F7" stroke-width="2" cx="223" cy="106" r="5"></circle>
            <g id="Group-2-Copy" transform="translate(150.000000, 154.000000)" stroke="#EEEEEE" stroke-width="4" stroke-linecap="round">
                <path d="M4,0.5 L4,8.5" id="Line"></path>
                <path d="M8,4.5 L0,4.5" id="Line"></path>
            </g>
            <g id="Group-2-Copy-2" transform="translate(418.000000, 227.000000)" stroke="#EEEEEE" stroke-width="4" stroke-linecap="round">
                <path d="M4,0.5 L4,8.5" id="Line"></path>
                <path d="M8,4.5 L0,4.5" id="Line"></path>
            </g>
            <g id="Group-2-Copy-3" transform="translate(390.000000, 41.000000)" stroke="#EEEEEE" stroke-width="4" stroke-linecap="round">
                <path d="M4,0.5 L4,8.5" id="Line"></path>
                <path d="M8,4.5 L0,4.5" id="Line"></path>
            </g>
            <g id="Group-2-Copy-4" transform="translate(359.000000, 402.000000)" stroke="#EEEEEE" stroke-width="4" stroke-linecap="round">
                <path d="M4,0.5 L4,8.5" id="Line"></path>
                <path d="M8,4.5 L0,4.5" id="Line"></path>
            </g>
            <circle id="Oval-2" stroke="#F7F7F7" stroke-width="2" cx="771" cy="86" r="5"></circle>
            <circle id="Oval-2" stroke="#F7F7F7" stroke-width="2" cx="793" cy="426" r="5"></circle>
            <g id="Group-2" transform="translate(954.000000, 116.000000)" stroke="#EEEEEE" stroke-width="4" stroke-linecap="round">
                <path d="M4,0.5 L4,8.5" id="Line"></path>
                <path d="M8,4.5 L0,4.5" id="Line"></path>
            </g>
            <g id="Group-2" transform="translate(1375.000000, 194.000000)" stroke="#EEEEEE" stroke-width="4" stroke-linecap="round">
                <path d="M4,0.5 L4,8.5" id="Line"></path>
                <path d="M8,4.5 L0,4.5" id="Line"></path>
            </g>
            <g id="Group-2" transform="translate(1279.000000, 173.000000)" stroke="#EEEEEE" stroke-width="2.4" stroke-linecap="round">
                <path d="M2.5,0.333333333 L2.5,5.66666667" id="Line"></path>
                <path d="M5,3 L0,3" id="Line"></path>
            </g>
            <g id="Group-2" transform="translate(746.000000, 228.000000)" stroke="#EEEEEE" stroke-width="2" stroke-linecap="round">
                <path d="M2,0.277777778 L2,4.72222222" id="Line"></path>
                <path d="M4,2.5 L0,2.5" id="Line"></path>
            </g>
        </g>
    </g>
</svg>