<?xml version="1.0" encoding="UTF-8" standalone="no"?>
<svg width="1440px" height="666px" viewBox="0 0 1440 666" version="1.1" xmlns="http://www.w3.org/2000/svg" xmlns:xlink="http://www.w3.org/1999/xlink">
    <!-- Generator: Sketch 40.1 (33804) - http://www.bohemiancoding.com/sketch -->
    <title>Desktop HD Copy 2</title>
    <desc>Created with Sketch.</desc>
    <defs>
        <path d="M1121.90158,538 L1078.99364,538 C1066.30647,538 1056,548.297451 1056,561 C1056,573.705342 1066.2946,584 1078.99364,584 L1238.00636,584 C1250.69353,584 1261,573.702549 1261,561 C1261,560.572911 1260.98837,560.148546 1260.9654,559.727204 C1260.98837,559.488016 1261,559.245614 1261,559 C1261,540.222319 1245.77768,525 1227,525 C1218.84163,525 1211.35438,527.873453 1205.49512,532.663512 C1196.26006,520.703236 1181.77962,513 1165.5,513 C1146.91125,513 1130.66829,523.04349 1121.90158,538 Z" id="path-1"></path>
        <mask id="mask-2" maskContentUnits="userSpaceOnUse" maskUnits="objectBoundingBox" x="0" y="0" width="205" height="71" fill="white">
            <use xlink:href="#path-1"></use>
        </mask>
        <path d="M821,562.287237 C827.107625,567.330652 831,574.959852 831,583.5 C831,598.687831 818.684134,611 803.491653,611 L715.508347,611 C700.315906,611 688,598.69117 688,583.5 C688,568.321608 700.300563,556.015304 715.480025,556.000014 C717.810279,544.032917 728.347772,535 741,535 C743.59937,535 746.109648,535.381158 748.477909,536.090703 C754.496216,523.050041 767.688579,514 783,514 C803.98682,514 821,531.018707 821,551.992851 L821,562.287237 Z" id="path-3"></path>
        <mask id="mask-4" maskContentUnits="userSpaceOnUse" maskUnits="objectBoundingBox" x="0" y="0" width="143" height="97" fill="white">
            <use xlink:href="#path-3"></use>
        </mask>
    </defs>
    <g id="Page-1" stroke="none" stroke-width="1" fill="none" fill-rule="evenodd">
        <g id="Desktop-HD-Copy-2" stroke="#E3EBFF">
            <path d="M256.360272,232.05291 C262.578481,201.772428 289.379848,179 321.5,179 C331.586704,179 341.148896,181.245705 349.713865,185.264406 C362.144047,156.852351 390.503641,137 423.5,137 C462.65692,137 495.284036,164.957411 502.509118,202 L523.504454,202 C545.869526,202 564,220.12755 564,242.5 C564,264.867532 545.866909,283 523.504454,283 L295.495546,283 C275.658701,283 259.153179,268.739206 255.674986,249.904394 C255.231431,248.500171 255,247.032039 255,245.5 C255,244.936657 255.007005,244.37495 255.020932,243.814961 C255.007013,243.378353 255,242.939998 255,242.5 C255,238.887669 255.472945,235.385797 256.36027,232.052921 Z" id="Combined-Shape"></path>
            <use id="Combined-Shape" mask="url(#mask-2)" stroke-width="2" xlink:href="#path-1"></use>
            <path d="M432.993553,489.147735 C436.948825,490.978439 441.355113,492 446,492 C463.120827,492 477,478.120827 477,461 C477,443.879173 463.120827,430 446,430 C443.463126,430 440.997425,430.304728 438.637504,430.879576 C434.207253,414.80564 419.482304,403 402,403 C381.01318,403 364,420.01318 364,441 C364,443.122612 364.174034,445.204577 364.508611,447.232403 C351.800175,448.938039 342,459.824543 342,473 C342,487.359403 353.640597,499 368,499 C375.796149,499 382.790867,495.568669 387.556303,490.133858 C392.070567,497.831398 400.431688,503 410,503 C419.97141,503 428.631772,497.386734 432.993553,489.147735 Z" id="Combined-Shape"></path>
            <path d="M887.970871,240.020028 C878.070588,227.806673 862.946967,220 846,220 C830.497938,220 816.521558,226.532223 806.673239,236.99429 C803.887472,236.343922 800.9839,236 798,236 C777.01318,236 760,253.01318 760,274 C760,294.98682 777.01318,312 798,312 C800.9839,312 803.887472,311.656078 806.673239,311.00571 C816.521558,321.467777 830.497938,328 846,328 C862.946967,328 878.070588,320.193327 887.970871,307.979972 C893.093237,310.552076 898.877528,312 905,312 C925.98682,312 943,294.98682 943,274 C943,253.01318 925.98682,236 905,236 C898.877528,236 893.093237,237.447924 887.970871,240.020028 Z" id="Combined-Shape"></path>
            <path d="M1183.90476,120.053318 C1177.4221,97.5003103 1156.63798,81 1132,81 C1107.95543,81 1087.58132,96.7150547 1080.5884,118.434414 C1066.21971,123.855503 1056,137.73428 1056,154 C1056,174.98682 1073.01318,192 1094,192 C1094.6575,192 1095.31109,191.983301 1095.96039,191.950305 C1099.03045,192.254883 1102.48262,192.412654 1106.35887,192.412654 C1137.32497,192.315238 1160.87281,191.643014 1178.51943,190.471643 C1185.14938,190.614864 1192.48411,190.720516 1200.58236,190.787523 C1230.09779,191.031738 1239,174.98682 1239,154 C1239,133.01318 1221.98682,116 1201,116 C1194.85117,116 1189.04344,117.460418 1183.90475,120.053309 Z" id="Combined-Shape"></path>
            <use id="Combined-Shape" mask="url(#mask-4)" stroke-width="2" xlink:href="#path-3"></use>
        </g>
    </g>
</svg>