<?xml version="1.0" encoding="UTF-8" standalone="no"?>
<svg width="275px" height="222px" viewBox="0 0 275 222" version="1.1" xmlns="http://www.w3.org/2000/svg" xmlns:xlink="http://www.w3.org/1999/xlink">
    <!-- Generator: Sketch 40.1 (33804) - http://www.bohemiancoding.com/sketch -->
    <title>Artboard Copy 2</title>
    <desc>Created with Sketch.</desc>
    <defs>
        <rect id="path-1" x="0" y="0" width="219" height="91" rx="9"></rect>
        <mask id="mask-2" maskContentUnits="userSpaceOnUse" maskUnits="objectBoundingBox" x="0" y="0" width="219" height="91" fill="white">
            <use xlink:href="#path-1"></use>
        </mask>
        <rect id="path-3" x="5" y="6" width="219" height="91" rx="9"></rect>
        <mask id="mask-4" maskContentUnits="userSpaceOnUse" maskUnits="objectBoundingBox" x="0" y="0" width="219" height="91" fill="white">
            <use xlink:href="#path-3"></use>
        </mask>
    </defs>
    <g id="Page-1" stroke="none" stroke-width="1" fill="none" fill-rule="evenodd">
        <g id="Artboard-Copy-2">
            <g id="Group" transform="translate(26.000000, 63.000000)">
                <use id="Rectangle-Copy" stroke="#5D5D5D" mask="url(#mask-2)" stroke-width="4" fill="#FFFFFF" xlink:href="#path-1"></use>
                <use id="Rectangle" stroke="#5D5D5D" mask="url(#mask-4)" stroke-width="4" fill="#FFFFFF" xlink:href="#path-3"></use>
                <path d="M152.5,10.5 L152.5,94.5" id="Line" stroke="#B3B3B3" stroke-linecap="square" stroke-dasharray="3,5"></path>
                <path d="M162.5,26 L214.913813,26" id="Line" stroke="#5D5D5D" stroke-width="2" stroke-linecap="square"></path>
                <path d="M162.5,78 L214.913813,78" id="Line-Copy" stroke="#5D5D5D" stroke-width="2" stroke-linecap="square"></path>
                <path d="M162.5,65 L214.913813,65" id="Line-Copy-2" stroke="#5D5D5D" stroke-width="2" stroke-linecap="square"></path>
                <path d="M162.5,52 L214.913813,52" id="Line-Copy-3" stroke="#5D5D5D" stroke-width="2" stroke-linecap="square"></path>
                <path d="M162.5,39 L214.913813,39" id="Line-Copy-4" stroke="#5D5D5D" stroke-width="2" stroke-linecap="square"></path>
                <path d="M70.9275113,86.399052 C69.2037094,86.399052 67.8062918,85.0016345 67.8062918,83.2778325 L67.8062918,81.0227106 C67.8062918,79.9939916 68.2906337,79.0253078 69.1136089,78.4080764 L74.2284869,74.584174 C74.2439228,74.5476061 74.2439228,74.5063516 74.2284869,74.4697837 L74.2284869,60.1056374 C74.2313353,60.0564246 74.2093395,60.0090576 74.1699034,59.9794805 C74.1304673,59.9499034 74.078836,59.9420502 74.0323893,59.9585642 L52.4289747,66.7729545 C51.4820323,67.0690434 50.4507245,66.8972895 49.6508521,66.3102864 C48.8509797,65.7232832 48.3778314,64.7909605 48.3762918,63.7988081 L48.3762918,60.1056374 C48.3740321,58.9764375 48.9548271,57.9260635 49.9123893,57.3275886 L74.2284869,42.1300277 C74.248919,42.0888454 74.248919,42.0404782 74.2284869,41.9992959 L74.2284869,25.6578325 C74.1334299,22.9700074 75.6060197,20.471067 78.003365,19.2519789 C80.9764378,17.9426336 84.45578,18.7246572 86.5826333,21.1802716 C87.2362918,21.8339301 87.3343406,21.9319789 87.4814137,41.966613 C87.4632235,42.008292 87.4632235,42.0556657 87.4814137,42.0973447 L111.928243,57.3112472 C112.844781,57.8785661 113.401498,58.8806556 113.398975,59.9585642 L113.398975,63.7824667 C113.406024,64.7853748 112.930708,65.7305766 112.121424,66.3229727 C111.312139,66.9153689 110.267485,67.0827858 109.313609,66.7729545 L87.6775113,59.9912472 C87.6310646,59.9747331 87.5794334,59.9825863 87.5399973,60.0121634 C87.5005612,60.0417405 87.4785653,60.0891076 87.4814137,60.1383203 L87.4814137,74.4534423 C87.4659779,74.4900102 87.4659779,74.5312646 87.4814137,74.5678325 L92.5962918,78.391735 C93.419267,79.0089664 93.9036089,79.9776501 93.9036089,81.0063691 L93.9036089,83.2614911 C93.8954997,84.2259312 93.4419814,85.1324511 92.6750282,85.7172529 C91.908075,86.3020548 90.9138442,86.4994435 89.9816576,86.2519789 L80.9284869,83.6700277 L80.8467796,83.6700277 L71.728243,86.2519789 C71.4688073,86.3353913 71.1996549,86.3848274 70.9275113,86.399052 L70.9275113,86.399052 Z" id="Shape" stroke="#0A7BFF" stroke-width="2" transform="translate(80.887669, 52.511383) rotate(-270.000000) translate(-80.887669, -52.511383) "></path>
            </g>
        </g>
    </g>
</svg>