<?xml version="1.0" encoding="UTF-8" standalone="no"?>
<svg width="275px" height="222px" viewBox="0 0 275 222" version="1.1" xmlns="http://www.w3.org/2000/svg" xmlns:xlink="http://www.w3.org/1999/xlink">
    <!-- Generator: Sketch 40.1 (33804) - http://www.bohemiancoding.com/sketch -->
    <title>Artboard Copy 3</title>
    <desc>Created with Sketch.</desc>
    <defs>
        <rect id="path-1" x="86" y="6" width="104" height="214" rx="8"></rect>
        <mask id="mask-2" maskContentUnits="userSpaceOnUse" maskUnits="objectBoundingBox" x="0" y="0" width="104" height="214" fill="white">
            <use xlink:href="#path-1"></use>
        </mask>
        <rect id="path-3" x="100" y="30" width="81" height="47" rx="2"></rect>
        <mask id="mask-4" maskContentUnits="userSpaceOnUse" maskUnits="objectBoundingBox" x="0" y="0" width="81" height="47" fill="white">
            <use xlink:href="#path-3"></use>
        </mask>
        <rect id="path-5" x="100" y="86" width="81" height="47" rx="2"></rect>
        <mask id="mask-6" maskContentUnits="userSpaceOnUse" maskUnits="objectBoundingBox" x="0" y="0" width="81" height="47" fill="white">
            <use xlink:href="#path-5"></use>
        </mask>
        <rect id="path-7" x="100" y="141" width="81" height="47" rx="2"></rect>
        <mask id="mask-8" maskContentUnits="userSpaceOnUse" maskUnits="objectBoundingBox" x="0" y="0" width="81" height="47" fill="white">
            <use xlink:href="#path-7"></use>
        </mask>
    </defs>
    <g id="Page-1" stroke="none" stroke-width="1" fill="none" fill-rule="evenodd">
        <g id="Artboard-Copy-3">
            <use id="Rectangle-3" stroke="#979797" mask="url(#mask-2)" stroke-width="4" fill="#FFFFFF" xlink:href="#path-1"></use>
            <path d="M96.5,192 L180.648678,192" id="Line" stroke="#979797" stroke-width="2" stroke-linecap="round"></path>
            <path d="M96.5,25 L180.648678,25" id="Line-Copy" stroke="#979797" stroke-width="2" stroke-linecap="round"></path>
            <path d="M130.5,17 L146,17" id="Line-Copy-2" stroke="#979797" stroke-width="2" stroke-linecap="round"></path>
            <circle id="Oval" stroke="#979797" fill="#979797" cx="156" cy="17" r="1"></circle>
            <circle id="Oval-3" stroke="#979797" fill="#FFFFFF" cx="138" cy="205" r="8"></circle>
            <use id="Rectangle-4" stroke="#979797" mask="url(#mask-4)" stroke-width="2" fill="#FFFFFF" xlink:href="#path-3"></use>
            <g id="Group" transform="translate(104.000000, 35.000000)">
                <path d="M12.2917895,19.1768889 C12.5854526,19.2928429 12.8974211,19.3597854 13.2164,19.3597854 C13.5544632,19.3597854 13.8983684,19.291249 14.2282526,19.1462069 C14.8592,18.8684751 15.3464316,18.3564444 15.6003684,17.7037548 C15.6743684,17.5132874 15.7234421,17.3172414 15.7526526,17.1196015 C15.9127263,17.2331648 16.0821474,17.3343755 16.2675368,17.4100843 C16.5756105,17.5356015 16.8973158,17.5981609 17.2186316,17.5981609 C17.5633158,17.5981609 17.9076105,17.5264368 18.2336,17.38259 C18.8645474,17.1052567 19.3517789,16.5932261 19.6057158,15.9409349 C19.8596526,15.2886437 19.8503053,14.5737931 19.5792316,13.9286743 C17.6384842,9.31561686 12.4654947,7.12324904 7.92578947,8.92153257 C7.87126316,8.78685057 7.74195789,8.69161686 7.59045263,8.69161686 C7.38987368,8.69161686 7.22707368,8.85817625 7.22707368,9.06338697 C7.22707368,9.12156322 7.24265263,9.17455939 7.26563158,9.22317241 C5.19986316,10.237272 3.59912632,11.9725977 2.74617895,14.1637701 C1.84571579,16.4764751 1.8796,19.009931 2.8416,21.2971341 C3.11267368,21.9418544 3.61353684,22.4403372 4.25110526,22.7001379 C4.55917895,22.8252567 4.88088421,22.8882146 5.2022,22.8882146 C5.54688421,22.8882146 5.89156842,22.816092 6.21755789,22.6726437 C6.84811579,22.3953103 7.33534737,21.8832797 7.58928421,21.2309885 C7.66328421,21.0401226 7.71235789,20.8444751 7.74156842,20.6468352 C7.90164211,20.76 8.07106316,20.8612107 8.25645263,20.9369195 C8.56452632,21.0620383 8.88623158,21.1249962 9.20793684,21.1249962 C9.55262105,21.1249962 9.89691579,21.053272 10.2225158,20.9098238 C10.8620316,20.6281073 11.3317368,20.1100996 11.5790526,19.4988506 L16.1725053,30.4208429 L16.9954632,30.4208429 L12.2917895,19.1768889 Z M7.32483158,18.6357701 C6.19847368,15.7831418 5.04796842,11.4713257 7.56942105,9.96472031 L10.6084842,17.1905287 L7.32483158,18.6357701 L7.32483158,18.6357701 Z M11.3235579,16.875341 L8.28566316,9.65192337 C9.40345263,9.31083525 10.4970947,9.66427586 11.6172211,10.7385441 C12.6633474,11.7422835 13.6662421,13.3238008 14.6048737,15.431295 L11.3235579,16.875341 L11.3235579,16.875341 Z M14.8763368,17.4092874 C14.6995158,17.8639387 14.3598947,18.220567 13.9201789,18.4142222 C13.0645053,18.7907739 12.0834211,18.42259 11.6468211,17.6009502 L14.9071053,16.1656705 C15.0371895,16.5725057 15.0329053,17.0068352 14.8763368,17.4092874 L14.8763368,17.4092874 Z M18.8820737,15.645272 C18.7048632,16.0999234 18.3652421,16.4569502 17.9255263,16.6502069 C17.4865895,16.8434636 16.9997474,16.850636 16.5553579,16.6693333 C16.1619895,16.5091494 15.8508,16.2134866 15.6517789,15.8377318 L18.9128421,14.4020536 C19.0433158,14.8088889 19.0386421,15.2432184 18.8820737,15.645272 L18.8820737,15.645272 Z M18.5903579,13.6764444 L15.3199474,15.1161073 C14.3365263,12.9050115 13.2720947,11.2338391 12.1496316,10.1571801 C11.6729158,9.69973946 11.1903579,9.3530728 10.7031263,9.11399234 C13.9127789,8.91794636 17.0464842,10.6433103 18.5903579,13.6764444 L18.5903579,13.6764444 Z M3.46943158,14.4582375 C3.93641053,13.2584521 4.65382105,12.2120766 5.55428421,11.3609502 C4.98058947,13.1349272 5.33228421,15.7146054 6.61326316,18.9489655 L3.34012632,20.3898238 C2.68581053,18.4584521 2.72281053,16.3764598 3.46943158,14.4582375 L3.46943158,14.4582375 Z M6.86525263,20.9357241 C6.68804211,21.3903755 6.34881053,21.7470038 5.90909474,21.9402605 C5.47015789,22.1343142 4.98292632,22.1414866 4.53853684,21.9597854 C4.14555789,21.8 3.83397895,21.5039387 3.63495789,21.1277854 L6.89602105,19.6921073 C7.02649474,20.0989425 7.02221053,20.533272 6.86525263,20.9357241 L6.86525263,20.9357241 Z M9.91483158,20.1770421 C9.47550526,20.3702989 8.98866316,20.3774713 8.54466316,20.1961686 C8.15129474,20.0363831 7.84010526,19.7403218 7.64108421,19.364567 L10.9013684,17.9288889 C11.1841263,18.8186667 10.7705053,19.8004904 9.91483158,20.1770421 L9.91483158,20.1770421 Z" id="Shape" fill="#4A4A4A"></path>
                <path d="M0.5,30.5 L72.2011719,30.7094727" id="Line" stroke="#4A4A4A" stroke-linecap="round"></path>
                <path d="M60.2755684,11.2940077 C62.3514632,11.2940077 64.0406105,9.56625287 64.0406105,7.44202299 C64.0406105,5.3177931 62.3514632,3.59003831 60.2755684,3.59003831 C58.1996737,3.59003831 56.5105263,5.3177931 56.5105263,7.44202299 C56.5105263,9.56625287 58.1996737,11.2940077 60.2755684,11.2940077 L60.2755684,11.2940077 Z M60.2755684,4.38697318 C61.9222632,4.38697318 63.2616632,5.75730268 63.2616632,7.44202299 C63.2616632,9.1267433 61.9222632,10.4970728 60.2755684,10.4970728 C58.6288737,10.4970728 57.2894737,9.1267433 57.2894737,7.44202299 C57.2894737,5.75730268 58.6288737,4.38697318 60.2755684,4.38697318 L60.2755684,4.38697318 Z" id="Shape" stroke="#4A4A4A" stroke-width="0.25" fill="#4A4A4A"></path>
                <path d="M65.5337332,7.93853551 L66.3750396,7.93853551 C66.6076608,7.93853551 66.7956927,7.74573113 66.7956927,7.50816858 C66.7956927,7.27060604 66.6076608,7.07780165 66.3750396,7.07780165 L65.5337332,7.07780165 C65.301112,7.07780165 65.11308,7.27060604 65.11308,7.50816858 C65.11308,7.74573113 65.301112,7.93853551 65.5337332,7.93853551 L65.5337332,7.93853551 Z" id="Shape" stroke="#4A4A4A" stroke-width="0.15" fill="#4A4A4A"></path>
                <path d="M54.1760973,7.93853551 L55.0174036,7.93853551 C55.2500249,7.93853551 55.4380568,7.74573113 55.4380568,7.50816858 C55.4380568,7.27060604 55.2500249,7.07780165 55.0174036,7.07780165 L54.1760973,7.07780165 C53.9434761,7.07780165 53.7554441,7.27060604 53.7554441,7.50816858 C53.7554441,7.74573113 53.9434761,7.93853551 54.1760973,7.93853551 L54.1760973,7.93853551 Z" id="Shape" stroke="#4A4A4A" stroke-width="0.15" fill="#4A4A4A"></path>
                <path d="M60.2755684,2.55894889 C60.5081896,2.55894889 60.6962216,2.36614451 60.6962216,2.12858196 L60.6962216,1.2678481 C60.6962216,1.03028556 60.5081896,0.837481171 60.2755684,0.837481171 C60.0429472,0.837481171 59.8549152,1.03028556 59.8549152,1.2678481 L59.8549152,2.12858196 C59.8549152,2.36614451 60.0429472,2.55894889 60.2755684,2.55894889 L60.2755684,2.55894889 Z" id="Shape" stroke="#4A4A4A" stroke-width="0.15" fill="#4A4A4A"></path>
                <path d="M59.8549152,12.8877552 L59.8549152,13.7484891 C59.8549152,13.9860516 60.0429472,14.178856 60.2755684,14.178856 C60.5081896,14.178856 60.6962216,13.9860516 60.6962216,13.7484891 L60.6962216,12.8877552 C60.6962216,12.6501927 60.5081896,12.4573883 60.2755684,12.4573883 C60.0429472,12.4573883 59.8549152,12.6501927 59.8549152,12.8877552 L59.8549152,12.8877552 Z" id="Shape" stroke="#4A4A4A" stroke-width="0.15" fill="#4A4A4A"></path>
                <path d="M63.9937219,4.13495259 C64.1014091,4.13495259 64.2090963,4.09277663 64.2911237,4.00885508 L64.8859273,3.39988587 C65.0504027,3.2316124 65.0504027,2.95919013 64.8859273,2.79091667 C64.7214519,2.62307356 64.4555991,2.62307356 64.2911237,2.79091667 L63.6963201,3.39988587 C63.5318447,3.56815934 63.5318447,3.84058161 63.6963201,4.00885508 C63.7783475,4.09277663 63.8860347,4.13495259 63.9937219,4.13495259 L63.9937219,4.13495259 Z" id="Shape" stroke="#4A4A4A" stroke-width="0.15" fill="#4A4A4A"></path>
                <path d="M56.2600131,11.0079125 L55.6652095,11.6164513 C55.5007341,11.7847248 55.5007341,12.0567167 55.6652095,12.2249901 C55.7472369,12.3089117 55.8549241,12.3510876 55.9626113,12.3510876 C56.0702986,12.3510876 56.1779858,12.3089117 56.2600131,12.2249901 L56.8548167,11.6164513 C57.0192921,11.4481778 57.0192921,11.1761859 56.8548167,11.0079125 C56.6903413,10.839639 56.4244885,10.839639 56.2600131,11.0079125 L56.2600131,11.0079125 Z" id="Shape" stroke="#4A4A4A" stroke-width="0.15" fill="#4A4A4A"></path>
                <path d="M56.2595925,4.00842471 C56.3416199,4.09234626 56.4493071,4.13452222 56.5569943,4.13452222 C56.6646815,4.13452222 56.7723687,4.09234626 56.8543961,4.00842471 C57.0188715,3.84015124 57.0188715,3.56815934 56.8543961,3.39988587 L56.2595925,2.79134703 C56.0951171,2.62307356 55.8292643,2.62307356 55.6647889,2.79134703 C55.5003135,2.9596205 55.5003135,3.2316124 55.6647889,3.39988587 L56.2595925,4.00842471 L56.2595925,4.00842471 Z" id="Shape" stroke="#4A4A4A" stroke-width="0.15" fill="#4A4A4A"></path>
                <path d="M64.290703,11.0074821 C64.1262277,10.8392086 63.8603748,10.8392086 63.6958994,11.0074821 C63.5314241,11.1757556 63.5314241,11.4477475 63.6958994,11.6160209 L64.290703,12.2245598 C64.3727304,12.3084813 64.4804176,12.3506573 64.5881048,12.3506573 C64.6957921,12.3506573 64.8034793,12.3084813 64.8855066,12.2245598 C65.049982,12.0562863 65.049982,11.7842944 64.8855066,11.6160209 L64.290703,11.0074821 L64.290703,11.0074821 Z" id="Shape" stroke="#4A4A4A" stroke-width="0.15" fill="#4A4A4A"></path>
                <rect id="Rectangle-path" stroke="#4A4A4A" stroke-width="0.25" fill="#4A4A4A" x="34" y="33" width="7.33534737" height="0.796934866"></rect>
                <rect id="Rectangle-path-Copy-2" stroke="#4A4A4A" stroke-width="0.25" fill="#4A4A4A" x="66" y="38" width="4" height="0.796934866"></rect>
                <rect id="Rectangle-path" stroke="#4A4A4A" stroke-width="0.25" fill="#4A4A4A" x="44" y="33" width="15.1890842" height="0.796934866"></rect>
                <rect id="Rectangle-path-Copy" stroke="#4A4A4A" stroke-width="0.25" fill="#4A4A4A" x="48" y="38" width="15.1890842" height="0.796934866"></rect>
                <rect id="Rectangle-path" stroke="#4A4A4A" stroke-width="0.25" fill="#4A4A4A" x="6.29662105" y="34.7374406" width="20.3172842" height="0.796934866"></rect>
                <rect id="Rectangle-path" stroke="#4A4A4A" stroke-width="0.25" fill="#4A4A4A" x="2.40188421" y="34.7374406" width="2.59623158" height="0.796934866"></rect>
            </g>
            <use id="Rectangle-4-Copy" stroke="#979797" mask="url(#mask-6)" stroke-width="2" fill="#FFFFFF" xlink:href="#path-5"></use>
            <use id="Rectangle-4-Copy-2" stroke="#979797" mask="url(#mask-8)" stroke-width="2" fill="#FFFFFF" xlink:href="#path-7"></use>
            <g id="Group-Copy" transform="translate(108.000000, 92.000000)" fill="#4A4A4A">
                <path d="M59.6678352,0.67375 C59.8878571,0.759705882 60.0304066,0.967647059 60.0304066,1.20235294 C60.0304066,1.435 59.8873407,1.64294118 59.6678352,1.72889706 C59.0852418,1.95279412 58.5837363,2.35014706 58.2304615,2.85404412 C57.8766703,3.36 57.6705934,3.97044118 57.6705934,4.63441176 C57.6705934,5.29889706 57.8771868,5.91088235 58.2304615,6.41735294 C58.5842527,6.92125 59.0831758,7.31654412 59.6678352,7.5425 C59.8878571,7.62588235 60.0304066,7.83639706 60.0304066,8.06904412 C60.0304066,8.30169118 59.8873407,8.51169118 59.6678352,8.59558824 C59.1916374,8.78088235 58.6725714,8.88022059 58.1302637,8.88022059 C56.9557802,8.88022059 55.8876923,8.40566176 55.1191648,7.63720588 C54.3480549,6.87132353 53.8697912,5.80691176 53.8697912,4.63389706 C53.8697912,2.28838235 55.7766484,0.388088235 58.1302637,0.388088235 C58.6725714,0.388602941 59.1916374,0.490514706 59.6678352,0.67375 L59.6678352,0.67375 Z M57.3007912,2.20757353 C57.4732967,1.95897059 57.6726593,1.73095588 57.8947473,1.52764706 C57.1262198,1.58426471 56.4346484,1.91882353 55.9197143,2.43147059 C55.3526154,2.99661765 55.0034725,3.77382353 55.0034725,4.63441176 C55.0034725,5.49757353 55.3526154,6.27272059 55.9197143,6.83992647 C56.4346484,7.35051471 57.1236374,7.68507353 57.8921648,7.74169118 C57.6721429,7.53838235 57.4727802,7.30985294 57.3002747,7.06382353 C56.8173626,6.37669118 56.5338132,5.53617647 56.5363956,4.63492647 C56.5343297,3.73522059 56.8173626,2.89470588 57.3007912,2.20757353 L57.3007912,2.20757353 Z" id="Shape"></path>
                <path d="M47.8088571,21.0576471 L47.8088571,21.0689706 L47.8088571,33.4816176 L56.4888791,33.4816176 L56.4888791,32.7538235 C56.4888791,32.4419118 56.742989,32.1886765 57.055978,32.1886765 C57.368967,32.1886765 57.6230769,32.4419118 57.6230769,32.7538235 L57.6230769,33.4816176 L58.4845714,33.4816176 L58.4845714,32.2185294 C58.4845714,31.9066176 58.7386813,31.6533824 59.0516703,31.6533824 C59.3646593,31.6533824 59.6187692,31.9066176 59.6187692,32.2185294 L59.6187692,33.4816176 L63.3942637,33.4816176 L53.0604615,18.9859559 C53.0490989,18.9725735 53.0377363,18.9586765 53.028956,18.9432353 L47.8088571,11.6215441 L47.8088571,21.0509559 L47.8088571,21.0576471 L47.8088571,21.0576471 Z M62.2683297,21.7267647 C62.1051209,21.7648529 62.0803297,21.7674265 62.0576044,21.7674265 C61.8556593,21.7334559 61.8355165,21.7247059 61.8174396,21.7154412 C61.7379011,21.6722059 61.7105275,21.6521324 61.6878022,21.6315441 C61.6222088,21.5682353 61.6129121,21.5569118 61.6061978,21.5435294 C61.5473187,21.4529412 61.535956,21.4282353 61.5266593,21.4035294 C61.5018681,21.3222059 61.4972198,21.2995588 61.4951538,21.2748529 C61.4905055,21.1713971 61.4925714,21.1374265 61.4998022,21.1055147 C61.5065165,21.0648529 61.5178791,21.0241912 61.5338901,20.9855882 C61.5767582,20.9042647 61.5834725,20.8908824 61.5927692,20.8795588 C61.7032967,20.74625 61.7694066,20.6489706 61.8215714,20.5470588 C61.9419121,20.3277941 62.0075055,20.0791912 62.0075055,19.8125735 C62.0075055,19.3766176 61.8308681,18.9880147 61.5447363,18.7008088 C61.2565385,18.4161765 60.8665934,18.2396324 60.4291319,18.2396324 C60.172956,18.2396324 59.9348571,18.2983088 59.7215495,18.4069118 C59.6513077,18.4429412 59.5831319,18.4836029 59.5196044,18.5288971 C59.2613626,18.7095588 59.0594176,18.9674265 58.9504396,19.2680147 C58.8414615,19.5593382 58.515044,19.7086029 58.2201319,19.6 C57.9278022,19.4939706 57.778022,19.1681618 57.887,18.8747794 C58.0708681,18.3801471 58.3947033,17.9529412 58.812022,17.6456618 C58.6555275,17.2529412 58.3993516,16.9116912 58.075,16.6491912 C57.650967,16.3079412 57.1138242,16.1046324 56.524,16.1046324 C55.8391429,16.1046324 55.2271099,16.3779412 54.7782857,16.8252206 C54.3589011,17.2457353 54.0913626,17.8083088 54.0572747,18.4388235 L64.7830879,33.4816176 L65.7922967,33.4816176 L65.7922967,31.7666176 C65.7922967,31.4547059 66.0464066,31.2014706 66.3593956,31.2014706 C66.6723846,31.2014706 66.9264945,31.4547059 66.9264945,31.7666176 L66.9264945,33.4816176 L67.7745604,33.4816176 L67.7745604,32.5278676 C67.7745604,32.2159559 68.0286703,31.9627206 68.3416593,31.9627206 C68.6546484,31.9627206 68.9087582,32.2159559 68.9087582,32.5278676 L68.9087582,33.4816176 L69.917967,33.4816176 C70.230956,33.4816176 70.4850659,33.7348529 70.4850659,34.0467647 C70.4850659,34.3586765 70.230956,34.6119118 69.917967,34.6119118 L68.3421758,34.6119118 L66.3604286,34.6119118 L59.0521868,34.6119118 L57.057011,34.6119118 L47.2422747,34.6119118 L42.4555055,34.6119118 L37.0634176,34.6119118 L29.1953077,34.6119118 L27.4945275,34.6119118 L0.999487057,34.7516179 C0.686498046,34.7516179 0.432388156,34.4983826 0.432388156,34.1864709 C0.432388156,33.8745591 0.686498046,33.6213238 0.999487057,33.6213238 L25.2276813,33.4816176 L25.2276813,31.0120588 C25.2276813,30.7001471 25.4817912,30.4469118 25.7947802,30.4469118 C26.1077692,30.4469118 26.3618791,30.7001471 26.3618791,31.0120588 L26.3618791,33.4816176 L26.928978,33.4816176 L26.928978,32.7970588 C26.928978,32.4851471 27.1830879,32.2319118 27.4960769,32.2319118 C27.8090659,32.2319118 28.0631758,32.4851471 28.0631758,32.7970588 L28.0631758,33.4816176 L28.6302747,33.4816176 L28.6302747,31.7686765 C28.6302747,31.4567647 28.8843846,31.2035294 29.1973736,31.2035294 C29.5103626,31.2035294 29.7644725,31.4567647 29.7644725,31.7686765 L29.7644725,33.3910294 L39.6866374,19.4759559 C39.4960549,18.9494118 39.1582747,18.4908088 38.7228791,18.1516176 C38.2193077,17.7609559 37.5938462,17.5277941 36.9043407,17.5277941 C36.6822527,17.5277941 36.4689451,17.5550735 36.2649341,17.5977941 C35.7303736,17.7244118 35.294978,17.9570588 34.9344725,18.2777206 C34.701022,18.4856618 34.3425824,18.4650735 34.1339231,18.2324265 C33.9252637,17.9997794 33.9459231,17.6425735 34.1793736,17.4346324 C34.4923626,17.1546324 34.8502857,16.9240441 35.2407473,16.7500735 C34.9303407,16.3341912 34.5398791,15.9775 34.0936374,15.7036765 C33.4562967,15.3125 32.7084286,15.0865441 31.9032308,15.0865441 C30.9621978,15.0865441 30.0981209,15.3938235 29.3998352,15.9157353 C28.839967,16.3336765 28.3864945,16.8921324 28.0962308,17.5334559 C28.7697253,17.8474265 29.3523187,18.3266176 29.7944286,18.9138971 C30.3522308,19.6597059 30.6832967,20.5882353 30.6832967,21.5893382 C30.6832967,22.3438971 30.4952967,23.0583088 30.1642308,23.6841912 C30.0190989,23.9600735 29.6746044,24.0661029 29.3977692,23.9194118 C29.1209341,23.7747794 29.0145385,23.4335294 29.1617363,23.1555882 C29.4091319,22.6877206 29.5496154,22.1570588 29.5496154,21.5898529 C29.5496154,20.8373529 29.3022198,20.1481618 28.8854176,19.5902206 C28.4686154,19.0322794 27.8787912,18.6071324 27.196,18.3950735 C26.8809451,18.2936765 26.5410989,18.2391176 26.1873077,18.2391176 C25.690967,18.2391176 25.2235495,18.3451471 24.8020989,18.5376471 C24.5164835,18.6663235 24.1807692,18.5397059 24.0516484,18.2576471 C23.9225275,17.9730147 24.0495824,17.6384559 24.3326154,17.5097794 C24.8971319,17.2524265 25.5277582,17.1098529 26.1873077,17.1098529 C26.4682747,17.1098529 26.743044,17.1345588 27.0105824,17.1865441 C27.3778022,16.31875 27.9743407,15.5708824 28.7201429,15.0129412 C29.6069451,14.3510294 30.7111868,13.9577941 31.9037473,13.9577941 C32.9217363,13.9577941 33.8808462,14.245 34.6906923,14.7442647 C35.3801978,15.1688971 35.9648571,15.7453676 36.3981868,16.4299265 C36.5634615,16.4093382 36.7313187,16.3985294 36.9038242,16.3985294 C37.8515714,16.3985294 38.727011,16.7217647 39.4206484,17.2616912 C39.8286703,17.5802941 40.1736813,17.9735294 40.4365714,18.4233824 L46.5476044,9.8525 L45.5001758,8.38147059 C45.3188901,8.12823529 45.3777692,7.77566176 45.6339451,7.595 C45.8880549,7.41433824 46.2418462,7.47301471 46.4231319,7.72830882 L47.2438242,8.87867647 L48.0624505,7.72830882 C48.2437363,7.47301471 48.5975275,7.41433824 48.8516374,7.595 C49.1078132,7.77566176 49.1666923,8.12823529 48.9854066,8.38147059 L47.937978,9.8525 L53.187,17.2169118 C53.3708681,16.7670588 53.6404725,16.3630147 53.9808352,16.0258824 C54.6295385,15.3773529 55.5339011,14.9753676 56.5270989,14.9753676 C57.3818791,14.9753676 58.1731319,15.2738971 58.7898132,15.7731618 C59.25,16.1416912 59.6151538,16.6229412 59.8486044,17.1741912 C60.0366044,17.1335294 60.2318352,17.1108824 60.4311978,17.1108824 C61.8370659,17.1108824 62.9934725,18.1752941 63.1293077,19.5423529 C63.5512747,19.3524265 64.0202418,19.2484559 64.5145165,19.2484559 C64.7071648,19.2484559 64.8956813,19.2644118 65.079033,19.2958088 C65.0723187,19.1805147 65.0676703,19.0652206 65.0676703,18.9478676 C65.0676703,17.6008824 65.6048132,16.3743382 66.4756044,15.4792647 C67.3463956,14.5821324 68.557033,14.0082353 69.8973077,13.9629412 C70.2102967,13.9516176 70.4711209,14.1955882 70.4824835,14.5075 C70.4938462,14.8194118 70.249033,15.0813971 69.936044,15.0927206 C68.8973956,15.12875 67.9677253,15.5693382 67.2921648,16.2652206 C66.6166044,16.9611029 66.2013516,17.9035294 66.2013516,18.9473529 C66.2013516,19.2232353 66.2307912,19.4898529 66.2876044,19.7451471 C67.2105604,20.2963971 67.8453187,21.2748529 67.928989,22.4072059 C67.9517143,22.7191176 67.7156813,22.9877941 67.4052747,23.0104412 C67.0922857,23.0330882 66.8200989,22.8004412 66.7973736,22.4885294 C66.7384945,21.6706618 66.2416374,20.9701471 65.5387033,20.6196324 C65.2236484,20.4616176 64.8786374,20.3777206 64.514,20.3777206 C63.8110659,20.3777206 63.1850879,20.6896324 62.7636374,21.1868382 C62.6665385,21.3016176 62.603011,21.3922059 62.5461978,21.4894853 C62.4899011,21.56875 62.4785385,21.5841912 62.4645934,21.5980882 C62.3111978,21.7066912 62.2910549,21.7180147 62.2683297,21.7267647 Z M46.6751758,33.4816176 L46.6751758,24.2256618 L43.2674176,33.4816176 L46.6751758,33.4816176 L46.6751758,33.4816176 Z M46.6751758,20.8543382 L46.6751758,11.6194853 L40.7774505,19.8918382 C40.7707363,19.9052206 40.7614396,19.9191176 40.7500769,19.9304412 L31.0887363,33.4816176 L36.7891648,33.4816176 L46.6751758,20.8543382 L46.6751758,20.8543382 Z M42.0609121,33.4816176 L45.4645385,24.2375 L38.2244725,33.4816176 L42.0609121,33.4816176 L42.0609121,33.4816176 Z" id="Shape"></path>
            </g>
            <g id="Group" transform="translate(112.000000, 149.000000)" fill="#4A4A4A">
                <path d="M51.3980198,27.2271186 C51.5643564,26.1423729 51.619802,25.0576271 51.619802,23.9186441 C51.619802,10.9016949 40.8079208,0.325423729 27.5009901,0.325423729 C14.1940594,0.325423729 3.38217822,10.9016949 3.38217822,23.9186441 C3.38217822,25.3830508 3.54851485,26.8474576 3.77029703,28.2576271 L0.332673267,31.7288136 L55.7782178,31.7288136 L51.3980198,27.2271186 L51.3980198,27.2271186 Z M4.26930693,30.1016949 L4.26930693,30.1016949 L4.26930693,30.1016949 L4.99009901,29.2881356 L7.20792079,29.2881356 C7.48514851,29.2881356 7.76237624,29.0711864 7.76237624,28.7457627 C7.76237624,28.420339 7.54059406,28.2033898 7.20792079,28.2033898 L6.04356436,28.2033898 L8.03960396,26.1966102 L9.81386139,26.1966102 C10.0910891,26.1966102 10.3683168,25.979661 10.3683168,25.6542373 C10.3683168,25.3288136 10.1465347,25.1118644 9.81386139,25.1118644 L9.09306931,25.1118644 L10.3128713,23.8644068 L16.4118812,30.0474576 L4.26930693,30.0474576 L4.26930693,30.1016949 Z M10.3128713,21.5864407 L5.21188119,26.7932203 C5.1009901,25.8711864 4.99009901,24.8949153 4.99009901,23.9186441 C4.99009901,17.6271186 7.70693069,11.9322034 12.0871287,7.91864407 C12.1425743,7.97288136 12.2534653,7.97288136 12.3643564,7.97288136 L13.2514851,7.97288136 C13.5287129,7.97288136 13.8059406,7.7559322 13.8059406,7.43050847 C13.8059406,7.15932203 13.5841584,6.88813559 13.2514851,6.88813559 L13.2514851,6.88813559 C17.1326733,3.74237288 22.1227723,1.89830508 27.5009901,1.89830508 C30.4950495,1.89830508 33.3782178,2.49491525 35.9841584,3.52542373 C35.9287129,3.63389831 35.8732673,3.74237288 35.8732673,3.85084746 C35.8732673,4.1220339 36.0950495,4.39322034 36.4277228,4.39322034 L36.9821782,4.39322034 C37.1485149,4.39322034 37.3148515,4.28474576 37.4257426,4.17627119 C40.8633663,5.85762712 43.8574257,8.35254237 46.019802,11.4440678 L45.7425743,11.4440678 C45.4653465,11.4440678 45.1881188,11.6610169 45.1881188,11.9864407 C45.1881188,12.3118644 45.409901,12.5288136 45.7425743,12.5288136 L46.7405941,12.5288136 C48.8475248,15.8372881 50.0118812,19.7966102 50.0118812,23.9728814 C50.0118812,24.5694915 49.9564356,25.1661017 49.9564356,25.7627119 L42.6930693,18.3322034 L37.0930693,24.0271186 L28.609901,15.4033898 L16.4118812,27.8237288 L10.3128713,21.5864407 L10.3128713,21.5864407 Z M18.6851485,30.1016949 L17.5762376,28.9627119 L18.9623762,27.5525424 L19.0178218,27.5525424 L22.4554455,27.5525424 C22.7326733,27.5525424 23.009901,27.3355932 23.009901,27.0101695 C23.009901,26.6847458 22.7881188,26.4677966 22.4554455,26.4677966 L20.0158416,26.4677966 L22.3445545,24.0813559 L24.8950495,24.0813559 C25.1722772,24.0813559 25.449505,23.8644068 25.449505,23.5389831 C25.449505,23.2677966 25.2277228,22.9966102 24.8950495,22.9966102 L23.3980198,22.9966102 L25.2277228,21.1525424 L27.1128713,21.1525424 C27.390099,21.1525424 27.6673267,20.9355932 27.6673267,20.6101695 C27.6673267,20.2847458 27.4455446,20.0677966 27.1128713,20.0677966 L26.2811881,20.0677966 L28.6653465,17.6813559 L40.8633663,30.0474576 L18.6851485,30.0474576 L18.6851485,30.1016949 Z M43.0811881,30.1016949 L38.4792079,25.4372881 L41.0851485,25.4372881 C41.3623762,25.4372881 41.639604,25.220339 41.639604,24.8949153 C41.639604,24.6237288 41.4178218,24.3525424 41.0851485,24.3525424 L39.0336634,24.3525424 L40.9188119,22.4542373 L42.1386139,22.4542373 C42.4158416,22.4542373 42.6930693,22.2372881 42.6930693,21.9118644 C42.6930693,21.640678 42.4712871,21.3694915 42.1386139,21.3694915 L41.9722772,21.3694915 L42.6930693,20.6644068 L52.0079208,30.1016949 L43.0811881,30.1016949 L43.0811881,30.1016949 Z" id="Shape" stroke="#FFFFFF" stroke-width="0.25" stroke-linecap="round" stroke-linejoin="round"></path>
                <path d="M16.4118812,11.4440678 L15.4693069,11.4440678 C15.1920792,11.4440678 14.9148515,11.6610169 14.9148515,11.9864407 C14.9148515,12.3118644 15.1366337,12.5288136 15.4693069,12.5288136 L16.4118812,12.5288136 C16.6891089,12.5288136 16.9663366,12.3118644 16.9663366,11.9864407 C16.9663366,11.6610169 16.7445545,11.4440678 16.4118812,11.4440678 L16.4118812,11.4440678 Z" id="Shape"></path>
                <path d="M19.5168317,13.0711864 L18.6851485,13.0711864 C18.4079208,13.0711864 18.1306931,13.2881356 18.1306931,13.6135593 C18.1306931,13.9389831 18.3524752,14.1559322 18.6851485,14.1559322 L19.5168317,14.1559322 C19.7940594,14.1559322 20.0712871,13.9389831 20.0712871,13.6135593 C20.0712871,13.2881356 19.7940594,13.0711864 19.5168317,13.0711864 L19.5168317,13.0711864 Z" id="Shape"></path>
                <path d="M25.2831683,8.40677966 L24.2851485,8.40677966 C24.0079208,8.40677966 23.7306931,8.62372881 23.7306931,8.94915254 C23.7306931,9.22033898 23.9524752,9.49152542 24.2851485,9.49152542 L25.2831683,9.49152542 C25.560396,9.49152542 25.8376238,9.27457627 25.8376238,8.94915254 C25.7821782,8.6779661 25.560396,8.40677966 25.2831683,8.40677966 L25.2831683,8.40677966 Z" id="Shape"></path>
                <path d="M45.7425743,16.3254237 L47.0178218,16.3254237 C47.2950495,16.3254237 47.5722772,16.1084746 47.5722772,15.7830508 C47.5722772,15.5118644 47.350495,15.240678 47.0178218,15.240678 L45.7425743,15.240678 C45.4653465,15.240678 45.1881188,15.4576271 45.1881188,15.7830508 C45.1881188,16.1084746 45.4653465,16.3254237 45.7425743,16.3254237 L45.7425743,16.3254237 Z" id="Shape"></path>
                <path d="M11.3663366,15.7830508 L10.6455446,15.7830508 C10.3683168,15.7830508 10.0910891,16 10.0910891,16.3254237 C10.0910891,16.6508475 10.3128713,16.8677966 10.6455446,16.8677966 L11.3663366,16.8677966 C11.6435644,16.8677966 11.9207921,16.6508475 11.9207921,16.3254237 C11.9207921,16 11.6435644,15.7830508 11.3663366,15.7830508 L11.3663366,15.7830508 Z" id="Shape"></path>
                <path d="M22.4554455,16.2711864 L21.3465347,16.2711864 C21.0693069,16.2711864 20.7920792,16.4881356 20.7920792,16.8135593 C20.7920792,17.0847458 21.0138614,17.3559322 21.3465347,17.3559322 L22.4554455,17.3559322 C22.7326733,17.3559322 23.009901,17.1389831 23.009901,16.8135593 C23.009901,16.4881356 22.7881188,16.2711864 22.4554455,16.2711864 L22.4554455,16.2711864 Z" id="Shape"></path>
                <path d="M34.5425743,6.34576271 L35.6514851,6.34576271 C35.9287129,6.34576271 36.2059406,6.12881356 36.2059406,5.80338983 C36.2059406,5.53220339 35.9841584,5.26101695 35.6514851,5.26101695 L34.5425743,5.26101695 C34.2653465,5.26101695 33.9881188,5.4779661 33.9881188,5.80338983 C33.9881188,6.07457627 34.2653465,6.34576271 34.5425743,6.34576271 L34.5425743,6.34576271 Z" id="Shape"></path>
            </g>
            <path d="M110.5,125.5 L110.5,124.5" id="Line" stroke="#4A4A4A" stroke-linecap="round"></path>
            <path d="M112,125.88147 L112.033936,123" id="Line-Copy-3" stroke="#4A4A4A" stroke-linecap="round"></path>
            <path d="M132.584544,110.001346 C131.813295,108.234722 130.05084,107 128,107 C125.238576,107 123,109.238576 123,112" id="Oval-2" stroke="#4A4A4A" stroke-width="1.1" stroke-linecap="round"></path>
            <path d="M122.7814,114.884259 C122.7814,114.884259 123.015773,114.132072 123.015773,113.782292 C123.015773,112.677723 122.120343,111.782292 121.015773,111.782292 C119.911204,111.782292 119.015773,112.677723 119.015773,113.782292" id="Oval-4" stroke="#4A4A4A" stroke-linecap="round" transform="translate(121.015773, 113.333276) rotate(-75.000000) translate(-121.015773, -113.333276) "></path>
        </g>
    </g>
</svg>