<?xml version="1.0" encoding="UTF-8" standalone="no"?>
<svg width="103px" height="104px" viewBox="0 0 103 104" version="1.1" xmlns="http://www.w3.org/2000/svg" xmlns:xlink="http://www.w3.org/1999/xlink">
    <!-- Generator: Sketch 39.1 (31720) - http://www.bohemiancoding.com/sketch -->
    <title>Artboard 3</title>
    <desc>Created with Sketch.</desc>
    <defs>
        <linearGradient x1="100%" y1="100%" x2="50%" y2="0%" id="linearGradient-1">
            <stop stop-color="#00FFF1" offset="0%"></stop>
            <stop stop-color="#37EAEA" offset="100%"></stop>
        </linearGradient>
        <linearGradient x1="4.06106088%" y1="-11.3613994%" x2="117.455853%" y2="146.544654%" id="linearGradient-2">
            <stop stop-color="#00FFDA" offset="0%"></stop>
            <stop stop-color="#37EA7F" offset="100%"></stop>
        </linearGradient>
        <linearGradient x1="4.06106088%" y1="-11.3613994%" x2="117.455853%" y2="146.544654%" id="linearGradient-3">
            <stop stop-color="#00D4FF" offset="0%"></stop>
            <stop stop-color="#37EA7F" offset="100%"></stop>
        </linearGradient>
    </defs>
    <g id="Page-1" stroke="none" stroke-width="1" fill="none" fill-rule="evenodd">
        <g id="Artboard-3">
            <path d="M100,55 C100,27.9380473 78.0619527,6 51,6 C23.9380473,6 2,27.9380473 2,55 C2,82.0619527 23.9380473,104 51,104 C78.0619527,104 100,82.0619527 100,55 Z M3.40458015,55 C3.40458015,28.7137755 24.7137755,7.40458015 51,7.40458015 C77.2862245,7.40458015 98.5954198,28.7137755 98.5954198,55 C98.5954198,81.2862245 77.2862245,102.59542 51,102.59542 C24.7137755,102.59542 3.40458015,81.2862245 3.40458015,55 Z" id="Oval-Copy" fill="url(#linearGradient-1)" style="mix-blend-mode: screen;"></path>
            <path d="M100,51 C100,23.9380473 78.0619527,2 51,2 C23.9380473,2 2,23.9380473 2,51 C2,78.0619527 23.9380473,100 51,100 C78.0619527,100 100,78.0619527 100,51 Z M3.40458015,51 C3.40458015,24.7137755 24.7137755,3.40458015 51,3.40458015 C77.2862245,3.40458015 98.5954198,24.7137755 98.5954198,51 C98.5954198,77.2862245 77.2862245,98.5954198 51,98.5954198 C24.7137755,98.5954198 3.40458015,77.2862245 3.40458015,51 Z" id="Oval-Copy-2" fill="url(#linearGradient-2)" style="mix-blend-mode: screen;"></path>
            <path d="M101,52 C101,24.9380473 79.0619527,3 52,3 C24.9380473,3 3,24.9380473 3,52 C3,79.0619527 24.9380473,101 52,101 C79.0619527,101 101,79.0619527 101,52 Z M5.80916031,52 C5.80916031,26.4895037 26.4895037,5.80916031 52,5.80916031 C77.5104963,5.80916031 98.1908397,26.4895037 98.1908397,52 C98.1908397,77.5104963 77.5104963,98.1908397 52,98.1908397 C26.4895037,98.1908397 5.80916031,77.5104963 5.80916031,52 Z" id="Oval-Copy" fill="#2A2A2A" style="mix-blend-mode: hard-light;"></path>
            <path d="M98,50 C98,22.9380473 76.0619527,1 49,1 C21.9380473,1 0,22.9380473 0,50 C0,77.0619527 21.9380473,99 49,99 C76.0619527,99 98,77.0619527 98,50 Z M1.90458015,50 C1.90458015,23.9899178 22.9899178,2.90458015 49,2.90458015 C75.0100822,2.90458015 96.0954198,23.9899178 96.0954198,50 C96.0954198,76.0100822 75.0100822,97.0954198 49,97.0954198 C22.9899178,97.0954198 1.90458015,76.0100822 1.90458015,50 Z" id="Oval-Copy" fill="#22F2BF" style="mix-blend-mode: screen;"></path>
            <path d="M103,49 C103,21.9380473 81.0619527,0 54,0 C26.9380473,0 5,21.9380473 5,49 C5,76.0619527 26.9380473,98 54,98 C81.0619527,98 103,76.0619527 103,49 Z M6.90458015,49 C6.90458015,22.9899178 27.9899178,1.90458015 54,1.90458015 C80.0100822,1.90458015 101.09542,22.9899178 101.09542,49 C101.09542,75.0100822 80.0100822,96.0954198 54,96.0954198 C27.9899178,96.0954198 6.90458015,75.0100822 6.90458015,49 Z" id="Oval-Copy" fill="url(#linearGradient-3)" style="mix-blend-mode: screen;"></path>
        </g>
    </g>
</svg>