<?xml version="1.0" encoding="UTF-8" standalone="no"?>
<svg width="62px" height="62px" viewBox="0 0 62 62" version="1.1" xmlns="http://www.w3.org/2000/svg" xmlns:xlink="http://www.w3.org/1999/xlink">
    <!-- Generator: Sketch 39.1 (31720) - http://www.bohemiancoding.com/sketch -->
    <title>Artboard 3</title>
    <desc>Created with Sketch.</desc>
    <defs>
        <linearGradient x1="100%" y1="100%" x2="50%" y2="0%" id="linearGradient-1">
            <stop stop-color="#00FFF1" offset="0%"></stop>
            <stop stop-color="#37EAEA" offset="100%"></stop>
        </linearGradient>
        <linearGradient x1="4.06106088%" y1="-11.3613994%" x2="117.455853%" y2="146.544654%" id="linearGradient-2">
            <stop stop-color="#00FFDA" offset="0%"></stop>
            <stop stop-color="#37EA7F" offset="100%"></stop>
        </linearGradient>
        <linearGradient x1="4.06106088%" y1="-11.3613994%" x2="117.455853%" y2="146.544654%" id="linearGradient-3">
            <stop stop-color="#00D4FF" offset="0%"></stop>
            <stop stop-color="#37EA7F" offset="100%"></stop>
        </linearGradient>
    </defs>
    <g id="Page-1" stroke="none" stroke-width="1" fill="none" fill-rule="evenodd">
        <g id="Artboard-3">
            <path d="M60,32.5 C60,16.2075999 46.7924001,3 30.5,3 C14.2075999,3 1,16.2075999 1,32.5 C1,48.7924001 14.2075999,62 30.5,62 C46.7924001,62 60,48.7924001 60,32.5 Z M1.84561458,32.5 C1.84561458,16.6746199 14.6746199,3.84561458 30.5,3.84561458 C46.3253801,3.84561458 59.1543854,16.6746199 59.1543854,32.5 C59.1543854,48.3253801 46.3253801,61.1543854 30.5,61.1543854 C14.6746199,61.1543854 1.84561458,48.3253801 1.84561458,32.5 Z" id="Oval-Copy" fill="url(#linearGradient-1)" style="mix-blend-mode: screen;"></path>
            <path d="M60,30.5 C60,14.2075999 46.7924001,1 30.5,1 C14.2075999,1 1,14.2075999 1,30.5 C1,46.7924001 14.2075999,60 30.5,60 C46.7924001,60 60,46.7924001 60,30.5 Z M1.84561458,30.5 C1.84561458,14.6746199 14.6746199,1.84561458 30.5,1.84561458 C46.3253801,1.84561458 59.1543854,14.6746199 59.1543854,30.5 C59.1543854,46.3253801 46.3253801,59.1543854 30.5,59.1543854 C14.6746199,59.1543854 1.84561458,46.3253801 1.84561458,30.5 Z" id="Oval-Copy-2" fill="url(#linearGradient-2)" style="mix-blend-mode: screen;"></path>
            <path d="M60,31.5 C60,15.2075999 46.7924001,2 30.5,2 C14.2075999,2 1,15.2075999 1,31.5 C1,47.7924001 14.2075999,61 30.5,61 C46.7924001,61 60,47.7924001 60,31.5 Z M2.69122916,31.5 C2.69122916,16.14164 15.14164,3.69122916 30.5,3.69122916 C45.85836,3.69122916 58.3087708,16.14164 58.3087708,31.5 C58.3087708,46.85836 45.85836,59.3087708 30.5,59.3087708 C15.14164,59.3087708 2.69122916,46.85836 2.69122916,31.5 Z" id="Oval-Copy" fill="#000000" style="mix-blend-mode: hard-light;"></path>
            <path d="M59,29.5 C59,13.2075999 45.7924001,0 29.5,0 C13.2075999,0 0,13.2075999 0,29.5 C0,45.7924001 13.2075999,59 29.5,59 C45.7924001,59 59,45.7924001 59,29.5 Z M1.14663499,29.5 C1.14663499,13.8408689 13.8408689,1.14663499 29.5,1.14663499 C45.1591311,1.14663499 57.853365,13.8408689 57.853365,29.5 C57.853365,45.1591311 45.1591311,57.853365 29.5,57.853365 C13.8408689,57.853365 1.14663499,45.1591311 1.14663499,29.5 Z" id="Oval-Copy" fill="#22F2BF" style="mix-blend-mode: screen;"></path>
            <path d="M62,29.5 C62,13.2075999 48.7924001,0 32.5,0 C16.2075999,0 3,13.2075999 3,29.5 C3,45.7924001 16.2075999,59 32.5,59 C48.7924001,59 62,45.7924001 62,29.5 Z M4.14663499,29.5 C4.14663499,13.8408689 16.8408689,1.14663499 32.5,1.14663499 C48.1591311,1.14663499 60.853365,13.8408689 60.853365,29.5 C60.853365,45.1591311 48.1591311,57.853365 32.5,57.853365 C16.8408689,57.853365 4.14663499,45.1591311 4.14663499,29.5 Z" id="Oval-Copy" fill="url(#linearGradient-3)" style="mix-blend-mode: screen;"></path>
        </g>
    </g>
</svg>