<?xml version="1.0" encoding="UTF-8" standalone="no"?>
<svg width="196px" height="196px" viewBox="0 0 196 196" version="1.1" xmlns="http://www.w3.org/2000/svg" xmlns:xlink="http://www.w3.org/1999/xlink">
    <!-- Generator: Sketch 39.1 (31720) - http://www.bohemiancoding.com/sketch -->
    <title>Artboard 5</title>
    <desc>Created with Sketch.</desc>
    <defs>
        <linearGradient x1="50%" y1="0%" x2="50%" y2="109.408921%" id="linearGradient-1">
            <stop stop-color="#FBB22C" offset="0%"></stop>
            <stop stop-color="#EC44B8" offset="100%"></stop>
        </linearGradient>
        <linearGradient x1="50%" y1="0%" x2="50%" y2="100%" id="linearGradient-2">
            <stop stop-color="#F68E59" offset="0%"></stop>
            <stop stop-color="#EF5E96" offset="100%"></stop>
        </linearGradient>
    </defs>
    <g id="Page-1" stroke="none" stroke-width="1" fill="none" fill-rule="evenodd">
        <g id="Artboard-5">
            <g id="noun_540088_cc" transform="translate(48.000000, 16.000000)" fill="url(#linearGradient-1)">
                <path d="M86.375,34.375 L69.1875,34.375 L69.1875,6.875 L79.5,6.875 C81.3975,6.875 82.9375,5.335 82.9375,3.4375 C82.9375,1.54 81.3975,0 79.5,0 L24.5,0 C22.6025,0 21.0625,1.54 21.0625,3.4375 C21.0625,5.335 22.6025,6.875 24.5,6.875 L34.8125,6.875 L34.8125,34.375 L17.625,34.375 C8.15125,34.375 0.4375,42.08875 0.4375,51.5625 L0.4375,140.9375 C0.4375,150.41125 8.15125,158.125 17.625,158.125 L21.0625,158.125 C21.0625,161.92 24.1425,165 27.9375,165 C31.7325,165 34.8125,161.92 34.8125,158.125 L69.1875,158.125 C69.1875,161.92 72.2675,165 76.0625,165 C79.8575,165 82.9375,161.92 82.9375,158.125 L86.375,158.125 C95.84875,158.125 103.5625,150.41125 103.5625,140.9375 L103.5625,51.5625 C103.5625,42.08875 95.84875,34.375 86.375,34.375 L86.375,34.375 Z M41.6875,6.875 L62.3125,6.875 L62.3125,34.375 L41.6875,34.375 L41.6875,6.875 L41.6875,6.875 Z M96.6875,140.9375 C96.6875,146.623125 92.060625,151.25 86.375,151.25 L17.625,151.25 C11.939375,151.25 7.3125,146.623125 7.3125,140.9375 L7.3125,51.5625 C7.3125,45.876875 11.939375,41.25 17.625,41.25 L86.375,41.25 C92.060625,41.25 96.6875,45.876875 96.6875,51.5625 L96.6875,140.9375 L96.6875,140.9375 Z" id="Shape"></path>
            </g>
            <path d="M78,152.10659 C78,153.21116 78.8954305,154.10659 80,154.10659 C81.1045695,154.10659 82,153.21116 82,152.10659 L82,77 C82,75.8954305 81.1045695,75 80,75 C78.8954305,75 78,75.8954305 78,77 L78,152.10659 Z" id="Line" fill="url(#linearGradient-2)"></path>
            <path d="M118,152.10659 C118,153.21116 118.895431,154.10659 120,154.10659 C121.104569,154.10659 122,153.21116 122,152.10659 L122,77 C122,75.8954305 121.104569,75 120,75 C118.895431,75 118,75.8954305 118,77 L118,152.10659 Z" id="Line-Copy" fill="url(#linearGradient-2)"></path>
        </g>
    </g>
</svg>