<svg id="Layer_1" data-name="Layer 1" xmlns="http://www.w3.org/2000/svg" viewBox="0 0 275 222"><defs><style>.cls-1{fill:#fff;}.cls-12,.cls-2,.cls-21,.cls-4,.cls-5,.cls-9{fill:none;}.cls-2{stroke:#686868;}.cls-12,.cls-14,.cls-15,.cls-19,.cls-2,.cls-20,.cls-21,.cls-3,.cls-4,.cls-5{stroke-miterlimit:10;}.cls-12,.cls-13,.cls-16,.cls-19,.cls-2,.cls-20,.cls-21,.cls-3,.cls-4,.cls-5,.cls-9{stroke-width:0.5px;}.cls-14,.cls-3{fill:#ffef57;}.cls-12,.cls-13,.cls-14,.cls-15,.cls-16,.cls-19,.cls-3,.cls-4,.cls-9{stroke:#939498;}.cls-5{stroke:#f9f995;}.cls-6{fill:#5af;}.cls-19,.cls-7{fill:#c0e6ff;}.cls-8{fill:#939498;}.cls-9{stroke-linecap:square;}.cls-13,.cls-16,.cls-9{stroke-linejoin:round;}.cls-10{fill:#95c69c;}.cls-11{fill:#729376;}.cls-12,.cls-13{stroke-linecap:round;}.cls-13{fill:#c6a66d;}.cls-14,.cls-15{stroke-width:0.25px;}.cls-15{fill:#ff8c5a;}.cls-16,.cls-18{fill:#f0f4ff;}.cls-17{fill:#afb0b2;}.cls-20{fill:#f9f9f9;stroke:#3f3f41;}.cls-21{stroke:#6b6b6b;}</style></defs><title>browsewhite</title><rect class="cls-1" x="90.62" y="26.45" width="93.3" height="167.44" rx="1.48" ry="1.48"/><rect class="cls-2" x="94.25" y="29.45" width="86.04" height="56.44" rx="5" ry="5"/><rect class="cls-2" x="94.48" y="93.52" width="86.04" height="56.44" rx="5" ry="5"/><rect class="cls-2" x="94.48" y="157.36" width="86.04" height="56.44" rx="5" ry="5"/><circle class="cls-3" cx="164.91" cy="41.94" r="5.55"/><line class="cls-4" x1="175.9" y1="69.93" x2="100.96" y2="69.93"/><line class="cls-4" x1="176.13" y1="140.7" x2="101.19" y2="140.7"/><line class="cls-5" x1="144.44" y1="74.09" x2="136.34" y2="74.09"/><line class="cls-5" x1="161.09" y1="74.09" x2="146.06" y2="74.09"/><line class="cls-5" x1="174.74" y1="81.72" x2="149.53" y2="81.72"/><line class="cls-5" x1="146.06" y1="81.72" x2="131.02" y2="81.72"/><path class="cls-6" d="M120.7,58.09a2.08,2.08,0,0,1-4,1,2,2,0,0,1,0-.23h0v0l3.79-.89.25,0C120.66,57.94,120.69,58,120.7,58.09Z"/><path class="cls-7" d="M120.44,57l.22.9h0l-.25,0-3.79.89c-1.89-7.83-6.19-8-6.19-8A8.33,8.33,0,0,1,120.44,57Z"/><path class="cls-7" d="M116.66,59.06a2.08,2.08,0,0,1-3.6,1.85l-.28-1.16-.21.05h0v-.06l4.05-1v0h0A1.77,1.77,0,0,1,116.66,59.06Z"/><path class="cls-6" d="M116.59,58.79l-4.05,1L110.4,50.8S114.7,51,116.59,58.79Z"/><path class="cls-8" d="M113.06,60.9l2.73,11.44-.45.11L112.6,61a2.08,2.08,0,0,0,0-1A2,2,0,0,0,113.06,60.9Z"/><path class="cls-8" d="M112.78,59.74l.28,1.16a2,2,0,0,1-.45-.87,2.22,2.22,0,0,1,0-.23Z"/><path class="cls-8" d="M112.61,60a2.08,2.08,0,0,1,0,1l-.28-1.16.21-.05A1.56,1.56,0,0,1,112.61,60Z"/><path class="cls-8" d="M112.57,59.8a2.22,2.22,0,0,0,0,.23,1.56,1.56,0,0,0-.07-.22h0Z"/><path class="cls-6" d="M112.33,59.86,112.6,61a2.08,2.08,0,0,1-4,0,1.36,1.36,0,0,1,0-.23h0V60.7l4-1v.06h0Z"/><path class="cls-7" d="M110.4,50.8l2.14,8.94-4,1c-1.8-7.62,1.73-9.79,1.9-9.89Z"/><path class="cls-7" d="M108.56,61a2.08,2.08,0,1,1-4,1,2,2,0,0,1,0-.23h0l0-.09.22-.05,3.83-.9v.07h0C108.51,60.84,108.54,60.91,108.56,61Z"/><path class="cls-6" d="M108.49,60.7l-3.83.9-.22.05-.19-.81a8.32,8.32,0,0,1,6.15-10C110.22,50.91,106.69,53.08,108.49,60.7Z"/><path class="cls-9" d="M108.51,60.77h0c0,.07,0,.14.06.22a2.08,2.08,0,1,1-4,1,2,2,0,0,1,0-.23h0l0-.09-.19-.81a8.32,8.32,0,0,1,6.15-10"/><path class="cls-9" d="M110.4,50.8a8.33,8.33,0,0,1,10,6.16l.22.9h0c0,.07,0,.14.06.22a2.08,2.08,0,0,1-4,1,2,2,0,0,1,0-.23h0"/><path class="cls-9" d="M110.4,50.8s4.3.16,6.19,8v0h0a1.77,1.77,0,0,1,.07.22,2.08,2.08,0,0,1-3.6,1.85"/><path class="cls-9" d="M112.6,61a2.08,2.08,0,0,1-4,0,1.36,1.36,0,0,1,0-.23h0V60.7c-1.8-7.62,1.73-9.79,1.9-9.89h0l2.14,8.94v.06"/><polyline class="cls-9" points="104.66 61.6 108.49 60.7 112.54 59.74 116.59 58.79 120.39 57.9"/><path class="cls-1" d="M114.83,74.12a5,5,0,0,1,1.24.11,1.54,1.54,0,0,0,1.85-1,1.52,1.52,0,0,0-1-1.85,9,9,0,0,0-2-.22,1.5,1.5,0,0,0,0,3Z"/><line class="cls-4" x1="164.91" y1="35.46" x2="164.91" y2="33.15"/><line class="cls-4" x1="164.79" y1="50.73" x2="164.79" y2="48.42"/><line class="cls-4" x1="171.33" y1="42" x2="173.64" y2="42"/><line class="cls-4" x1="156.06" y1="41.88" x2="158.38" y2="41.88"/><line class="cls-4" x1="169.47" y1="37.4" x2="171.11" y2="35.77"/><line class="cls-4" x1="158.6" y1="48.11" x2="160.23" y2="46.48"/><line class="cls-4" x1="160.31" y1="37.32" x2="158.68" y2="35.68"/><line class="cls-4" x1="171.03" y1="48.2" x2="169.39" y2="46.56"/><polygon class="cls-10" points="144.44 114.33 159.66 140.7 144.44 140.7 144.44 129.6 144.44 114.33"/><polygon class="cls-11" points="144.44 129.6 144.44 140.7 138.43 140.7 144.44 129.6"/><polygon class="cls-10" points="144.44 114.33 144.44 129.6 138.43 140.7 129.22 140.7 144.44 114.33"/><polygon class="cls-4" points="144.44 114.33 129.22 140.7 138.43 140.7 144.44 140.7 159.66 140.7 144.44 114.33"/><polyline class="cls-4" points="144.44 114.33 144.44 129.6 144.44 140.7"/><line class="cls-4" x1="144.44" y1="129.6" x2="138.43" y2="140.7"/><line class="cls-4" x1="144.44" y1="114.34" x2="143.51" y2="112.48"/><line class="cls-4" x1="144.44" y1="114.34" x2="145.36" y2="112.48"/><line class="cls-12" x1="126.86" y1="140.47" x2="126.86" y2="137.7"/><line class="cls-12" x1="127.79" y1="140.47" x2="127.79" y2="139.78"/><line class="cls-12" x1="129.17" y1="140.47" x2="129.17" y2="138.85"/><line class="cls-12" x1="162.48" y1="140.47" x2="162.48" y2="138.85"/><line class="cls-12" x1="168.03" y1="140.47" x2="168.03" y2="138.39"/><line class="cls-12" x1="168.96" y1="140.47" x2="168.96" y2="139.78"/><line class="cls-12" x1="170.81" y1="140.7" x2="170.81" y2="140.24"/><line class="cls-12" x1="173.12" y1="140.47" x2="173.12" y2="138.39"/><line class="cls-12" x1="171.73" y1="140.47" x2="171.73" y2="139.32"/><line class="cls-12" x1="104.66" y1="140.47" x2="104.66" y2="139.32"/><line class="cls-12" x1="105.58" y1="140.47" x2="106.04" y2="137.93"/><line class="cls-12" x1="106.97" y1="140.47" x2="106.97" y2="140.24"/><path class="cls-13" d="M116.8,138.39a.92.92,0,0,0-.69.32.91.91,0,0,0-1.39,0,.91.91,0,0,0-1.39,0,.93.93,0,1,0,0,1.21.91.91,0,0,0,1.39,0,.91.91,0,0,0,1.39,0,.92.92,0,1,0,.69-1.53Z"/><path class="cls-14" d="M116.57,136.08a1.85,1.85,0,0,1-3.7,0c0-1,1.85-4.16,1.85-4.16S116.57,135.05,116.57,136.08Z"/><path class="cls-15" d="M115.53,136.35a.81.81,0,1,1-1.62,0,7.16,7.16,0,0,1,.81-1.82A7.16,7.16,0,0,1,115.53,136.35Z"/><path class="cls-16" d="M169.26,99.3a3.45,3.45,0,0,0-1.79.5,3.46,3.46,0,0,1,.24,6.07,3.47,3.47,0,1,0,1.55-6.57Z"/><path class="cls-17" d="M166,183l13,22.51H98.64l7-12.2A6.42,6.42,0,0,1,108,192a1.64,1.64,0,0,1,.77-.1,2.13,2.13,0,0,1,1,.64,7.05,7.05,0,0,0,2.15,1.42,3.63,3.63,0,0,0,2.54.09h0l2.25,3.89,10-17.27,1.33-2.31a19.27,19.27,0,0,0-.66,3.48,3.5,3.5,0,0,0,1.39,3.09,3.82,3.82,0,0,0,3.09.17,8.35,8.35,0,0,0,4.94-4.09c.39-.76.8-1.69,1.65-1.83a2,2,0,0,1,1.86,1.17,5.54,5.54,0,0,0,1.39,1.86c1,.68,2.4.22,3.54-.25h0l6.55,11.34,5.45-9.44h0a11.65,11.65,0,0,0,1.1,3.61,1.26,1.26,0,0,0,.45.56c.43.25,1-.07,1.29-.48a5.53,5.53,0,0,1,.89-1.2.69.69,0,0,1,.59-.15c.28.09.39.42.47.7s.21.8.31,1.21a1,1,0,0,0,.19.43c.25.27.68.19,1,.06A4.41,4.41,0,0,0,166,183Z"/><path class="cls-18" d="M166,183a4.41,4.41,0,0,1-2.38,5.61c-.34.14-.78.21-1-.06a1,1,0,0,1-.19-.43c-.11-.4-.21-.8-.31-1.21s-.19-.62-.47-.7a.69.69,0,0,0-.59.15,5.53,5.53,0,0,0-.89,1.2c-.3.4-.86.73-1.29.48a1.26,1.26,0,0,1-.45-.56,11.65,11.65,0,0,1-1.1-3.61h0l4.6-8,4.09,7.09Z"/><path class="cls-18" d="M135.65,165.22l9.64,16.7c-1.14.47-2.51.93-3.54.25a5.54,5.54,0,0,1-1.39-1.86,2,2,0,0,0-1.86-1.17c-.85.14-1.25,1.07-1.65,1.83a8.35,8.35,0,0,1-4.94,4.09,3.82,3.82,0,0,1-3.09-.17,3.5,3.5,0,0,1-1.39-3.09,19.27,19.27,0,0,1,.66-3.48Z"/><path class="cls-18" d="M109.9,186l4.64,8h0a3.63,3.63,0,0,1-2.54-.09,7.05,7.05,0,0,1-2.15-1.42,2.13,2.13,0,0,0-1-.64,1.64,1.64,0,0,0-.77.1,6.42,6.42,0,0,0-2.35,1.31Z"/><polyline class="cls-4" points="145.29 181.92 135.65 165.22 128.09 178.32 126.75 180.63 116.79 197.89 114.54 194 109.9 185.97 105.69 193.26 98.64 205.47 112.41 205.47 121.16 205.47 144.8 205.47 158.89 205.47 178.98 205.47 165.99 182.96"/><polyline class="cls-4" points="165.98 182.95 161.89 175.86 157.29 183.83 151.84 193.26 145.29 181.92"/><path class="cls-4" d="M145.3,181.92h0c-1.14.47-2.51.93-3.54.25a5.54,5.54,0,0,1-1.39-1.86,2,2,0,0,0-1.86-1.17c-.85.14-1.25,1.07-1.65,1.83a8.35,8.35,0,0,1-4.94,4.09,3.82,3.82,0,0,1-3.09-.17,3.5,3.5,0,0,1-1.39-3.09,19.27,19.27,0,0,1,.66-3.48"/><path class="cls-4" d="M105.69,193.26A6.42,6.42,0,0,1,108,192a1.64,1.64,0,0,1,.77-.1,2.13,2.13,0,0,1,1,.64,7.05,7.05,0,0,0,2.15,1.42,3.63,3.63,0,0,0,2.54.09"/><path class="cls-4" d="M157.29,183.83a11.65,11.65,0,0,0,1.1,3.61,1.26,1.26,0,0,0,.45.56c.43.25,1-.07,1.29-.48a5.53,5.53,0,0,1,.89-1.2.69.69,0,0,1,.59-.15c.28.09.39.42.47.7s.21.8.31,1.21a1,1,0,0,0,.19.43c.25.27.68.19,1,.06A4.41,4.41,0,0,0,166,183h0"/><path class="cls-19" d="M114.39,167.07h-.28a4.85,4.85,0,0,0-8.58-1.14,4,4,0,1,0-1.93,7.6h10.79a3.24,3.24,0,0,0,0-6.48Z"/><line class="cls-5" x1="130.1" y1="76.4" x2="109.05" y2="76.4"/><line class="cls-5" x1="106.97" y1="76.4" x2="102.81" y2="76.4"/><line class="cls-4" x1="143.98" y1="73.63" x2="135.88" y2="73.63"/><line class="cls-4" x1="160.63" y1="73.63" x2="145.6" y2="73.63"/><line class="cls-4" x1="174.28" y1="81.26" x2="149.07" y2="81.26"/><line class="cls-4" x1="145.6" y1="81.26" x2="130.56" y2="81.26"/><line class="cls-4" x1="129.64" y1="75.94" x2="108.59" y2="75.94"/><line class="cls-4" x1="106.51" y1="75.94" x2="102.34" y2="75.94"/><path class="cls-20" d="M182.53,1H92.93A7.89,7.89,0,0,0,85,8.89V212.61a7.89,7.89,0,0,0,7.89,7.89h89.6a7.89,7.89,0,0,0,7.89-7.89V8.89A7.89,7.89,0,0,0,182.53,1Zm1.85,191.74a.69.69,0,0,1-.68.69H91.77a.69.69,0,0,1-.68-.69V26.68a.69.69,0,0,1,.68-.69h91.93a.69.69,0,0,1,.68.69Z"/><circle class="cls-21" cx="137.73" cy="206.76" r="8.33"/><rect class="cls-8" x="128.15" y="12.29" width="19.16" height="2.5" rx="1.17" ry="1.17"/><circle class="cls-8" cx="123.24" cy="13.75" r="1.41"/></svg>