<?xml version="1.0" encoding="UTF-8" standalone="no"?>
<svg width="275px" height="222px" viewBox="0 0 275 222" version="1.1" xmlns="http://www.w3.org/2000/svg" xmlns:xlink="http://www.w3.org/1999/xlink">
    <!-- Generator: Sketch 40.1 (33804) - http://www.bohemiancoding.com/sketch -->
    <title>Artboard Copy</title>
    <desc>Created with Sketch.</desc>
    <defs>
        <rect id="path-1" x="86" y="6" width="104" height="214" rx="8"></rect>
        <mask id="mask-2" maskContentUnits="userSpaceOnUse" maskUnits="objectBoundingBox" x="0" y="0" width="104" height="214" fill="white">
            <use xlink:href="#path-1"></use>
        </mask>
        <rect id="path-3" x="100" y="30" width="35" height="35" rx="2"></rect>
        <mask id="mask-4" maskContentUnits="userSpaceOnUse" maskUnits="objectBoundingBox" x="0" y="0" width="35" height="35" fill="white">
            <use xlink:href="#path-3"></use>
        </mask>
        <rect id="path-5" x="141" y="30" width="35" height="35" rx="2"></rect>
        <mask id="mask-6" maskContentUnits="userSpaceOnUse" maskUnits="objectBoundingBox" x="0" y="0" width="35" height="35" fill="white">
            <use xlink:href="#path-5"></use>
        </mask>
        <rect id="path-7" x="100" y="71" width="35" height="35" rx="2"></rect>
        <mask id="mask-8" maskContentUnits="userSpaceOnUse" maskUnits="objectBoundingBox" x="0" y="0" width="35" height="35" fill="white">
            <use xlink:href="#path-7"></use>
        </mask>
        <rect id="path-9" x="141" y="71" width="35" height="35" rx="2"></rect>
        <mask id="mask-10" maskContentUnits="userSpaceOnUse" maskUnits="objectBoundingBox" x="0" y="0" width="35" height="35" fill="white">
            <use xlink:href="#path-9"></use>
        </mask>
        <rect id="path-11" x="100" y="111" width="35" height="35" rx="2"></rect>
        <mask id="mask-12" maskContentUnits="userSpaceOnUse" maskUnits="objectBoundingBox" x="0" y="0" width="35" height="35" fill="white">
            <use xlink:href="#path-11"></use>
        </mask>
        <rect id="path-13" x="141" y="111" width="35" height="35" rx="2"></rect>
        <mask id="mask-14" maskContentUnits="userSpaceOnUse" maskUnits="objectBoundingBox" x="0" y="0" width="35" height="35" fill="white">
            <use xlink:href="#path-13"></use>
        </mask>
        <rect id="path-15" x="100" y="152" width="35" height="35" rx="2"></rect>
        <mask id="mask-16" maskContentUnits="userSpaceOnUse" maskUnits="objectBoundingBox" x="0" y="0" width="35" height="35" fill="white">
            <use xlink:href="#path-15"></use>
        </mask>
        <rect id="path-17" x="141" y="152" width="35" height="35" rx="2"></rect>
        <mask id="mask-18" maskContentUnits="userSpaceOnUse" maskUnits="objectBoundingBox" x="0" y="0" width="35" height="35" fill="white">
            <use xlink:href="#path-17"></use>
        </mask>
    </defs>
    <g id="Page-1" stroke="none" stroke-width="1" fill="none" fill-rule="evenodd">
        <g id="Artboard-Copy">
            <use id="Rectangle-3" stroke="#979797" mask="url(#mask-2)" stroke-width="4" fill="#FFFFFF" xlink:href="#path-1"></use>
            <path d="M96.5,192 L180.648678,192" id="Line" stroke="#979797" stroke-width="2" stroke-linecap="round"></path>
            <path d="M96.5,25 L180.648678,25" id="Line-Copy" stroke="#979797" stroke-width="2" stroke-linecap="round"></path>
            <path d="M130.5,17 L146,17" id="Line-Copy-2" stroke="#979797" stroke-width="2" stroke-linecap="round"></path>
            <circle id="Oval" stroke="#979797" fill="#979797" cx="156" cy="17" r="1"></circle>
            <circle id="Oval-3" stroke="#979797" fill="#FFFFFF" cx="138" cy="205" r="8"></circle>
            <use id="Rectangle-4" stroke="#979797" mask="url(#mask-4)" stroke-width="2" fill="#FFFFFF" xlink:href="#path-3"></use>
            <use id="Rectangle-4-Copy" stroke="#979797" mask="url(#mask-6)" stroke-width="2" fill="#FFFFFF" xlink:href="#path-5"></use>
            <use id="Rectangle-4-Copy-2" stroke="#979797" mask="url(#mask-8)" stroke-width="2" fill="#FFFFFF" xlink:href="#path-7"></use>
            <use id="Rectangle-4-Copy-3" stroke="#979797" mask="url(#mask-10)" stroke-width="2" fill="#FFFFFF" xlink:href="#path-9"></use>
            <use id="Rectangle-4-Copy-4" stroke="#979797" mask="url(#mask-12)" stroke-width="2" fill="#FFFFFF" xlink:href="#path-11"></use>
            <use id="Rectangle-4-Copy-5" stroke="#979797" mask="url(#mask-14)" stroke-width="2" fill="#FFFFFF" xlink:href="#path-13"></use>
            <use id="Rectangle-4-Copy-6" stroke="#979797" mask="url(#mask-16)" stroke-width="2" fill="#FFFFFF" xlink:href="#path-15"></use>
            <use id="Rectangle-4-Copy-7" stroke="#979797" mask="url(#mask-18)" stroke-width="2" fill="#FFFFFF" xlink:href="#path-17"></use>
            <path d="M125.837336,60.2965266 C125.802124,60.2716486 123.932829,58.8914936 122.097981,54.8983829 L122.655248,53.0535834 C122.690078,52.9376136 122.668261,52.8120754 122.595924,52.7148598 C122.523969,52.6176442 122.409913,52.5602335 122.288585,52.5602335 L121.150321,52.5602335 C120.905751,51.8751316 120.668836,51.1330016 120.44302,50.3361401 C120.485504,50.2928906 120.521481,50.2427519 120.539853,50.1818965 L121.102478,48.3191082 C121.137307,48.2031385 121.115491,48.0776002 121.043154,47.9803847 C120.971199,47.8831691 120.857143,47.8257583 120.735815,47.8257583 L119.819922,47.8257583 C119.237011,45.1343412 118.801072,41.9116831 118.635729,38.0747297 C118.646445,38.0663094 118.656779,38.0586547 118.667879,38.0498517 C118.902497,37.89867 119.093484,37.6728543 119.219788,37.3972826 C119.338054,37.1745288 119.419577,36.9100565 119.419577,36.5992728 C119.419577,35.5467419 119.041049,35.2795905 118.546551,35.0399962 C118.490671,35.0128217 118.435939,34.9864128 118.382356,34.9577074 L118.382356,33.3827385 C118.382356,33.1714668 118.210889,33 117.999617,33 C117.788346,33 117.616879,33.1714668 117.616879,33.3827385 L117.616879,34.9588556 C117.567123,34.9864128 117.517749,35.0112908 117.469142,35.0361688 C117.03703,35.2550952 116.718592,35.485121 116.653143,36.2781552 C116.628648,36.3975696 116.612573,36.5200459 116.612573,36.6478806 C116.612573,37.2560521 116.907664,37.7800211 117.33748,38.0536791 C117.165247,41.8956081 116.722419,45.125921 116.133384,47.826141 L115.341116,47.826141 C115.22017,47.826141 115.106114,47.8835518 115.033777,47.9807674 C114.961439,48.077983 114.939623,48.2039039 114.974835,48.319491 L115.537843,50.1822792 C115.539757,50.188403 115.543967,50.1929959 115.546264,50.1991197 C115.3082,51.0491819 115.057506,51.8357095 114.798775,52.5609989 L113.711415,52.5609989 C113.59047,52.5609989 113.476414,52.6184097 113.404076,52.7156253 C113.331739,52.8128409 113.309922,52.9387618 113.344752,53.0543489 L113.883265,54.8371448 C112.054157,58.8673811 110.1929,60.293082 110.158071,60.3187255 C110.058942,60.3906803 110,60.5058846 110,60.6287437 L110,61.8320735 C110,62.0433451 110.171467,62.214812 110.382738,62.214812 L113.87561,62.214812 C114.086882,62.214812 114.258348,62.0433451 114.258348,61.8320735 C114.258348,60.1939527 114.681657,58.9844991 115.517175,58.2370108 C116.626734,57.2438044 118.12439,57.398048 118.139317,57.399579 C118.193666,57.4060855 118.249163,57.3965171 118.30045,57.3762319 C119.42838,57.4305808 121.741652,58.0081332 121.741652,61.8140848 C121.741652,62.0253564 121.913118,62.1968233 122.12439,62.1968233 L125.617262,62.1968233 C125.828533,62.1968233 126,62.0253564 126,61.8140848 L126,60.610755 C126,60.4855995 125.938762,60.3680987 125.837336,60.2965266 L125.837336,60.2965266 Z M118.566453,36.9854559 C118.565687,36.9873696 118.564922,36.9892833 118.564157,36.991197 C118.558798,37.0068893 118.551909,37.0214334 118.545785,37.0363602 C118.51019,37.1048703 118.467706,37.1661085 118.422543,37.2223711 C118.354033,37.3081045 118.279782,37.3792938 118.209358,37.4367046 C118.143527,37.4700029 118.073486,37.4914362 118,37.4914362 C117.966319,37.4914362 117.933786,37.4849297 117.901636,37.4776576 C117.823558,37.4190987 117.737059,37.34102 117.655918,37.2441872 C117.559085,37.1286001 117.473735,36.9877524 117.432782,36.8174337 C117.415941,36.7485408 117.405224,36.6762032 117.405224,36.5985073 C117.405224,36.5250215 117.407138,36.4614869 117.409817,36.4017797 C117.489427,36.0596115 117.726342,35.8020285 118.000383,35.8020285 C118.337193,35.8020285 118.622333,36.1885944 118.622333,36.6467324 C118.622333,36.7604057 118.604727,36.8694862 118.57296,36.9693809 C118.57028,36.9747393 118.568749,36.9804803 118.566453,36.9854559 L118.566453,36.9854559 Z M117.984308,40.1832361 C118.192135,43.1016171 118.558415,45.630753 119.01885,47.8253756 L116.935222,47.8253756 C117.399483,45.6284566 117.77074,43.0989379 117.984308,40.1832361 L117.984308,40.1832361 Z M115.856664,48.5908525 L115.960769,48.5908525 L116.769113,48.5908525 L119.184193,48.5908525 L119.991006,48.5908525 L120.221031,48.5908525 L120.094345,49.0107167 L119.88958,49.6881638 L119.450962,49.6881638 L116.501579,49.6881638 L116.188881,49.6881638 L115.914841,48.7810736 L115.856664,48.5908525 L115.856664,48.5908525 Z M116.297579,50.4536408 L119.654196,50.4536408 C119.862788,51.2057219 120.08248,51.9042197 120.308296,52.5602335 L115.641948,52.5602335 C115.868147,51.903837 116.088221,51.2057219 116.297579,50.4536408 L116.297579,50.4536408 Z M114.226964,53.3257105 L114.515549,53.3257105 L115.367907,53.3257105 L120.583102,53.3257105 L121.43393,53.3257105 L121.773419,53.3257105 L121.627978,53.8068127 L121.441585,54.4234045 L121.015597,54.4234045 L114.936561,54.4234045 L114.558415,54.4234045 L114.351354,53.7375371 L114.226964,53.3257105 L114.226964,53.3257105 Z M125.234523,61.4301981 L122.499474,61.4301981 C122.326859,57.0294709 119.175007,56.6230026 118.190221,56.6053966 C118.153478,56.6080758 118.111377,56.6126686 118.073869,56.6264472 C117.603866,56.6046311 116.168979,56.6314228 115.01464,57.6579275 C114.075017,58.4942111 113.566357,59.7679648 113.500144,61.447804 L110.765094,61.447804 L110.765094,60.8124581 C111.290977,60.3742226 112.97273,58.7801167 114.60243,55.1884987 L121.349727,55.1884987 C122.992058,58.7904507 124.696775,60.3642714 125.234906,60.7986796 L125.234906,61.4301981 L125.234523,61.4301981 Z" id="Shape" fill="#4A4A4A"></path>
            <path d="M170.246137,94.8261743 L169.925176,94.8261743 L169.925176,93.5530767 C169.925176,93.4907682 169.90163,93.4347389 169.864075,93.3907848 C169.83594,92.0115454 169.107076,90.8427782 168.099393,90.404083 L167.875879,89.2157539 C167.866943,89.167815 167.844,89.1256722 167.812725,89.0919822 L167.812725,88.404536 C167.815744,88.3819552 167.817918,88.3592537 167.817918,88.3358276 C167.817918,88.1037406 167.680742,87.9043776 167.484157,87.8101903 L167.484157,87.1739434 L167.662026,87.1739434 C167.800409,87.1739434 167.912467,87.061764 167.912467,86.9235019 C167.912467,86.7852399 167.800409,86.6730604 167.662026,86.6730604 L167.484157,86.6730604 L167.484157,86.4508751 C167.484157,86.3124923 167.371857,86.2004337 167.233715,86.2004337 C167.095333,86.2004337 166.983274,86.3126131 166.983274,86.4508751 L166.983274,86.6730604 L166.773888,86.6730604 C166.635626,86.6730604 166.523447,86.7852399 166.523447,86.9235019 C166.523447,87.061764 166.635747,87.1739434 166.773888,87.1739434 L166.983274,87.1739434 L166.983274,87.8101903 C166.786688,87.9043776 166.649513,88.1036198 166.649513,88.3358276 C166.649513,88.3585292 166.651445,88.3807477 166.654705,88.4046568 L166.654705,89.0849785 C166.620774,89.1186686 166.595657,89.1616566 166.585393,89.211286 L166.338091,90.4037208 C165.33874,90.8381896 164.613378,91.9901721 164.573046,93.3539552 C164.558677,93.364823 164.545635,93.3771398 164.534043,93.3907848 L164.534043,90.569756 C164.534043,90.3853663 164.384551,90.2357535 164.200041,90.2357535 L164.089673,90.2357535 L164.089673,88.5383302 C164.089673,88.3539406 163.94018,88.2043278 163.75567,88.2043278 L163.284009,88.2043278 C163.172675,85.7136788 161.822779,83.6259822 159.985282,82.8645145 L159.505772,80.5524591 C159.488263,80.467932 159.439117,80.3972916 159.372823,80.3498357 L159.372823,78.9993355 C159.377654,78.9650417 159.382363,78.9245894 159.382363,78.8783411 C159.382363,78.4657285 159.120691,78.1140961 158.754931,77.9780076 L158.754931,76.5568669 L159.285519,76.5568669 C159.469909,76.5568669 159.619522,76.4073749 159.619522,76.2228644 C159.619522,76.038354 159.470029,75.888862 159.285519,75.888862 L158.754931,75.888862 L158.754931,75.3340025 C158.754931,75.1496128 158.605439,75 158.420928,75 C158.236418,75 158.086926,75.1494921 158.086926,75.3340025 L158.086926,75.888862 L157.615386,75.888862 C157.430996,75.888862 157.281383,76.038354 157.281383,76.2228644 C157.281383,76.4073749 157.430876,76.5568669 157.615386,76.5568669 L158.086926,76.5568669 L158.086926,77.9780076 C157.721165,78.1140961 157.459494,78.4658492 157.459494,78.8783411 C157.459494,78.9243479 157.464203,78.9643171 157.469154,78.9993355 L157.469154,80.3586507 C157.407691,80.4071933 157.363133,80.4768678 157.347798,80.5584967 L156.914174,82.8651183 C155.077523,83.627069 153.728713,85.7144033 153.617379,88.204207 L153.598662,88.204207 C153.414272,88.204207 153.26466,88.3536991 153.26466,88.5382095 L153.26466,90.235512 L153.217687,90.235512 C153.033297,90.235512 152.883684,90.3850041 152.883684,90.5695145 L152.883684,92.896664 C152.714268,91.7365911 152.043727,90.7880772 151.158126,90.4033585 L150.911065,89.2111653 C150.900801,89.1616566 150.875805,89.1185478 150.841753,89.0849785 L150.841753,88.4047775 C150.844772,88.382076 150.846825,88.3592537 150.846825,88.3357069 C150.846825,88.1036198 150.70977,87.9043776 150.513184,87.8101903 L150.513184,87.1738226 L150.722449,87.1738226 C150.860832,87.1738226 150.972891,87.0616432 150.972891,86.9233812 C150.972891,86.7851191 150.860711,86.6729397 150.722449,86.6729397 L150.513184,86.6729397 L150.513184,86.4507544 C150.513184,86.3123716 150.401005,86.2003129 150.262743,86.2003129 C150.124481,86.2003129 150.012301,86.3124923 150.012301,86.4507544 L150.012301,86.6729397 L149.834312,86.6729397 C149.695929,86.6729397 149.58387,86.7851191 149.58387,86.9233812 C149.58387,87.0616432 149.69605,87.1738226 149.834312,87.1738226 L150.012301,87.1738226 L150.012301,87.8101903 C149.815716,87.9043776 149.67854,88.1036198 149.67854,88.3357069 C149.67854,88.3590122 149.680593,88.3814722 149.683612,88.4046568 L149.683612,89.0919822 C149.652216,89.1256722 149.629394,89.167815 149.620338,89.2157539 L149.396824,90.4042038 C148.389262,90.8431405 147.660639,92.0116662 147.632504,93.3906641 C147.594829,93.4343766 147.571282,93.4907682 147.571282,93.5530767 L147.571282,94.8261743 L147.250441,94.8261743 C147.112059,94.8261743 147,94.9384745 147,95.0766158 L147,101.107256 C147,101.245639 147.112179,101.357698 147.250441,101.357698 L149.514679,101.357698 C149.531705,101.36132 149.549335,101.363494 149.567448,101.363494 L151.027592,101.363494 C151.045705,101.363494 151.063214,101.36132 151.080361,101.357698 L152.9472,101.357698 L152.9472,101.995998 C152.9472,102.180387 153.096692,102.33 153.281203,102.33 L164.19992,102.33 C164.38431,102.33 164.533922,102.180508 164.533922,101.995998 L164.533922,101.357698 L166.416098,101.357698 C166.433244,101.36132 166.450754,101.363494 166.468867,101.363494 L167.929252,101.363494 C167.947244,101.363494 167.964874,101.36132 167.982021,101.357698 L170.246258,101.357698 C170.38452,101.357698 170.4967,101.245518 170.4967,101.107256 L170.4967,95.0766158 C170.496579,94.9384745 170.3844,94.8261743 170.246137,94.8261743 L170.246137,94.8261743 Z M169.995696,97.6193093 L169.163346,97.6193093 L169.163346,96.9176143 C169.163346,96.4645495 168.794688,96.0958909 168.341382,96.0958909 C167.888317,96.0958909 167.5199,96.4645495 167.5199,96.9176143 L167.5199,97.6193093 L166.878219,97.6193093 L166.878219,96.9176143 C166.878219,96.4645495 166.509319,96.0958909 166.056254,96.0958909 C165.602948,96.0958909 165.234289,96.4645495 165.234289,96.9176143 L165.234289,97.6193093 L164.533802,97.6193093 L164.533802,95.9654778 L164.533802,95.3271781 L169.995455,95.3271781 L169.995455,97.6193093 L169.995696,97.6193093 Z M168.662463,97.6193093 L168.021024,97.6193093 L168.021024,96.9176143 C168.021024,96.7407113 168.164841,96.5968946 168.341502,96.5968946 C168.518647,96.5968946 168.662463,96.7407113 168.662463,96.9176143 L168.662463,97.6193093 L168.662463,97.6193093 Z M166.377336,97.6193093 L165.735414,97.6193093 L165.735414,96.9176143 C165.735414,96.7407113 165.879472,96.5968946 166.056375,96.5968946 C166.233278,96.5968946 166.377336,96.7407113 166.377336,96.9176143 L166.377336,97.6193093 L166.377336,97.6193093 Z M152.522875,93.8035182 L152.522875,94.7626583 L148.072406,94.7626583 L148.072406,93.8035182 L152.522875,93.8035182 L152.522875,93.8035182 Z M154.609726,90.0264888 C154.609726,89.8684232 154.725649,89.7399422 154.868137,89.7399422 C155.010626,89.7399422 155.126548,89.8684232 155.126548,90.0264888 C155.126548,90.0552279 155.121477,90.0825181 155.114352,90.1087215 L154.621801,90.1087215 C154.614677,90.0825181 154.609726,90.0552279 154.609726,90.0264888 L154.609726,90.0264888 Z M156.515327,90.0264888 C156.515327,89.8684232 156.63125,89.7399422 156.773738,89.7399422 C156.916227,89.7399422 157.03215,89.8684232 157.03215,90.0264888 C157.03215,90.0552279 157.027078,90.0825181 157.019953,90.1087215 L156.527402,90.1087215 C156.520399,90.0825181 156.515327,90.0552279 156.515327,90.0264888 L156.515327,90.0264888 Z M158.420928,90.0264888 C158.420928,89.8684232 158.536851,89.7399422 158.67934,89.7399422 C158.821828,89.7399422 158.93763,89.8684232 158.93763,90.0264888 C158.93763,90.0552279 158.932679,90.0825181 158.925434,90.1087215 L158.433004,90.1087215 C158.425879,90.0825181 158.420928,90.0552279 158.420928,90.0264888 L158.420928,90.0264888 Z M160.32653,90.0264888 C160.32653,89.8684232 160.442332,89.7399422 160.585062,89.7399422 C160.72755,89.7399422 160.843352,89.8684232 160.843352,90.0264888 C160.843352,90.0552279 160.838401,90.0825181 160.831156,90.1087215 L160.338726,90.1087215 C160.331481,90.0825181 160.32653,90.0552279 160.32653,90.0264888 L160.32653,90.0264888 Z M162.232131,90.0264888 C162.232131,89.8684232 162.348174,89.7399422 162.490421,89.7399422 C162.633151,89.7399422 162.748953,89.8684232 162.748953,90.0264888 C162.748953,90.0552279 162.744002,90.0825181 162.736757,90.1087215 L162.244327,90.1087215 C162.237082,90.0825181 162.232131,90.0552279 162.232131,90.0264888 L162.232131,90.0264888 Z M161.867457,94.3825283 L161.867457,93.3308914 C161.867457,93.1124494 162.045085,92.9349427 162.263647,92.9349427 C162.482089,92.9349427 162.659596,93.1125702 162.659596,93.3308914 L162.659596,94.7730431 L161.867457,94.3825283 L161.867457,94.3825283 Z M162.263768,92.2670585 C161.67703,92.2670585 161.199694,92.7442739 161.199694,93.3310122 L161.199694,94.226757 L160.681543,93.9682251 L160.681543,92.864906 C160.681543,92.7762734 160.646404,92.6912634 160.583854,92.6287134 L159.081084,91.1260645 C159.018534,91.063273 158.933524,91.0281339 158.845013,91.0281339 C158.756501,91.0281339 158.671491,91.063273 158.60882,91.1260645 L157.10605,92.6287134 C157.04338,92.6913841 157.00824,92.7762734 157.00824,92.864906 L157.00824,93.8421591 L156.217913,94.2268778 L156.217913,93.3310122 C156.217913,92.7443946 155.740577,92.2670585 155.153838,92.2670585 C154.5671,92.2670585 154.089764,92.7442739 154.089764,93.3310122 L154.089764,95.2625753 L153.551689,95.5244883 L153.551689,90.9035169 L163.866038,90.9035169 L163.866038,95.5572123 L163.327601,95.2884164 L163.327601,93.3308914 C163.327601,92.7442739 162.850265,92.2670585 162.263768,92.2670585 L162.263768,92.2670585 Z M158.362001,95.5921099 L158.362001,94.518979 C158.362001,94.310801 158.566194,94.1415055 158.817119,94.1415055 C159.068164,94.1415055 159.272478,94.310801 159.272478,94.518979 L159.272478,95.5921099 L158.362001,95.5921099 L158.362001,95.5921099 Z M158.817119,93.5918384 C158.263104,93.5918384 157.812334,94.0077113 157.812334,94.518979 L157.812334,95.5921099 L157.676125,95.5921099 L157.676125,93.0031681 L158.844892,91.8344009 L160.013538,93.0031681 L160.013538,95.5921099 L159.822024,95.5921099 L159.822024,94.518979 C159.822024,94.0078321 159.371254,93.5918384 158.817119,93.5918384 L158.817119,93.5918384 Z M154.757769,94.7730431 L154.757769,93.3308914 C154.757769,93.1124494 154.935517,92.9349427 155.153838,92.9349427 C155.37216,92.9349427 155.549908,93.1125702 155.549908,93.3308914 L155.549908,94.3825283 L154.757769,94.7730431 L154.757769,94.7730431 Z M154.571447,95.6094983 L156.031591,94.8898111 C156.06033,94.875683 156.086413,94.8574493 156.109356,94.8365591 L157.00824,94.3990714 L157.00824,95.6314753 L154.509984,95.6314753 C154.530874,95.6257999 154.551644,95.6192793 154.571447,95.6094983 L154.571447,95.6094983 Z M160.681422,94.5211526 L161.304145,94.8318497 C161.328175,94.854672 161.355223,94.874717 161.385895,94.8898111 L162.846039,95.6094983 C162.865118,95.618917 162.885042,95.6250754 162.905087,95.6306301 L162.906898,95.6314753 L160.681422,95.6314753 L160.681422,94.5211526 L160.681422,94.5211526 Z M169.424293,93.8035182 L169.424293,94.7626583 L164.973704,94.7626583 L164.973704,93.8035182 L169.424293,93.8035182 L169.424293,93.8035182 Z M167.152328,88.3462124 L167.150396,88.3357069 C167.150396,88.2898208 167.187708,88.2525082 167.233595,88.2525082 C167.27936,88.2525082 167.316793,88.2898208 167.316793,88.3323258 L167.314258,88.350801 C167.312567,88.3628763 167.311722,88.3749516 167.311722,88.3870269 L167.311722,89.0116815 L167.155588,89.0116815 L167.155588,88.3870269 C167.155588,88.3747101 167.154018,88.3582877 167.152328,88.3462124 L167.152328,88.3462124 Z M167.034473,89.5125645 L167.421969,89.5125645 L167.56011,90.2460175 C167.448052,90.2281461 167.334182,90.2180028 167.218259,90.2180028 C167.10463,90.2180028 166.992813,90.2279046 166.882807,90.2450515 L167.034473,89.5125645 L167.034473,89.5125645 Z M166.756741,90.7854206 L167.679656,90.7854206 C168.580231,91.0398469 169.271179,92.0198773 169.355947,93.2228176 L165.080329,93.2228176 C165.165218,92.0198773 165.856166,91.0398469 166.756741,90.7854206 L166.756741,90.7854206 Z M163.421788,90.1087215 L163.115438,90.1087215 C163.118578,90.0816728 163.120872,90.0543827 163.120872,90.0264888 C163.120872,89.6632641 162.838069,89.3680233 162.490421,89.3680233 C162.143015,89.3680233 161.860212,89.6632641 161.860212,90.0264888 C161.860212,90.0542619 161.862506,90.0816728 161.865646,90.1087215 L161.209716,90.1087215 C161.212856,90.0816728 161.21515,90.0543827 161.21515,90.0264888 C161.21515,89.6632641 160.932347,89.3680233 160.584941,89.3680233 C160.237293,89.3680233 159.95449,89.6632641 159.95449,90.0264888 C159.95449,90.0542619 159.956784,90.0816728 159.959924,90.1087215 L159.303994,90.1087215 C159.307134,90.0816728 159.309428,90.0543827 159.309428,90.0264888 C159.309428,89.6632641 159.026746,89.3680233 158.679219,89.3680233 C158.331692,89.3680233 158.048889,89.6632641 158.048889,90.0264888 C158.048889,90.0542619 158.051062,90.0816728 158.054323,90.1087215 L157.398514,90.1087215 C157.401774,90.0816728 157.403948,90.0543827 157.403948,90.0264888 C157.403948,89.6632641 157.121144,89.3680233 156.773618,89.3680233 C156.426091,89.3680233 156.143288,89.6632641 156.143288,90.0264888 C156.143288,90.0542619 156.145582,90.0816728 156.148721,90.1087215 L155.492913,90.1087215 C155.496173,90.0816728 155.498346,90.0543827 155.498346,90.0264888 C155.498346,89.6632641 155.215664,89.3680233 154.868016,89.3680233 C154.520369,89.3680233 154.237686,89.6632641 154.237686,90.0264888 C154.237686,90.0542619 154.239981,90.0816728 154.24312,90.1087215 L153.932544,90.1087215 L153.932544,88.8722119 L153.943291,88.8722119 L162.957735,88.8722119 L162.96015,88.8722119 L163.421668,88.8722119 L163.421668,90.1087215 L163.421788,90.1087215 Z M158.133174,78.9228989 C158.13088,78.9082878 158.127499,78.8936767 158.127499,78.8783411 C158.127499,78.7165322 158.25912,78.5849116 158.421049,78.5849116 C158.582979,78.5849116 158.714599,78.7165322 158.714599,78.8783411 C158.714599,78.894039 158.711098,78.9090123 158.708803,78.924831 C158.706267,78.9413741 158.70506,78.958038 158.70506,78.9747019 L158.70506,80.286199 L158.13728,80.286199 L158.13728,78.9747019 C158.137159,78.958038 158.13571,78.9394421 158.133174,78.9228989 L158.133174,78.9228989 Z M157.953011,80.9542039 L158.906838,80.9542039 L159.256297,82.6390689 C158.994022,82.5844886 158.725105,82.5545419 158.450513,82.5545419 C158.172902,82.5545419 157.900967,82.5852131 157.635914,82.6408802 L157.953011,80.9542039 L157.953011,80.9542039 Z M157.554164,83.3474053 L159.346982,83.3474053 C161.135815,83.8482883 162.498995,85.8141452 162.615642,88.204207 L154.285504,88.204207 C154.402393,85.8141452 155.76521,83.8482883 157.554164,83.3474053 L157.554164,83.3474053 Z M150.181838,88.3483859 L150.179665,88.3357069 C150.179665,88.2898208 150.216978,88.2525082 150.262864,88.2525082 C150.30875,88.2525082 150.346062,88.2898208 150.346183,88.3322051 L150.343647,88.3499557 C150.341836,88.3622725 150.34087,88.3745893 150.34087,88.3870269 L150.34087,89.0116815 L150.184737,89.0116815 L150.184737,88.3870269 C150.184737,88.3745893 150.18365,88.3607027 150.181838,88.3483859 L150.181838,88.3483859 Z M150.074489,89.5125645 L150.462106,89.5125645 L150.613892,90.2449307 C150.504007,90.2276631 150.39219,90.2178821 150.278562,90.2178821 C150.162639,90.2178821 150.048527,90.2281461 149.936469,90.2458967 L150.074489,89.5125645 L150.074489,89.5125645 Z M149.817165,90.7854206 L150.739958,90.7854206 C151.640533,91.0398469 152.331481,92.0198773 152.416371,93.2228176 L148.140752,93.2228176 C148.225642,92.0198773 148.91659,91.0398469 149.817165,90.7854206 L149.817165,90.7854206 Z M152.883805,95.3270573 L152.883805,95.965357 C152.883805,96.038171 152.907714,96.1049474 152.947321,96.1598899 L152.947321,97.6191885 L152.262048,97.6191885 L152.262048,96.9174935 C152.262048,96.4644287 151.89339,96.0957702 151.440204,96.0957702 C150.987019,96.0957702 150.61836,96.4644287 150.61836,96.9174935 L150.61836,97.6191885 L149.976679,97.6191885 L149.976679,96.9174935 C149.976679,96.4644287 149.608021,96.0957702 149.154835,96.0957702 C148.70165,96.0957702 148.332991,96.4644287 148.332991,96.9174935 L148.332991,97.6191885 L147.500883,97.6191885 L147.500883,95.3270573 L152.883805,95.3270573 L152.883805,95.3270573 Z M151.761165,97.6193093 L151.119485,97.6193093 L151.119485,96.9176143 C151.119485,96.7407113 151.263422,96.5968946 151.440325,96.5968946 C151.617228,96.5968946 151.761165,96.7407113 151.761165,96.9176143 L151.761165,97.6193093 L151.761165,97.6193093 Z M149.475796,97.6193093 L148.834116,97.6193093 L148.834116,96.9176143 C148.834116,96.7407113 148.978053,96.5968946 149.154956,96.5968946 C149.331859,96.5968946 149.475796,96.7407113 149.475796,96.9176143 L149.475796,97.6193093 L149.475796,97.6193093 Z M150.777271,100.856815 L149.81801,100.856815 L149.81801,99.9351081 C149.81801,99.7972083 150.014958,99.6437314 150.29764,99.6437314 C150.580323,99.6437314 150.777271,99.7972083 150.777271,99.9351081 L150.777271,100.856815 L150.777271,100.856815 Z M151.278154,100.856815 L151.278154,99.9351081 C151.278154,99.4908582 150.847428,99.1427277 150.29752,99.1427277 C149.747732,99.1427277 149.317006,99.4908582 149.317006,99.9351081 L149.317006,100.856815 L147.501004,100.856815 L147.501004,98.1201922 L148.583553,98.1201922 L149.726238,98.1201922 L150.868802,98.1201922 L152.011486,98.1201922 L152.9472,98.1201922 L152.9472,100.856815 L151.278154,100.856815 L151.278154,100.856815 Z M156.518225,101.662116 L155.693966,101.662116 L155.693966,100.560729 C155.693966,100.371267 155.878839,100.217066 156.106096,100.217066 C156.333353,100.217066 156.518225,100.371147 156.518225,100.560729 L156.518225,101.662116 L156.518225,101.662116 Z M159.136872,101.662116 L158.312492,101.662116 L158.312492,98.087106 C158.312492,97.8976447 158.497365,97.7433225 158.724622,97.7433225 C158.952,97.7433225 159.136872,97.8975239 159.136872,98.087106 L159.136872,101.662116 L159.136872,101.662116 Z M161.755519,101.662116 L160.93126,101.662116 L160.93126,100.560729 C160.93126,100.371267 161.116133,100.217066 161.343269,100.217066 C161.570647,100.217066 161.755519,100.371147 161.755519,100.560729 L161.755519,101.662116 L161.755519,101.662116 Z M163.866038,101.662116 L162.391283,101.662116 L162.391283,100.560729 C162.391283,100.020601 161.920951,99.5813021 161.343148,99.5813021 C160.765346,99.5813021 160.295255,100.020722 160.295255,100.560729 L160.295255,101.662116 L159.772636,101.662116 L159.772636,98.087106 C159.772636,97.5469783 159.302304,97.1075586 158.724501,97.1075586 C158.146699,97.1075586 157.676608,97.5470991 157.676608,98.087106 L157.676608,101.662116 L157.153989,101.662116 L157.153989,100.560729 C157.153989,100.020601 156.683898,99.5813021 156.105975,99.5813021 C155.528052,99.5813021 155.057961,100.020722 155.057961,100.560729 L155.057961,101.662116 L153.615205,101.662116 L153.615205,96.2993595 L163.866038,96.2993595 L163.866038,101.662116 L163.866038,101.662116 Z M167.67869,100.856815 L166.719308,100.856815 L166.719308,99.9351081 C166.719308,99.7972083 166.916256,99.6437314 167.199059,99.6437314 C167.481621,99.6437314 167.67881,99.7972083 167.67881,99.9351081 L167.67881,100.856815 L167.67869,100.856815 Z M168.179693,100.856815 L168.179693,99.9351081 C168.179693,99.4908582 167.748847,99.1427277 167.199059,99.1427277 C166.64903,99.1427277 166.218425,99.4908582 166.218425,99.9351081 L166.218425,100.856815 L164.534043,100.856815 L164.534043,98.1201922 L165.484972,98.1201922 L166.627898,98.1201922 L167.770583,98.1201922 L168.913026,98.1201922 L169.995817,98.1201922 L169.995817,100.856815 L168.179693,100.856815 L168.179693,100.856815 Z" id="Shape" fill="#4A4A4A"></path>
            <path d="M130.482558,96.7642082 C128.560465,94.4940432 126.975581,93.8677908 126.368605,93.82865 C126.132558,93.82865 125.82907,93.9460723 125.559302,94.0243539 C125.019767,94.2200578 124.682558,94.3374801 124.446512,94.0243539 C123.839535,93.2023976 122.827907,92.6544268 122.794186,92.615286 C122.55814,92.4978637 122.389535,92.0673151 122.524419,91.6759074 C122.693023,91.1670773 122.693023,90.1494171 122.524419,89.5231647 C122.355814,88.8969123 121.243023,87.0964366 120.838372,86.8224512 C120.602326,86.6658881 120.130233,85.6090872 119.860465,85.0611163 C119.65814,84.591427 119.556977,84.4348639 119.523256,84.3957231 C119.354651,84.2000193 118.781395,83.9651746 118.410465,84.0043154 C118.174419,84.0043154 118.073256,84.1217377 117.972093,84.2783008 C117.904651,84.3565824 117.87093,84.4348639 117.736047,84.5522862 C116.79186,85.2568202 117.162791,86.1179173 117.331395,86.509325 C117.365116,86.5876066 117.331395,86.861592 117.12907,87.1355774 C117.061628,87.2529997 116.79186,87.6052667 116.454651,87.5661259 C116.05,87.4878444 115.746512,87.5269852 115.510465,87.7226891 C115.34186,87.8401114 115.274419,88.0358153 115.240698,88.2706599 C115.173256,88.7012084 115.004651,89.5231647 114.768605,89.8362909 C114.667442,89.992854 113.925581,90.8930919 113.082558,91.8716112 C112.846512,91.7541889 112.475581,91.5976258 112.374419,91.5193443 C112.205814,91.3627812 111.666279,91.1670773 111.598837,91.1279365 L110.62093,90.5799657 C110.384884,90.4625433 110.081395,90.5016841 109.912791,90.6582472 C109.54186,90.8930919 108.698837,91.5193443 108.597674,91.7541889 C108.530233,91.8716112 108.294186,92.0673151 107.855814,92.3021598 C107.72093,92.3804413 107.181395,92.967553 106.203488,94.1026354 C105.933721,94.4157616 105.663953,94.7288879 105.630233,94.7680286 C105.596512,94.8071694 105.52907,94.8463102 105.427907,94.9637325 C104.112791,96.1770965 103.70814,96.5685043 103.606977,96.7250674 L103,96.7250674 L103,97.0773344 L132,97.0773344 L132,96.7250674 L130.482558,96.7250674 L130.482558,96.7642082 Z M119.287209,84.6305678 C119.32093,84.6697086 119.455814,84.9828348 119.590698,85.2176794 C120.02907,86.157058 120.4,86.9398735 120.669767,87.0964366 C121.006977,87.3312813 122.086047,89.0534754 122.22093,89.6014463 C122.355814,90.1494171 122.355814,91.0887957 122.22093,91.5193443 C122.052326,92.1064559 122.288372,92.6935675 122.659302,92.8892714 C122.996512,93.0849753 123.772093,93.5938054 124.210465,94.2200578 C124.581395,94.7288879 125.154651,94.533184 125.626744,94.3374801 C125.862791,94.2591985 126.132558,94.1417762 126.334884,94.1417762 C126.94186,94.1417762 128.39186,94.885451 130.044186,96.7250674 L122.760465,96.7250674 C122.794186,95.7856888 122.389535,95.0420141 121.917442,94.2591985 C121.681395,93.8677908 121.47907,93.476383 121.310465,93.0458345 C120.77093,91.7150481 119.354651,90.8930919 119.186047,90.8148103 C119.186047,90.8148103 119.186047,90.8148103 119.186047,90.7756695 C119.219767,89.8362909 119.590698,88.77949 119.826744,88.0358153 C119.927907,87.8009706 119.995349,87.5661259 120.02907,87.4095628 C120.197674,86.7833104 119.894186,86.3136211 119.725581,86.1179173 C119.69186,86.0787765 119.65814,86.0396357 119.65814,86.0004949 L119.624419,85.8830726 C119.556977,85.7265095 119.455814,85.4916649 119.32093,85.1002571 C119.219767,84.8654124 119.017442,84.591427 118.848837,84.3957231 C119.051163,84.4740047 119.219767,84.591427 119.287209,84.6305678 L119.287209,84.6305678 Z M122.490698,96.7642082 L118.511628,96.7642082 C118.309302,95.5508441 117.601163,95.1202956 117.12907,95.0420141 C117.567442,94.3766209 118.848837,92.4195821 119.118605,91.2062181 C119.422093,91.4019219 120.568605,92.1455967 121.006977,93.2415384 C121.175581,93.6720869 121.411628,94.1026354 121.647674,94.4940432 C122.119767,95.2377179 122.524419,95.9422519 122.490698,96.7642082 L122.490698,96.7642082 Z M105.52907,95.2768587 C105.630233,95.1985772 105.697674,95.1202956 105.731395,95.0811548 C105.798837,95.0420141 105.967442,94.8071694 106.338372,94.4157616 C106.844186,93.82865 107.788372,92.7718491 107.923256,92.6544268 C108.294186,92.4587229 108.665116,92.1847374 108.766279,91.9498928 C108.833721,91.8324705 109.440698,91.3627812 110.013953,90.9713734 C110.148837,90.8539511 110.317442,90.8148103 110.452326,90.8930919 L111.463953,91.4410627 C111.7,91.5193443 112.07093,91.6759074 112.138372,91.7541889 C112.273256,91.8716112 112.576744,92.0281743 112.812791,92.1455967 C112.172093,92.8892714 111.531395,93.6720869 111.025581,94.2200578 L111.227907,94.4549024 C111.362791,94.2983393 114.701163,90.4234026 114.97093,90.0711356 C115.240698,89.640587 115.443023,88.77949 115.476744,88.3489415 C115.510465,88.2315191 115.544186,88.1140968 115.645349,88.0358153 C115.813953,87.9183929 116.05,87.8792522 116.353488,87.9183929 C116.690698,87.9966745 117.061628,87.7618298 117.297674,87.3704221 C117.5,87.0572959 117.634884,86.6658881 117.5,86.3527619 C117.331395,85.9613542 117.095349,85.3742425 117.837209,84.8262717 C118.005814,84.7088493 118.106977,84.5522862 118.140698,84.4740047 C118.20814,84.3957231 118.20814,84.3565824 118.309302,84.3565824 C118.511628,84.5131455 118.916279,84.9045532 119.051163,85.2568202 C119.186047,85.648228 119.287209,85.9222134 119.354651,86.0787765 L119.388372,86.1961988 C119.422093,86.2353396 119.455814,86.3136211 119.489535,86.3527619 C119.624419,86.5484658 119.860465,86.9007328 119.725581,87.3312813 C119.69186,87.4878444 119.590698,87.7226891 119.523256,87.9575337 C119.253488,88.7403492 118.882558,89.8362909 118.848837,90.8148103 C118.815116,91.9890336 116.926744,94.7680286 116.724419,95.0420141 L116.724419,95.0420141 C116.656977,95.0420141 116.353488,95.0420141 115.67907,94.2591985 C115.476744,94.0243539 115.30814,93.7895092 115.206977,93.6720869 C115.139535,93.4372423 114.903488,93.3981015 114.465116,93.4372423 C114.060465,93.476383 112.947674,94.9245917 112.610465,95.3551403 L112.846512,95.5899849 C113.487209,94.7288879 114.296512,93.82865 114.498837,93.7895092 C114.937209,93.7503685 115.038372,93.7895092 115.038372,93.82865 C115.139535,93.9460723 115.30814,94.2200578 115.510465,94.4549024 C116.083721,95.0811548 116.522093,95.394281 116.79186,95.3551403 C117.095349,95.3159995 117.972093,95.4725626 118.20814,96.7642082 L103.944186,96.7642082 C104.180233,96.4902227 104.719767,95.9813927 105.52907,95.2768587 L105.52907,95.2768587 Z" id="Shape" fill="#000000"></path>
            <path d="M111.719767,86.9140775 C110.775581,86.9140775 110,86.0529805 110,84.9570388 C110,83.8610971 110.775581,83 111.719767,83 C112.663953,83 113.439535,83.8610971 113.439535,84.9570388 C113.473256,86.0529805 112.697674,86.9140775 111.719767,86.9140775 L111.719767,86.9140775 Z M111.719767,83.352267 C110.944186,83.352267 110.269767,84.0959417 110.269767,84.9570388 C110.269767,85.8181358 110.910465,86.5618106 111.719767,86.5618106 C112.52907,86.5618106 113.169767,85.8181358 113.169767,84.9570388 C113.169767,84.0959417 112.52907,83.352267 111.719767,83.352267 L111.719767,83.352267 Z" id="Shape" fill="#000000"></path>
            <g id="Group" transform="translate(109.000000, 114.500000)" fill="#4A4A4A">
                <polygon id="Shape" points="2.95324138 8.5596 2.91786207 8.5596 2.91786207 8.59475556 2.91786207 10.4352889 2.91786207 10.4707556 2.95324138 10.4707556 4.32310345 10.4707556 4.35848276 10.4707556 4.35848276 10.4352889 4.35848276 8.59475556 4.35848276 8.5596 4.32310345 8.5596"></polygon>
                <polygon id="Shape" points="5.41924138 8.5596 5.38386207 8.5596 5.38386207 8.59475556 5.38386207 10.4352889 5.38386207 10.4707556 5.41924138 10.4707556 6.78941379 10.4707556 6.8247931 10.4707556 6.8247931 10.4352889 6.8247931 8.59475556 6.8247931 8.5596 6.78941379 8.5596"></polygon>
                <polygon id="Shape" points="11.2099655 8.5596 11.1748966 8.5596 11.1748966 8.59475556 11.1748966 10.4352889 11.1748966 10.4707556 11.2099655 10.4707556 12.5801379 10.4707556 12.6155172 10.4707556 12.6155172 10.4352889 12.6155172 8.59475556 12.6155172 8.5596 12.5801379 8.5596"></polygon>
                <polygon id="Shape" points="13.6762759 8.5596 13.6408966 8.5596 13.6408966 8.59475556 13.6408966 10.4352889 13.6408966 10.4707556 13.6762759 10.4707556 15.0461379 10.4707556 15.0815172 10.4707556 15.0815172 10.4352889 15.0815172 8.59475556 15.0815172 8.5596 15.0461379 8.5596"></polygon>
                <polygon id="Shape" points="2.95324138 22.1579556 2.91786207 22.1579556 2.91786207 22.1931111 2.91786207 24.0336444 2.91786207 24.0691111 2.95324138 24.0691111 4.32310345 24.0691111 4.35848276 24.0691111 4.35848276 24.0336444 4.35848276 22.1931111 4.35848276 22.1579556 4.32310345 22.1579556"></polygon>
                <polygon id="Shape" points="5.41924138 22.1579556 5.38386207 22.1579556 5.38386207 22.1931111 5.38386207 24.0336444 5.38386207 24.0691111 5.41924138 24.0691111 6.78941379 24.0691111 6.8247931 24.0691111 6.8247931 24.0336444 6.8247931 22.1931111 6.8247931 22.1579556 6.78941379 22.1579556"></polygon>
                <polygon id="Shape" points="11.2099655 22.1579556 11.1748966 22.1579556 11.1748966 22.1931111 11.1748966 24.0336444 11.1748966 24.0691111 11.2099655 24.0691111 12.5801379 24.0691111 12.6155172 24.0691111 12.6155172 24.0336444 12.6155172 22.1931111 12.6155172 22.1579556 12.5801379 22.1579556"></polygon>
                <polygon id="Shape" points="15.0461379 24.0691111 15.0815172 24.0691111 15.0815172 24.0336444 15.0815172 22.1931111 15.0815172 22.1579556 15.0461379 22.1579556 13.6762759 22.1579556 13.6408966 22.1579556 13.6408966 22.1931111 13.6408966 24.0336444 13.6408966 24.0691111 13.6762759 24.0691111"></polygon>
                <path d="M17.4755172,0.0491555556 L0.525103448,0.0491555556 L0.149896552,0.0491555556 L0.149896552,0.425288889 L0.148655172,27.5283556 L0.148655172,27.9035556 L0.524172414,27.9044889 L17.4056897,27.9496 L17.7799655,27.9505333 L17.7808966,27.5734667 L17.8510345,0.4256 L17.8519655,0.0494666667 L17.4755172,0.0494666667 L17.4755172,0.0491555556 Z M9.37582759,0.801733333 L12.4491724,0.801733333 L9.37582759,6.59151111 L9.37582759,0.801733333 L9.37582759,0.801733333 Z M9.37582759,14.2196444 L12.5838621,14.2196444 L9.37582759,20.2636 L9.37582759,14.2196444 L9.37582759,14.2196444 Z M0.900310345,0.801733333 L4.11827586,0.801733333 L0.9,6.86466667 L0.900310345,0.801733333 L0.900310345,0.801733333 Z M0.899689655,14.2196444 L4.25327586,14.2196444 L0.89937931,20.5383111 L0.899689655,14.2196444 L0.899689655,14.2196444 Z M8.62510345,27.1736889 L0.899068966,27.1531556 L0.899068966,25.7488 L8.62510345,25.7488 L8.62510345,27.1736889 L8.62510345,27.1736889 Z M8.62510345,24.9962222 L0.899068966,24.9962222 L0.89937931,22.1343111 L4.79793103,14.7892889 L8.53975862,21.8384444 L8.52268966,21.8704889 L8.57017241,21.8956889 L8.62510345,21.9989778 L8.62510345,24.9962222 L8.62510345,24.9962222 Z M8.62510345,20.4032889 L5.34289655,14.2196444 L8.62510345,14.2196444 L8.62510345,20.4032889 L8.62510345,20.4032889 Z M8.62510345,13.4670667 L0.899689655,13.4670667 L0.899689655,12.0764 L8.62510345,12.0764 L8.62510345,13.4670667 L8.62510345,13.4670667 Z M8.62510345,11.3238222 L0.899689655,11.3238222 L0.9,8.46066667 L4.79793103,1.11688889 L8.53975862,8.16604444 L8.52268966,8.19808889 L8.57017241,8.22328889 L8.62510345,8.32657778 L8.62510345,11.3238222 L8.62510345,11.3238222 Z M8.62510345,6.73088889 L5.47789655,0.801733333 L8.62510345,0.801733333 L8.62510345,6.73088889 L8.62510345,6.73088889 Z M17.0307931,27.1964 L9.37551724,27.1758667 L9.37551724,25.7488 L17.0345172,25.7488 L17.0307931,27.1964 L17.0307931,27.1964 Z M17.0363793,24.9962222 L9.37582759,24.9962222 L9.37582759,21.8854222 L9.40406897,21.8704889 L9.387,21.8384444 L13.1288276,14.7892889 L17.0441379,22.1654222 L17.0363793,24.9962222 L17.0363793,24.9962222 Z M17.0478621,20.5775111 L13.6734828,14.2196444 L17.0646207,14.2196444 L17.0478621,20.5775111 L17.0478621,20.5775111 Z M17.0664828,13.4670667 L9.37582759,13.4670667 L9.37582759,12.0764 L17.0702069,12.0764 L17.0664828,13.4670667 L17.0664828,13.4670667 Z M17.072069,11.3238222 L9.37582759,11.3238222 L9.37582759,8.21333333 L9.40406897,8.1984 L9.387,8.16635556 L13.1285172,1.11688889 L17.0745517,8.55088889 L17.0792069,8.5484 L17.072069,11.3238222 L17.072069,11.3238222 Z M17.0832414,6.97168889 L13.8081724,0.801733333 L17.099069,0.801733333 L17.0832414,6.97168889 L17.0832414,6.97168889 Z" id="Shape"></path>
            </g>
            <g id="Group" transform="translate(144.000000, 121.000000)" fill="#4A4A4A">
                <path d="M25.6990099,13.6135593 C25.7821782,13.0711864 25.809901,12.5288136 25.809901,11.959322 C25.809901,5.45084746 20.4039604,0.162711864 13.750495,0.162711864 C7.0970297,0.162711864 1.69108911,5.45084746 1.69108911,11.959322 C1.69108911,12.6915254 1.77425743,13.4237288 1.88514851,14.1288136 L0.166336634,15.8644068 L27.8891089,15.8644068 L25.6990099,13.6135593 L25.6990099,13.6135593 Z M2.13465347,15.0508475 L2.13465347,15.0508475 L2.13465347,15.0508475 L2.4950495,14.6440678 L3.6039604,14.6440678 C3.74257426,14.6440678 3.88118812,14.5355932 3.88118812,14.3728814 C3.88118812,14.2101695 3.77029703,14.1016949 3.6039604,14.1016949 L3.02178218,14.1016949 L4.01980198,13.0983051 L4.90693069,13.0983051 C5.04554455,13.0983051 5.18415842,12.9898305 5.18415842,12.8271186 C5.18415842,12.6644068 5.07326733,12.5559322 4.90693069,12.5559322 L4.54653465,12.5559322 L5.15643564,11.9322034 L8.20594059,15.0237288 L2.13465347,15.0237288 L2.13465347,15.0508475 Z M5.15643564,10.7932203 L2.60594059,13.3966102 C2.55049505,12.9355932 2.4950495,12.4474576 2.4950495,11.959322 C2.4950495,8.81355932 3.85346535,5.96610169 6.04356436,3.95932203 C6.07128713,3.98644068 6.12673267,3.98644068 6.18217822,3.98644068 L6.62574257,3.98644068 C6.76435644,3.98644068 6.9029703,3.8779661 6.9029703,3.71525424 C6.9029703,3.57966102 6.79207921,3.4440678 6.62574257,3.4440678 L6.62574257,3.4440678 C8.56633663,1.87118644 11.0613861,0.949152542 13.750495,0.949152542 C15.2475248,0.949152542 16.6891089,1.24745763 17.9920792,1.76271186 C17.9643564,1.81694915 17.9366337,1.87118644 17.9366337,1.92542373 C17.9366337,2.06101695 18.0475248,2.19661017 18.2138614,2.19661017 L18.4910891,2.19661017 C18.5742574,2.19661017 18.6574257,2.14237288 18.7128713,2.08813559 C20.4316832,2.92881356 21.9287129,4.17627119 23.009901,5.7220339 L22.8712871,5.7220339 C22.7326733,5.7220339 22.5940594,5.83050847 22.5940594,5.99322034 C22.5940594,6.1559322 22.7049505,6.26440678 22.8712871,6.26440678 L23.370297,6.26440678 C24.4237624,7.91864407 25.0059406,9.89830508 25.0059406,11.9864407 C25.0059406,12.2847458 24.9782178,12.5830508 24.9782178,12.8813559 L21.3465347,9.16610169 L18.5465347,12.0135593 L14.3049505,7.70169492 L8.20594059,13.9118644 L5.15643564,10.7932203 L5.15643564,10.7932203 Z M9.34257426,15.0508475 L8.78811881,14.4813559 L9.48118812,13.7762712 L9.50891089,13.7762712 L11.2277228,13.7762712 C11.3663366,13.7762712 11.5049505,13.6677966 11.5049505,13.5050847 C11.5049505,13.3423729 11.3940594,13.2338983 11.2277228,13.2338983 L10.0079208,13.2338983 L11.1722772,12.040678 L12.4475248,12.040678 C12.5861386,12.040678 12.7247525,11.9322034 12.7247525,11.7694915 C12.7247525,11.6338983 12.6138614,11.4983051 12.4475248,11.4983051 L11.6990099,11.4983051 L12.6138614,10.5762712 L13.5564356,10.5762712 C13.6950495,10.5762712 13.8336634,10.4677966 13.8336634,10.3050847 C13.8336634,10.1423729 13.7227723,10.0338983 13.5564356,10.0338983 L13.1405941,10.0338983 L14.3326733,8.84067797 L20.4316832,15.0237288 L9.34257426,15.0237288 L9.34257426,15.0508475 Z M21.5405941,15.0508475 L19.239604,12.7186441 L20.5425743,12.7186441 C20.6811881,12.7186441 20.819802,12.6101695 20.819802,12.4474576 C20.819802,12.3118644 20.7089109,12.1762712 20.5425743,12.1762712 L19.5168317,12.1762712 L20.4594059,11.2271186 L21.0693069,11.2271186 C21.2079208,11.2271186 21.3465347,11.1186441 21.3465347,10.9559322 C21.3465347,10.820339 21.2356436,10.6847458 21.0693069,10.6847458 L20.9861386,10.6847458 L21.3465347,10.3322034 L26.0039604,15.0508475 L21.5405941,15.0508475 L21.5405941,15.0508475 Z" id="Shape"></path>
                <path d="M8.20594059,5.7220339 L7.73465347,5.7220339 C7.5960396,5.7220339 7.45742574,5.83050847 7.45742574,5.99322034 C7.45742574,6.1559322 7.56831683,6.26440678 7.73465347,6.26440678 L8.20594059,6.26440678 C8.34455446,6.26440678 8.48316832,6.1559322 8.48316832,5.99322034 C8.48316832,5.83050847 8.37227723,5.7220339 8.20594059,5.7220339 L8.20594059,5.7220339 Z" id="Shape"></path>
                <path d="M9.75841584,6.53559322 L9.34257426,6.53559322 C9.2039604,6.53559322 9.06534653,6.6440678 9.06534653,6.80677966 C9.06534653,6.96949153 9.17623762,7.0779661 9.34257426,7.0779661 L9.75841584,7.0779661 C9.8970297,7.0779661 10.0356436,6.96949153 10.0356436,6.80677966 C10.0356436,6.6440678 9.8970297,6.53559322 9.75841584,6.53559322 L9.75841584,6.53559322 Z" id="Shape"></path>
                <path d="M12.6415842,4.20338983 L12.1425743,4.20338983 C12.0039604,4.20338983 11.8653465,4.31186441 11.8653465,4.47457627 C11.8653465,4.61016949 11.9762376,4.74576271 12.1425743,4.74576271 L12.6415842,4.74576271 C12.780198,4.74576271 12.9188119,4.63728814 12.9188119,4.47457627 C12.8910891,4.33898305 12.780198,4.20338983 12.6415842,4.20338983 L12.6415842,4.20338983 Z" id="Shape"></path>
                <path d="M22.8712871,8.16271186 L23.5089109,8.16271186 C23.6475248,8.16271186 23.7861386,8.05423729 23.7861386,7.89152542 C23.7861386,7.7559322 23.6752475,7.62033898 23.5089109,7.62033898 L22.8712871,7.62033898 C22.7326733,7.62033898 22.5940594,7.72881356 22.5940594,7.89152542 C22.5940594,8.05423729 22.7326733,8.16271186 22.8712871,8.16271186 L22.8712871,8.16271186 Z" id="Shape"></path>
                <path d="M5.68316832,7.89152542 L5.32277228,7.89152542 C5.18415842,7.89152542 5.04554455,8 5.04554455,8.16271186 C5.04554455,8.32542373 5.15643564,8.43389831 5.32277228,8.43389831 L5.68316832,8.43389831 C5.82178218,8.43389831 5.96039604,8.32542373 5.96039604,8.16271186 C5.96039604,8 5.82178218,7.89152542 5.68316832,7.89152542 L5.68316832,7.89152542 Z" id="Shape"></path>
                <path d="M11.2277228,8.13559322 L10.6732673,8.13559322 C10.5346535,8.13559322 10.3960396,8.2440678 10.3960396,8.40677966 C10.3960396,8.54237288 10.5069307,8.6779661 10.6732673,8.6779661 L11.2277228,8.6779661 C11.3663366,8.6779661 11.5049505,8.56949153 11.5049505,8.40677966 C11.5049505,8.2440678 11.3940594,8.13559322 11.2277228,8.13559322 L11.2277228,8.13559322 Z" id="Shape"></path>
                <path d="M17.2712871,3.17288136 L17.8257426,3.17288136 C17.9643564,3.17288136 18.1029703,3.06440678 18.1029703,2.90169492 C18.1029703,2.76610169 17.9920792,2.63050847 17.8257426,2.63050847 L17.2712871,2.63050847 C17.1326733,2.63050847 16.9940594,2.73898305 16.9940594,2.90169492 C16.9940594,3.03728814 17.1326733,3.17288136 17.2712871,3.17288136 L17.2712871,3.17288136 Z" id="Shape"></path>
            </g>
            <g id="Group" transform="translate(102.000000, 158.000000)" fill="#4A4A4A">
                <path d="M23.5255934,0.44275 C23.6707143,0.499235294 23.7647363,0.635882353 23.7647363,0.790117647 C23.7647363,0.943 23.6703736,1.07964706 23.5255934,1.13613235 C23.1413297,1.28326471 22.8105495,1.54438235 22.5775385,1.87551471 C22.3441868,2.208 22.2082637,2.60914706 22.2082637,3.04547059 C22.2082637,3.48213235 22.3445275,3.88429412 22.5775385,4.21711765 C22.8108901,4.54825 23.139967,4.80801471 23.5255934,4.9565 C23.6707143,5.01129412 23.7647363,5.14963235 23.7647363,5.30251471 C23.7647363,5.45539706 23.6703736,5.59339706 23.5255934,5.64852941 C23.2115055,5.77029412 22.8691429,5.83557353 22.5114505,5.83557353 C21.7367912,5.83557353 21.0323077,5.52372059 20.5254066,5.01873529 C20.0168022,4.51544118 19.7013516,3.81597059 19.7013516,3.04513235 C19.7013516,1.50379412 20.9590659,0.255029412 22.5114505,0.255029412 C22.8691429,0.255367647 23.2115055,0.322338235 23.5255934,0.44275 L23.5255934,0.44275 Z M21.9643516,1.45069118 C22.0781319,1.28732353 22.2096264,1.13748529 22.3561099,1.00388235 C21.8492088,1.04108824 21.3930659,1.26094118 21.0534286,1.59782353 C20.6793846,1.96920588 20.4490989,2.47994118 20.4490989,3.04547059 C20.4490989,3.61269118 20.6793846,4.12207353 21.0534286,4.49480882 C21.3930659,4.83033824 21.8475055,5.05019118 22.3544066,5.08739706 C22.2092857,4.95379412 22.0777912,4.80361765 21.964011,4.64194118 C21.6454945,4.19039706 21.4584725,3.63805882 21.4601758,3.04580882 C21.4588132,2.45457353 21.6454945,1.90223529 21.9643516,1.45069118 L21.9643516,1.45069118 Z" id="Shape"></path>
                <path d="M15.7037143,13.8378824 L15.7037143,13.8453235 L15.7037143,22.0022059 L21.4288352,22.0022059 L21.4288352,21.5239412 C21.4288352,21.3189706 21.5964396,21.1525588 21.8028791,21.1525588 C22.0093187,21.1525588 22.1769231,21.3189706 22.1769231,21.5239412 L22.1769231,22.0022059 L22.7451429,22.0022059 L22.7451429,21.1721765 C22.7451429,20.9672059 22.9127473,20.8007941 23.1191868,20.8007941 C23.3256264,20.8007941 23.4932308,20.9672059 23.4932308,21.1721765 L23.4932308,22.0022059 L25.9834505,22.0022059 L19.1675385,12.4764853 C19.160044,12.4676912 19.1525495,12.4585588 19.1467582,12.4484118 L15.7037143,7.63701471 L15.7037143,13.8334853 L15.7037143,13.8378824 L15.7037143,13.8378824 Z M25.3246154,14.2315882 C25.310989,14.2403824 25.2977033,14.2495147 25.2840769,14.2569559 C25.2690879,14.2643971 25.2558022,14.2718382 25.2408132,14.2775882 C25.2258242,14.2836765 25.2108352,14.2880735 25.1944835,14.2924706 C25.1794945,14.2968676 25.1645055,14.2999118 25.1481538,14.3012647 C25.1331648,14.3026176 25.1168132,14.3043088 25.1018242,14.3043088 C25.0912637,14.3043088 25.0793407,14.3043088 25.0687802,14.3029559 C25.0582198,14.3029559 25.048,14.3016029 25.0374396,14.2985588 C25.0285824,14.2972059 25.018022,14.2955147 25.0091648,14.2924706 C25.0003077,14.2911176 24.9911099,14.2880735 24.9822527,14.2850294 C24.9686264,14.2819853 24.9553407,14.2762353 24.9434176,14.2701471 C24.9314945,14.2640588 24.9209341,14.2583088 24.9103736,14.2522206 C24.890956,14.2417353 24.8729011,14.2285441 24.8579121,14.2150147 C24.8442857,14.2045294 24.8323626,14.1926912 24.8221429,14.1795 C24.8146484,14.1734118 24.8085165,14.1659706 24.8040879,14.1571765 C24.7921648,14.1436471 24.7816044,14.1291029 24.7741099,14.1125294 C24.7652527,14.0976471 24.7577582,14.0814118 24.7516264,14.0651765 C24.7471978,14.0533382 24.7427692,14.0398088 24.7397033,14.0266176 C24.7352747,14.0117353 24.7322088,13.9968529 24.7308462,13.9806176 C24.7294835,13.9643824 24.7277802,13.9495 24.7277802,13.9332647 C24.7277802,13.9126324 24.7291429,13.8903088 24.7339121,13.8693382 C24.7383407,13.8426176 24.7458352,13.8158971 24.7563956,13.7905294 C24.7638901,13.7742941 24.7713846,13.7594118 24.7802418,13.7445294 C24.7846703,13.7370882 24.7890989,13.7282941 24.7952308,13.7208529 C24.7952308,13.7195 24.7952308,13.7195 24.7965934,13.7178088 C24.8027253,13.7090147 24.8102198,13.6998824 24.8173736,13.6910882 C24.8681319,13.63325 24.9117363,13.5693235 24.9461429,13.5023529 C25.0255165,13.3582647 25.0687802,13.1948971 25.0687802,13.0196912 C25.0687802,12.7332059 24.9522747,12.4778382 24.7635495,12.2891029 C24.5734615,12.1020588 24.3162637,11.9860441 24.0277253,11.9860441 C23.8587582,11.9860441 23.7017143,12.0246029 23.561022,12.0959706 C23.5146923,12.1196471 23.4697253,12.1463676 23.4278242,12.1761324 C23.2574945,12.2948529 23.1242967,12.4643088 23.0524176,12.6618382 C22.9805385,12.8532794 22.7652418,12.9513676 22.5707253,12.88 C22.3779121,12.8103235 22.2791209,12.5962206 22.351,12.4034265 C22.4722747,12.0783824 22.6858681,11.7976471 22.9611209,11.5957206 L22.9611209,11.5943676 C22.8579011,11.3376471 22.6889341,11.1133971 22.475,10.9408971 C22.1953187,10.7166471 21.841033,10.5830441 21.452,10.5830441 C21.0002857,10.5830441 20.5966044,10.7626471 20.3005714,11.0565735 C20.023956,11.3329118 19.8474945,11.7026029 19.825011,12.1169412 L26.8994835,22.0022059 L27.5651319,22.0022059 L27.5651319,20.8752059 C27.5651319,20.6702353 27.7327363,20.5038235 27.9391758,20.5038235 C28.1456154,20.5038235 28.3132198,20.6702353 28.3132198,20.8752059 L28.3132198,22.0022059 L28.8725824,22.0022059 L28.8725824,21.3754559 C28.8725824,21.1704853 29.0401868,21.0040735 29.2466264,21.0040735 C29.4530659,21.0040735 29.6206703,21.1704853 29.6206703,21.3754559 L29.6206703,22.0022059 L30.2863187,22.0022059 C30.4927582,22.0022059 30.6603626,22.1686176 30.6603626,22.3735882 C30.6603626,22.5785588 30.4927582,22.7449706 30.2863187,22.7449706 L29.246967,22.7449706 L27.9398571,22.7449706 L23.1195275,22.7449706 L21.8035604,22.7449706 L15.330011,22.7449706 L12.1727802,22.7449706 L8.6162967,22.7449706 L3.42669231,22.7449706 L2.3049011,22.7449706 L0.374384615,22.7449706 C0.167945055,22.7449706 0.000340659341,22.5785588 0.000340659341,22.3735882 C0.000340659341,22.1686176 0.167945055,22.0022059 0.374384615,22.0022059 L0.809747253,22.0022059 L0.809747253,20.3793529 C0.809747253,20.1743824 0.977351648,20.0079706 1.18379121,20.0079706 C1.39023077,20.0079706 1.55783516,20.1743824 1.55783516,20.3793529 L1.55783516,22.0022059 L1.93187912,22.0022059 L1.93187912,21.5523529 C1.93187912,21.3473824 2.09948352,21.1809706 2.30592308,21.1809706 C2.51236264,21.1809706 2.67996703,21.3473824 2.67996703,21.5523529 L2.67996703,22.0022059 L3.05401099,22.0022059 L3.05401099,20.8765588 C3.05401099,20.6715882 3.22161538,20.5051765 3.42805495,20.5051765 C3.63449451,20.5051765 3.8020989,20.6715882 3.8020989,20.8765588 L3.8020989,21.9426765 L10.3465055,12.7984853 C10.2208022,12.4524706 9.99801099,12.1511029 9.71083516,11.9282059 C9.37869231,11.6714853 8.96615385,11.5182647 8.51137363,11.5182647 C8.36489011,11.5182647 8.2241978,11.5361912 8.08963736,11.5642647 L8.08657143,11.5642647 C8.08486813,11.5642647 8.08214286,11.5656176 8.08043956,11.5656176 C8.07805495,11.5676471 8.07635165,11.5676471 8.07498901,11.5676471 C8.07362637,11.569 8.07192308,11.569 8.07056044,11.569 L8.06749451,11.569 C8.06442857,11.569 8.06306593,11.5703529 8.06,11.5703529 C8.05863736,11.5703529 8.05693407,11.5703529 8.05557143,11.5717059 C7.73705495,11.6474706 7.44987912,11.8003529 7.2120989,12.0110735 C7.05812088,12.1477206 6.8217033,12.1341912 6.68407692,11.9813088 C6.54645055,11.8284265 6.56007692,11.5936912 6.71405495,11.4570441 C6.92049451,11.2730441 7.15657143,11.1215147 7.41410989,11.0071912 C7.20937363,10.7338971 6.95183516,10.4995 6.65750549,10.3195588 C6.23713187,10.0625 5.74385714,9.91401471 5.21276923,9.91401471 C4.59208791,9.91401471 4.02216484,10.1159412 3.56159341,10.4589118 C3.19231868,10.7335588 2.89321978,11.1005441 2.70176923,11.5219853 C3.14598901,11.7283088 3.53025275,12.0432059 3.82185714,12.4291324 C4.18976923,12.9192353 4.40813187,13.5294118 4.40813187,14.1872794 C4.40813187,14.6831324 4.28413187,15.1526029 4.06576923,15.5638971 C3.97004396,15.7451912 3.74282418,15.8148676 3.56023077,15.7184706 C3.37763736,15.6234265 3.30746154,15.3991765 3.40454945,15.2165294 C3.56772527,14.9090735 3.66038462,14.5603529 3.66038462,14.1876176 C3.66038462,13.6931176 3.49720879,13.2402206 3.2222967,12.8735735 C2.94738462,12.5069265 2.55835165,12.2275441 2.108,12.0881912 L2.10663736,12.0868382 C1.9001978,12.0215588 1.67604396,11.9857059 1.44269231,11.9857059 C1.11531868,11.9857059 0.807021978,12.0553824 0.529043956,12.1818824 C0.340659341,12.2664412 0.119230769,12.1832353 0.0340659341,11.9978824 C-0.0510989011,11.8108382 0.0327032967,11.5909853 0.219384615,11.5064265 C0.591725275,11.3373088 1.00767033,11.2436176 1.44269231,11.2436176 C1.62801099,11.2436176 1.80924176,11.2598529 1.9857033,11.2940147 C2.22791209,10.72375 2.62137363,10.2322941 3.11328571,9.86564706 C3.6981978,9.43067647 4.42652747,9.17226471 5.21310989,9.17226471 C5.88454945,9.17226471 6.51715385,9.361 7.05130769,9.68908824 C7.50608791,9.96813235 7.89171429,10.3469559 8.17752747,10.7968088 C8.28653846,10.7832794 8.39725275,10.7761765 8.51103297,10.7761765 C9.13614286,10.7761765 9.71356044,10.9885882 10.1710659,11.3433971 C10.4401868,11.5527647 10.6677473,11.8111765 10.8411429,12.1067941 L14.8718242,6.4745 L14.180967,5.50782353 C14.0613956,5.34141176 14.1002308,5.10972059 14.2691978,4.991 C14.4368022,4.87227941 14.6701538,4.91083824 14.7897253,5.07860294 L15.331033,5.83455882 L15.870978,5.07860294 C15.9905495,4.91083824 16.2239011,4.87227941 16.3915055,4.991 C16.5604725,5.10972059 16.5993077,5.34141176 16.4797363,5.50782353 L15.7888791,6.4745 L19.251,11.3139706 C19.3722747,11.0183529 19.5500989,10.7528382 19.7745934,10.5312941 C20.2024615,10.1051176 20.798956,9.84095588 21.454044,9.84095588 C22.0178352,9.84095588 22.5397253,10.0371324 22.9464725,10.3652206 C23.25,10.6073971 23.4908462,10.9236471 23.6448242,11.2858971 C23.7688242,11.2591765 23.8975934,11.2442941 24.0290879,11.2442941 C24.9563626,11.2442941 25.7190989,11.9437647 25.8086923,12.8421176 C26.087011,12.7173088 26.3963297,12.6489853 26.7223407,12.6489853 C26.8494066,12.6489853 26.9737473,12.6594706 27.0946813,12.6801029 C27.0902527,12.6043382 27.0871868,12.5285735 27.0871868,12.4514559 C27.0871868,11.5662941 27.4414725,10.7602794 28.0158242,10.1720882 C28.5901758,9.58254412 29.3886813,9.20541176 30.2726923,9.17564706 C30.4791319,9.16820588 30.6511648,9.32852941 30.6586593,9.5335 C30.6661538,9.73847059 30.5046813,9.91063235 30.2982418,9.91807353 C29.6131758,9.94175 28.999989,10.2312794 28.5544066,10.6885735 C28.1088242,11.1458676 27.8349341,11.7651765 27.8349341,12.4511176 C27.8349341,12.6324118 27.8543516,12.8076176 27.8918242,12.9753824 C28.5005824,13.3376324 28.9192527,13.9806176 28.9744396,14.7247353 C28.9894286,14.9297059 28.8337473,15.1062647 28.629011,15.1211471 C28.4225714,15.1360294 28.243044,14.9831471 28.2280549,14.7781765 C28.1892198,14.2407206 27.8615055,13.7803824 27.3978681,13.5500441 L27.3965055,13.5486912 C27.3934396,13.5473382 27.3920769,13.5473382 27.3903736,13.5456471 C27.1900659,13.4462059 26.9625055,13.3910735 26.722,13.3910735 C26.2583626,13.3910735 25.8454835,13.5960441 25.5675055,13.9227794 C25.5661429,13.9241324 25.5661429,13.9241324 25.5661429,13.9258235 C25.560011,13.9319118 25.5555824,13.9363088 25.5511538,13.9420588 L25.5497912,13.9434118 C25.5034615,13.9982059 25.4615604,14.0577353 25.4240879,14.1216618 C25.4152308,14.1365441 25.406033,14.1497353 25.3958132,14.1632647 C25.386956,14.17375 25.3794615,14.1838971 25.3702637,14.1930294 C25.3689011,14.1943824 25.3671978,14.1960735 25.3658352,14.1974265 C25.3515275,14.2092647 25.3382418,14.2211029 25.3246154,14.2315882 L25.3246154,14.2315882 Z M14.955967,22.0022059 L14.955967,15.9197206 L12.7082967,22.0022059 L14.955967,22.0022059 L14.955967,22.0022059 Z M14.955967,13.7042794 L14.955967,7.63566176 L11.065978,13.0717794 C11.0615495,13.0805735 11.0554176,13.0897059 11.0479231,13.0971471 L4.67554945,22.0022059 L8.43540659,22.0022059 L14.955967,13.7042794 L14.955967,13.7042794 Z M11.9125165,22.0022059 L14.1574615,15.9275 L9.3820989,22.0022059 L11.9125165,22.0022059 L11.9125165,22.0022059 Z" id="Shape"></path>
            </g>
            <g id="Group" transform="translate(145.000000, 35.000000)" fill="#4A4A4A">
                <path d="M12.8614316,22.0653333 L12.8776421,22.0584598 L9.30189474,13.6326667 C9.52412632,13.7196322 9.76021053,13.7698391 10.0016,13.7698391 C10.2574316,13.7698391 10.5176842,13.7184368 10.7673263,13.6096552 C11.2448,13.4013563 11.6135158,13.0173333 11.8056842,12.5278161 C11.8616842,12.3849655 11.8988211,12.237931 11.9209263,12.0897011 C12.0420632,12.1748736 12.1702737,12.2507816 12.3105684,12.3075632 C12.5437053,12.4017011 12.7871579,12.4486207 13.0303158,12.4486207 C13.2911579,12.4486207 13.5517053,12.3948276 13.7984,12.2869425 C14.2758737,12.0789425 14.6445895,11.6949195 14.8367579,11.2057011 C15.0289263,10.7164828 15.0218526,10.1803448 14.8167158,9.69650575 L14.8167158,9.69650575 C13.3480421,6.23671264 9.43334737,4.59243678 5.99789474,5.94114943 C5.95663158,5.84013793 5.85877895,5.76871264 5.74412632,5.76871264 C5.59233684,5.76871264 5.46913684,5.89363218 5.46913684,6.04754023 C5.46913684,6.09117241 5.48092632,6.13091954 5.49831579,6.16737931 C3.93503158,6.92795402 2.72366316,8.22944828 2.07818947,9.87282759 C1.39675789,11.6073563 1.4224,13.5074483 2.1504,15.2228506 L2.1504,15.2228506 C2.35553684,15.7063908 2.73456842,16.0802529 3.21705263,16.2751034 C3.45018947,16.3689425 3.69364211,16.4161609 3.9368,16.4161609 C4.19764211,16.4161609 4.45848421,16.362069 4.70517895,16.2544828 C5.18235789,16.0464828 5.55107368,15.6624598 5.74324211,15.1732414 C5.79924211,15.030092 5.83637895,14.8833563 5.85848421,14.7351264 C5.97962105,14.82 6.10783158,14.895908 6.24812632,14.9526897 C6.48126316,15.0465287 6.72471579,15.0937471 6.96816842,15.0937471 C7.22901053,15.0937471 7.48955789,15.039954 7.73595789,14.9323678 C8.21991579,14.7210805 8.57536842,14.3325747 8.76252632,13.8741379 L12.2386526,22.0656322 L0,22.0656322 L0,22.6633333 L27.7544842,22.6633333 L27.7544842,22.0656322 L12.8614316,22.0656322 L12.8614316,22.0653333 Z M5.54311579,13.2268276 C4.69073684,11.0873563 3.82008421,7.85349425 5.72821053,6.72354023 L8.02804211,12.1428966 L5.54311579,13.2268276 L5.54311579,13.2268276 Z M8.56917895,11.9065057 L6.27023158,6.48894253 C7.11612632,6.23312644 7.94374737,6.4982069 8.79141053,7.30390805 C9.58307368,8.05671264 10.3420211,9.24285057 11.0523368,10.8234713 L8.56917895,11.9065057 L8.56917895,11.9065057 Z M11.2577684,12.3069655 C11.1239579,12.647954 10.8669474,12.9154253 10.5341895,13.0606667 C9.88665263,13.3430805 9.14421053,13.0669425 8.81381053,12.4507126 L11.2810526,11.3742529 C11.3794947,11.6793793 11.3762526,12.0051264 11.2577684,12.3069655 L11.2577684,12.3069655 Z M14.2891368,10.983954 C14.1550316,11.3249425 13.8980211,11.5927126 13.5652632,11.7376552 C13.2330947,11.8825977 12.8646737,11.887977 12.5283789,11.752 C12.2306947,11.6318621 11.9952,11.4101149 11.8445895,11.1282989 L14.3124211,10.0515402 C14.4111579,10.3566667 14.4076211,10.6824138 14.2891368,10.983954 L14.2891368,10.983954 Z M14.0683789,9.50733333 L11.5934737,10.5870805 C10.8492632,8.92875862 10.0437474,7.67537931 9.19431579,6.86788506 C8.83355789,6.5248046 8.46837895,6.2648046 8.09966316,6.08549425 C10.5285895,5.93845977 12.9000421,7.23248276 14.0683789,9.50733333 L14.0683789,9.50733333 Z M2.62551579,10.0936782 C2.97890526,9.19383908 3.52181053,8.40905747 4.20324211,7.77071264 C3.76909474,9.1011954 4.03524211,11.035954 5.00463158,13.4617241 L2.52766316,14.5423678 C2.03250526,13.0938391 2.06050526,11.5323448 2.62551579,10.0936782 L2.62551579,10.0936782 Z M5.19532632,14.9517931 C5.06122105,15.2927816 4.80450526,15.5602529 4.47174737,15.7051954 C4.13957895,15.8507356 3.77086316,15.8561149 3.43456842,15.7198391 C3.13717895,15.6 2.90138947,15.377954 2.75077895,15.0958391 L5.21861053,14.0190805 C5.31734737,14.3242069 5.31410526,14.649954 5.19532632,14.9517931 L5.19532632,14.9517931 Z M7.50311579,14.3827816 C7.17065263,14.5277241 6.80223158,14.5331034 6.46623158,14.3971264 C6.16854737,14.2772874 5.93305263,14.0552414 5.78244211,13.7734253 L8.24968421,12.6966667 C8.46366316,13.364 8.15065263,14.1003678 7.50311579,14.3827816 L7.50311579,14.3827816 Z" id="Shape"></path>
                <path d="M22.1544842,7.72050575 C23.7254316,7.72050575 25.0037053,6.42468966 25.0037053,4.83151724 C25.0037053,3.23834483 23.7254316,1.94252874 22.1544842,1.94252874 C20.5835368,1.94252874 19.3052632,3.23834483 19.3052632,4.83151724 C19.3052632,6.42468966 20.5835368,7.72050575 22.1544842,7.72050575 L22.1544842,7.72050575 Z M22.1544842,2.54022989 C23.4006316,2.54022989 24.4142316,3.56797701 24.4142316,4.83151724 C24.4142316,6.09505747 23.4006316,7.1228046 22.1544842,7.1228046 C20.9083368,7.1228046 19.8947368,6.09505747 19.8947368,4.83151724 C19.8947368,3.56797701 20.9083368,2.54022989 22.1544842,2.54022989 L22.1544842,2.54022989 Z" id="Shape"></path>
                <path d="M25.8386947,5.17997701 L26.4281684,5.17997701 C26.5911579,5.17997701 26.7229053,5.04609195 26.7229053,4.88112644 C26.7229053,4.71616092 26.5911579,4.58227586 26.4281684,4.58227586 L25.8386947,4.58227586 C25.6757053,4.58227586 25.5439579,4.71616092 25.5439579,4.88112644 C25.5439579,5.04609195 25.6757053,5.17997701 25.8386947,5.17997701 L25.8386947,5.17997701 Z" id="Shape"></path>
                <path d="M17.8808,5.17997701 L18.4702737,5.17997701 C18.6332632,5.17997701 18.7650105,5.04609195 18.7650105,4.88112644 C18.7650105,4.71616092 18.6332632,4.58227586 18.4702737,4.58227586 L17.8808,4.58227586 C17.7178105,4.58227586 17.5860632,4.71616092 17.5860632,4.88112644 C17.5860632,5.04609195 17.7178105,5.17997701 17.8808,5.17997701 L17.8808,5.17997701 Z" id="Shape"></path>
                <path d="M22.1544842,1.44434483 C22.3174737,1.44434483 22.4492211,1.31045977 22.4492211,1.14549425 L22.4492211,0.547793103 C22.4492211,0.382827586 22.3174737,0.248942529 22.1544842,0.248942529 C21.9914947,0.248942529 21.8597474,0.382827586 21.8597474,0.547793103 L21.8597474,1.14549425 C21.8597474,1.31045977 21.9914947,1.44434483 22.1544842,1.44434483 L22.1544842,1.44434483 Z" id="Shape"></path>
                <path d="M21.8597474,8.61675862 L21.8597474,9.21445977 C21.8597474,9.37942529 21.9914947,9.51331034 22.1544842,9.51331034 C22.3174737,9.51331034 22.4492211,9.37942529 22.4492211,9.21445977 L22.4492211,8.61675862 C22.4492211,8.4517931 22.3174737,8.31790805 22.1544842,8.31790805 C21.9914947,8.31790805 21.8597474,8.4517931 21.8597474,8.61675862 L21.8597474,8.61675862 Z" id="Shape"></path>
                <path d="M24.7596632,2.53873563 C24.8351158,2.53873563 24.9105684,2.50944828 24.9680421,2.45117241 L25.3848,2.02829885 C25.5000421,1.91144828 25.5000421,1.72227586 25.3848,1.60542529 C25.2695579,1.48887356 25.0832842,1.48887356 24.9680421,1.60542529 L24.5512842,2.02829885 C24.4360421,2.14514943 24.4360421,2.33432184 24.5512842,2.45117241 C24.6087579,2.50944828 24.6842105,2.53873563 24.7596632,2.53873563 L24.7596632,2.53873563 Z" id="Shape"></path>
                <path d="M19.3409263,7.31137931 L18.9241684,7.73395402 C18.8089263,7.8508046 18.8089263,8.03967816 18.9241684,8.15652874 C18.9816421,8.2148046 19.0570947,8.24409195 19.1325474,8.24409195 C19.208,8.24409195 19.2834526,8.2148046 19.3409263,8.15652874 L19.7576842,7.73395402 C19.8729263,7.61710345 19.8729263,7.42822989 19.7576842,7.31137931 C19.6424421,7.19452874 19.4561684,7.19452874 19.3409263,7.31137931 L19.3409263,7.31137931 Z" id="Shape"></path>
                <path d="M19.3406316,2.45087356 C19.3981053,2.50914943 19.4735579,2.53843678 19.5490105,2.53843678 C19.6244632,2.53843678 19.6999158,2.50914943 19.7573895,2.45087356 C19.8726316,2.33402299 19.8726316,2.14514943 19.7573895,2.02829885 L19.3406316,1.60572414 C19.2253895,1.48887356 19.0391158,1.48887356 18.9238737,1.60572414 C18.8086316,1.72257471 18.8086316,1.91144828 18.9238737,2.02829885 L19.3406316,2.45087356 L19.3406316,2.45087356 Z" id="Shape"></path>
                <path d="M24.9677474,7.31108046 C24.8525053,7.19422989 24.6662316,7.19422989 24.5509895,7.31108046 C24.4357474,7.42793103 24.4357474,7.6168046 24.5509895,7.73365517 L24.9677474,8.15622989 C25.0252211,8.21450575 25.1006737,8.2437931 25.1761263,8.2437931 C25.2515789,8.2437931 25.3270316,8.21450575 25.3845053,8.15622989 C25.4997474,8.03937931 25.4997474,7.85050575 25.3845053,7.73365517 L24.9677474,7.31108046 L24.9677474,7.31108046 Z" id="Shape"></path>
                <rect id="Rectangle-path" x="6.43498947" y="23.6594023" width="5.55107368" height="0.597701149"></rect>
                <rect id="Rectangle-path" x="12.6244632" y="23.6594023" width="11.4944421" height="0.597701149"></rect>
                <rect id="Rectangle-path" x="4.76501053" y="25.3030805" width="15.3752421" height="0.597701149"></rect>
                <rect id="Rectangle-path" x="1.81764211" y="25.3030805" width="1.96471579" height="0.597701149"></rect>
            </g>
            <g id="noun_544908_cc" transform="translate(145.000000, 157.000000)" fill="#4A4A4A">
                <path d="M25.6020408,0 L18.0142857,0 C17.8020408,0 17.6428571,0.159183673 17.6163265,0.371428571 L17.4836735,2.54693878 L16.7673469,2.6 C16.5816327,2.62653061 16.422449,2.75918367 16.3959184,2.94489796 L15.9979592,7.40204082 L12.9204082,9.81632653 L9.55102041,8.64897959 L9.36530612,5.12040816 C9.36530612,4.90816327 9.20612245,4.74897959 8.99387755,4.74897959 L8.06530612,4.69591837 L8.06530612,0.397959184 C8.06530612,0.185714286 7.87959184,0 7.66734694,0 L0.397959184,0 C0.185714286,0 0,0.185714286 0,0.397959184 C0,0.610204082 0.185714286,0.795918367 0.397959184,0.795918367 L7.29591837,0.795918367 L7.29591837,5.04081633 C7.29591837,5.25306122 7.45510204,5.4122449 7.66734694,5.43877551 L8.62244898,5.49183673 L8.80816327,8.94081633 C8.80816327,9.1 8.91428571,9.23265306 9.07346939,9.28571429 L12.8938776,10.6387755 L12.8938776,10.6387755 L12.8938776,10.6387755 L15.7857143,11.5938776 C16.8734694,11.9653061 17.2714286,12.8938776 17.2979592,13.6367347 C17.2979592,14.3795918 16.9265306,15.3346939 15.8387755,15.7326531 L13.6897959,16.5020408 L8.43673469,18.6510204 C7.53469388,19.022449 6.9244898,19.844898 6.87142857,20.8265306 C6.79183673,21.8081633 7.29591837,22.7102041 8.11836735,23.1877551 L12.8142857,25.9204082 C12.8673469,25.9469388 12.9469388,25.9734694 13,25.9734694 C13.1326531,25.9734694 13.2653061,25.8938776 13.344898,25.7877551 C13.4510204,25.6020408 13.3979592,25.3632653 13.2122449,25.2571429 L8.48979592,22.4979592 C7.90612245,22.1530612 7.5877551,21.5428571 7.61428571,20.8530612 C7.66734694,20.1632653 8.06530612,19.6061224 8.70204082,19.3408163 L13.955102,17.2183673 L16.077551,16.4755102 C17.2979592,16.0510204 18.0673469,14.9367347 18.0673469,13.6367347 C18.0408163,12.3367347 17.244898,11.2489796 16.0244898,10.8510204 L16.6877551,10.9040816 C17.9346939,11.0897959 18.9428571,11.7530612 19.4469388,12.7081633 C19.8979592,13.5571429 19.8979592,14.5918367 19.3938776,15.5734694 C19.0755102,16.2367347 18.5714286,16.7673469 17.9346939,17.1122449 L14.9632653,18.8367347 C14.2204082,19.155102 13.7163265,19.844898 13.6632653,20.6408163 C13.6102041,21.4367347 14.0081633,22.2061224 14.6979592,22.6040816 L20.5346939,25.8938776 C20.5877551,25.9204082 20.6673469,25.9469388 20.7204082,25.9469388 C20.8530612,25.9469388 20.9857143,25.8673469 21.0653061,25.7346939 C21.1714286,25.5489796 21.1183673,25.3102041 20.9061224,25.2040816 L15.0693878,21.9142857 C14.6183673,21.6489796 14.3795918,21.1979592 14.4061224,20.6673469 C14.4326531,20.1632653 14.7510204,19.7387755 15.2816327,19.5 L18.3326531,17.7489796 C19.1020408,17.2979592 19.7122449,16.6612245 20.1102041,15.8653061 C20.6938776,14.644898 20.7204082,13.3714286 20.1367347,12.2571429 C19.5,11.0632653 18.3061224,10.2673469 16.7673469,10.055102 L14.0612245,9.94897959 L16.6346939,7.93265306 C16.7142857,7.85306122 16.7673469,7.77346939 16.7938776,7.66734694 L17.1918367,3.36938776 L17.9081633,3.31632653 C18.0938776,3.28979592 18.2530612,3.15714286 18.2795918,2.94489796 L18.3857143,0.795918367 L25.6020408,0.795918367 C25.8142857,0.795918367 26,0.610204082 26,0.397959184 C26,0.185714286 25.8142857,0 25.6020408,0 L25.6020408,0 Z" id="Shape"></path>
                <path d="M12.4959184,11.4081633 C12.4693878,11.2755102 12.3632653,11.1693878 12.2040816,11.1693878 C12.0183673,11.1959184 11.7530612,11.3285714 11.5938776,11.4346939 C11.5673469,11.4346939 11.5673469,11.4081633 11.5408163,11.4081633 C10.9040816,11.1693878 10.7183673,11.3285714 10.6653061,11.4612245 C10.5857143,11.5938776 10.6387755,11.7530612 10.7714286,11.8061224 L10.7714286,11.8061224 C10.7183673,11.8857143 10.6918367,12.0183673 10.7183673,12.1510204 C10.7183673,12.2836735 10.8510204,12.3897959 10.9836735,12.3897959 L11.0102041,12.3897959 C11.0367347,12.3897959 11.0632653,12.3897959 11.0897959,12.3632653 C10.9836735,12.8673469 11.0897959,13.477551 11.1163265,13.5571429 C11.1428571,13.6897959 11.2489796,13.7693878 11.3816327,13.7693878 L11.4346939,13.7693878 C11.5673469,13.7428571 11.6734694,13.6102041 11.6469388,13.4510204 C11.5673469,13.0530612 11.5408163,12.4428571 11.7265306,12.2040816 C11.7530612,12.2571429 11.7530612,12.3102041 11.7530612,12.3632653 C11.7265306,12.4959184 11.8326531,12.6285714 11.9653061,12.655102 L11.9918367,12.655102 C12.1244898,12.655102 12.2306122,12.5489796 12.2571429,12.4428571 L12.2571429,12.2040816 C12.2836735,12.2306122 12.3367347,12.2306122 12.3632653,12.2306122 C12.4428571,12.2306122 12.4959184,12.2040816 12.5489796,12.1510204 C12.655102,12.044898 12.6285714,11.8857143 12.522449,11.7795918 C12.4693878,11.7265306 12.4163265,11.7 12.3367347,11.6469388 C12.4428571,11.6469388 12.522449,11.5408163 12.4959184,11.4081633 L12.4959184,11.4081633 Z" id="Shape"></path>
                <path d="M20.5612245,8.94081633 C20.3489796,8.56938776 19.8714286,8.72857143 19.6857143,8.80816327 C19.5530612,8.72857143 19.3673469,8.64897959 19.2346939,8.62244898 C19.022449,8.59591837 18.8102041,8.75510204 18.7836735,8.96734694 C18.7836735,9.04693878 18.7836735,9.12653061 18.8367347,9.20612245 C18.7040816,9.36530612 18.7040816,9.57755102 18.8367347,9.73673469 C18.8897959,9.78979592 18.9693878,9.81632653 19.022449,9.84285714 L19.022449,9.86938776 C19.0489796,10.055102 19.2081633,10.2142857 19.4204082,10.2142857 L19.4734694,10.2142857 C19.5,10.2142857 19.5265306,10.1877551 19.5530612,10.1877551 C19.5530612,10.3204082 19.5265306,10.4530612 19.5,10.5857143 C19.4469388,10.7979592 19.5795918,11.0102041 19.7918367,11.0632653 L19.8714286,11.0632653 C20.0571429,11.0632653 20.2163265,10.9306122 20.2428571,10.744898 C20.2693878,10.6387755 20.322449,10.2938776 20.2959184,9.94897959 C20.4285714,9.89591837 20.5346939,9.76326531 20.5346939,9.60408163 C20.5346939,9.5244898 20.5346939,9.44489796 20.5081633,9.36530612 C20.6408163,9.25918367 20.6408163,9.1 20.5612245,8.94081633 L20.5612245,8.94081633 Z" id="Shape"></path>
                <path d="M13.6897959,13.344898 C13.7428571,13.3979592 13.822449,13.4244898 13.8755102,13.4244898 C13.9285714,13.4244898 14.0081633,13.3979592 14.0612245,13.3714286 C14.0877551,13.344898 14.1142857,13.3183673 14.1673469,13.2918367 C14.1142857,13.4244898 14.0877551,13.5836735 14.1142857,13.7693878 C14.1408163,13.9020408 14.2469388,13.9816327 14.3795918,13.9816327 L14.4061224,13.9816327 C14.5387755,13.955102 14.644898,13.822449 14.6183673,13.6897959 C14.5918367,13.5306122 14.644898,13.3979592 14.6979592,13.3183673 C15.0959184,13.6367347 14.9632653,14.7244898 14.8836735,15.122449 C14.8571429,15.255102 14.9367347,15.4142857 15.0959184,15.4408163 L15.1489796,15.4408163 C15.2816327,15.4408163 15.3877551,15.3612245 15.4142857,15.2285714 C15.4408163,15.0693878 15.7326531,13.6632653 15.1755102,13.0265306 C15.255102,13.0530612 15.3081633,13.0795918 15.3612245,13.1326531 C15.3877551,13.1591837 15.4142857,13.2122449 15.4142857,13.3183673 C15.4142857,13.4510204 15.5204082,13.5836735 15.6530612,13.6102041 L15.6795918,13.6102041 C15.8122449,13.6102041 15.9183673,13.5040816 15.944898,13.3714286 C15.9714286,13.1326531 15.8918367,12.9734694 15.8122449,12.8673469 C15.8387755,12.8673469 15.8653061,12.8673469 15.8918367,12.8408163 C16.0244898,12.7612245 16.0510204,12.6020408 15.9979592,12.4693878 C15.944898,12.3897959 15.7857143,12.1244898 14.9367347,12.4428571 C14.9102041,12.4428571 14.8836735,12.4693878 14.8571429,12.4959184 C14.6979592,12.3897959 14.3,12.177551 14.0612245,12.1510204 C13.9285714,12.1244898 13.7959184,12.2306122 13.7693878,12.3897959 C13.7428571,12.522449 13.8489796,12.655102 14.0081633,12.6816327 C14.0346939,12.6816327 14.1142857,12.7081633 14.1673469,12.7346939 C14.0346939,12.7877551 13.8755102,12.8673469 13.7428571,12.9734694 C13.6102041,13.0795918 13.6102041,13.2387755 13.6897959,13.344898 L13.6897959,13.344898 Z" id="Shape"></path>
                <ellipse id="Oval" cx="8.27755102" cy="15.6265306" rx="0.344897959" ry="0.344897959"></ellipse>
                <circle id="Oval" cx="20.8795918" cy="18.2265306" r="0.344897959"></circle>
                <ellipse id="Oval" transform="translate(21.058129, 20.710808) rotate(-9.904094) translate(-21.058129, -20.710808) " cx="20.9019368" cy="20.5566722" rx="0.344898996" ry="0.344898996"></ellipse>
                <ellipse id="Oval" cx="17.722449" cy="20.2428571" rx="0.344897959" ry="0.344897959"></ellipse>
                <ellipse id="Oval" cx="11.4346939" cy="15.9714286" rx="0.344897959" ry="0.344897959"></ellipse>
                <ellipse id="Oval" cx="9.28571429" cy="12.7612245" rx="0.344897959" ry="0.344897959"></ellipse>
                <path d="M6.74685004,1.43265306 C6.74685004,1.3 6.63380657,1.16734694 6.46424135,1.16734694 C6.322937,1.16734694 6.18163265,1.27346939 6.18163265,1.43265306 L6.18163265,4.00612245 C6.18163265,4.13877551 6.29467613,4.27142857 6.46424135,4.27142857 C6.6055457,4.27142857 6.74685004,4.16530612 6.74685004,4.00612245 L6.74685004,1.43265306 L6.74685004,1.43265306 Z" id="Shape"></path>
                <path d="M5.60603372,1.43265306 C5.60603372,1.3 5.49299024,1.16734694 5.32342502,1.16734694 C5.18212067,1.16734694 5.04081633,1.27346939 5.04081633,1.43265306 L5.04081633,4.00612245 C5.04081633,4.13877551 5.1538598,4.27142857 5.32342502,4.27142857 C5.46472937,4.27142857 5.60603372,4.16530612 5.60603372,4.00612245 L5.60603372,1.43265306 L5.60603372,1.43265306 Z" id="Shape"></path>
                <path d="M4.43868678,1.43265306 C4.43868678,1.3 4.3256433,1.16734694 4.15607808,1.16734694 C4.01477374,1.16734694 3.87346939,1.27346939 3.87346939,1.43265306 L3.87346939,4.00612245 C3.87346939,4.13877551 3.98651287,4.27142857 4.15607808,4.27142857 C4.29738243,4.27142857 4.43868678,4.16530612 4.43868678,4.00612245 L4.43868678,1.43265306 L4.43868678,1.43265306 Z" id="Shape"></path>
                <path d="M3.01526176,1.19387755 C2.87395741,1.19387755 2.73265306,1.3 2.73265306,1.45918367 L2.73265306,3.31632653 C2.73265306,3.44897959 2.84569654,3.58163265 3.01526176,3.58163265 C3.18482697,3.58163265 3.29787045,3.4755102 3.29787045,3.31632653 L3.29787045,1.45918367 C3.29787045,1.3 3.1565661,1.19387755 3.01526176,1.19387755 L3.01526176,1.19387755 Z" id="Shape"></path>
                <path d="M1.87444543,1.19387755 C1.73314108,1.19387755 1.59183673,1.3 1.59183673,1.45918367 L1.59183673,3.31632653 C1.59183673,3.44897959 1.70488021,3.58163265 1.87444543,3.58163265 C2.04401065,3.58163265 2.15705413,3.4755102 2.15705413,3.31632653 L2.15705413,1.45918367 C2.12879326,1.3 2.01574978,1.19387755 1.87444543,1.19387755 L1.87444543,1.19387755 Z" id="Shape"></path>
                <path d="M19.1989352,3.0244898 C19.3402396,3.0244898 19.4815439,2.91836735 19.4815439,2.75918367 L19.4815439,1.43265306 C19.4815439,1.3 19.3685004,1.16734694 19.1989352,1.16734694 C19.02937,1.16734694 18.9163265,1.27346939 18.9163265,1.43265306 L18.9163265,2.73265306 C18.9163265,2.89183673 19.0576309,3.0244898 19.1989352,3.0244898 L19.1989352,3.0244898 Z" id="Shape"></path>
                <path d="M20.3662822,4.00612245 C20.5075865,4.00612245 20.6488909,3.9 20.6488909,3.74081633 L20.6488909,1.43265306 C20.6488909,1.3 20.5358474,1.16734694 20.3662822,1.16734694 C20.2249778,1.16734694 20.0836735,1.27346939 20.0836735,1.43265306 L20.0836735,3.74081633 C20.0836735,3.87346939 20.1967169,4.00612245 20.3662822,4.00612245 L20.3662822,4.00612245 Z" id="Shape"></path>
                <path d="M21.5070985,1.19387755 C21.3657941,1.19387755 21.2244898,1.3 21.2244898,1.45918367 L21.2244898,3.76734694 C21.2244898,3.9 21.3375333,4.03265306 21.5070985,4.03265306 C21.6484028,4.03265306 21.7897072,3.92653061 21.7897072,3.76734694 L21.7897072,1.43265306 C21.7897072,1.3 21.6766637,1.19387755 21.5070985,1.19387755 L21.5070985,1.19387755 Z" id="Shape"></path>
                <path d="M22.6744454,1.19387755 C22.5331411,1.19387755 22.3918367,1.3 22.3918367,1.45918367 L22.3918367,3.76734694 C22.3918367,3.9 22.5048802,4.03265306 22.6744454,4.03265306 C22.8157498,4.03265306 22.9570541,3.92653061 22.9570541,3.76734694 L22.9570541,1.43265306 C22.9287933,1.3 22.8157498,1.19387755 22.6744454,1.19387755 L22.6744454,1.19387755 Z" id="Shape"></path>
                <path d="M23.8152618,1.19387755 C23.6739574,1.19387755 23.5326531,1.3 23.5326531,1.45918367 L23.5326531,3.76734694 C23.5326531,3.9 23.6456965,4.03265306 23.8152618,4.03265306 C23.9565661,4.03265306 24.0978705,3.92653061 24.0978705,3.76734694 L24.0978705,1.43265306 C24.0978705,1.3 23.984827,1.19387755 23.8152618,1.19387755 L23.8152618,1.19387755 Z" id="Shape"></path>
                <path d="M4.6336291,8.14489796 C4.49232476,8.14489796 4.35102041,8.25102041 4.35102041,8.41020408 L4.35102041,8.70204082 C4.35102041,8.83469388 4.46406389,8.96734694 4.6336291,8.96734694 C4.77493345,8.96734694 4.9162378,8.86122449 4.9162378,8.70204082 L4.9162378,8.41020408 C4.9162378,8.27755102 4.77493345,8.14489796 4.6336291,8.14489796 L4.6336291,8.14489796 Z" id="Shape"></path>
                <path d="M5.77444543,8.14489796 C5.63314108,8.14489796 5.49183673,8.25102041 5.49183673,8.41020408 L5.49183673,8.70204082 C5.49183673,8.83469388 5.60488021,8.96734694 5.77444543,8.96734694 C5.91574978,8.96734694 6.05705413,8.86122449 6.05705413,8.70204082 L6.05705413,8.41020408 C6.05705413,8.27755102 5.94401065,8.14489796 5.77444543,8.14489796 L5.77444543,8.14489796 Z" id="Shape"></path>
                <path d="M7.22440106,8.70204082 L7.22440106,8.41020408 C7.22440106,8.27755102 7.11135759,8.14489796 6.94179237,8.14489796 C6.80048802,8.14489796 6.65918367,8.25102041 6.65918367,8.41020408 L6.65918367,8.70204082 C6.65918367,8.83469388 6.77222715,8.96734694 6.94179237,8.96734694 C7.08309672,8.96734694 7.22440106,8.86122449 7.22440106,8.70204082 L7.22440106,8.70204082 Z" id="Shape"></path>
                <path d="M8.0826087,7.95918367 C7.94130435,7.95918367 7.8,8.06530612 7.8,8.2244898 L7.8,8.72857143 C7.8,8.86122449 7.91304348,8.99387755 8.0826087,8.99387755 C8.25217391,8.99387755 8.36521739,8.8877551 8.36521739,8.72857143 L8.36521739,8.2244898 C8.36521739,8.06530612 8.25217391,7.95918367 8.0826087,7.95918367 L8.0826087,7.95918367 Z" id="Shape"></path>
                <path d="M17.9254658,4.51020408 C17.7841615,4.51020408 17.6428571,4.61632653 17.6428571,4.7755102 L17.6428571,7.45510204 C17.6428571,7.5877551 17.7559006,7.72040816 17.9254658,7.72040816 C18.0667702,7.72040816 18.2080745,7.61428571 18.2080745,7.45510204 L18.2080745,4.7755102 C18.2080745,4.61632653 18.0950311,4.51020408 17.9254658,4.51020408 L17.9254658,4.51020408 Z" id="Shape"></path>
                <path d="M18.9163265,7.45510204 C18.9163265,7.5877551 19.02937,7.72040816 19.1989352,7.72040816 C19.3685004,7.72040816 19.4815439,7.61428571 19.4815439,7.45510204 L19.4815439,5.88979592 C19.4815439,5.75714286 19.3685004,5.6244898 19.1989352,5.6244898 C19.02937,5.6244898 18.9163265,5.73061224 18.9163265,5.88979592 L18.9163265,7.45510204 L18.9163265,7.45510204 Z" id="Shape"></path>
            </g>
        </g>
    </g>
</svg>