<svg id="Layer_1" data-name="Layer 1" xmlns="http://www.w3.org/2000/svg" viewBox="0 0 275 222"><defs><style>.cls-1{fill:#f9f9f9;stroke-width:0.75px;}.cls-1,.cls-11,.cls-12,.cls-2{stroke:#686868;stroke-miterlimit:10;}.cls-2{fill:#fff;}.cls-11,.cls-2{stroke-width:0.5px;}.cls-3{fill:#939498;}.cls-4{fill:#d1d2d4;}.cls-5{fill:#5af;}.cls-6{fill:#f0f4ff;}.cls-7{fill:#efefef;}.cls-8{fill:#f2f2f2;}.cls-9{fill:#0a7bff;}.cls-10{fill:#c0e6ff;}.cls-11,.cls-12{fill:none;}.cls-12{stroke-width:0.25px;}</style></defs><title>planwhite</title><path class="cls-1" d="M240.11,186.08H34.75c-4.57,0-8.27-4.84-8.27-13.25V41.77a8.27,8.27,0,0,1,8.27-8.27H240.11a8.27,8.27,0,0,1,8.27,8.27V172.83C248.38,181.24,244.68,186.08,240.11,186.08Z"/><rect class="cls-2" x="32.74" y="41.76" width="208.09" height="130.09" rx="2" ry="2"/><circle class="cls-3" cx="137.5" cy="38.06" r="1.14"/><path class="cls-4" d="M48.54,129.29a.28.28,0,0,1-.28-.28v-.28a.28.28,0,1,1,.57,0V129A.28.28,0,0,1,48.54,129.29Zm0-2a.28.28,0,0,1-.28-.28v-.28a.28.28,0,1,1,.57,0V127A.28.28,0,0,1,48.54,127.3Zm0-2a.28.28,0,0,1-.28-.28v-.28a.28.28,0,0,1,.57,0V125A.28.28,0,0,1,48.54,125.31Zm0-2a.28.28,0,0,1-.28-.28v-.28a.28.28,0,1,1,.57,0V123A.28.28,0,0,1,48.54,123.31Zm0-2a.28.28,0,0,1-.28-.28v-.28a.28.28,0,0,1,.57,0V121A.28.28,0,0,1,48.54,121.32Zm0-2a.28.28,0,0,1-.28-.28v-.28a.28.28,0,1,1,.57,0V119A.28.28,0,0,1,48.54,119.33Zm0-2a.28.28,0,0,1-.28-.28v-.28a.28.28,0,1,1,.57,0v.28A.28.28,0,0,1,48.54,117.34Zm0-2a.28.28,0,0,1-.28-.28v-.28a.28.28,0,1,1,.57,0v.28A.28.28,0,0,1,48.54,115.34Zm0-2a.28.28,0,0,1-.28-.28v-.28a.28.28,0,1,1,.57,0v.28A.28.28,0,0,1,48.54,113.35Zm0-2a.28.28,0,0,1-.28-.28v-.28a.28.28,0,0,1,.57,0v.28A.28.28,0,0,1,48.54,111.36Zm0-2a.28.28,0,0,1-.28-.28v-.28a.28.28,0,1,1,.57,0v.28A.28.28,0,0,1,48.54,109.37Zm0-2a.28.28,0,0,1-.28-.28v-.28a.28.28,0,0,1,.57,0v.28A.28.28,0,0,1,48.54,107.37Zm0-2a.28.28,0,0,1-.28-.28v-.28a.28.28,0,1,1,.57,0v.28A.28.28,0,0,1,48.54,105.38Zm0-2a.28.28,0,0,1-.28-.28v-.28a.28.28,0,1,1,.57,0v.28A.28.28,0,0,1,48.54,103.39Zm0-2a.28.28,0,0,1-.28-.28v-.28a.28.28,0,0,1,.57,0v.28A.28.28,0,0,1,48.54,101.39Zm0-2a.28.28,0,0,1-.28-.28v-.28a.28.28,0,0,1,.57,0v.28A.28.28,0,0,1,48.54,99.4Zm0-2a.28.28,0,0,1-.28-.28v-.28a.28.28,0,0,1,.57,0v.28A.28.28,0,0,1,48.54,97.41Zm0-2a.28.28,0,0,1-.28-.28v-.28a.28.28,0,1,1,.57,0v.28A.28.28,0,0,1,48.54,95.42Zm0-2a.28.28,0,0,1-.28-.28v-.28a.28.28,0,1,1,.57,0v.28A.28.28,0,0,1,48.54,93.42Zm0-2a.28.28,0,0,1-.28-.28v-.28a.28.28,0,1,1,.57,0v.28A.28.28,0,0,1,48.54,91.43Zm0-2a.28.28,0,0,1-.28-.28v-.28a.28.28,0,1,1,.57,0v.28A.28.28,0,0,1,48.54,89.44Zm0-2a.28.28,0,0,1-.28-.28v-.28a.28.28,0,1,1,.57,0v.28A.28.28,0,0,1,48.54,87.45Z"/><path class="cls-4" d="M87.54,159.18a.28.28,0,0,1-.28-.28v-.28a.28.28,0,0,1,.57,0v.28A.28.28,0,0,1,87.54,159.18Zm0-2a.28.28,0,0,1-.28-.28v-.28a.28.28,0,1,1,.57,0v.28A.28.28,0,0,1,87.54,157.19Zm0-2a.28.28,0,0,1-.28-.28v-.28a.28.28,0,0,1,.57,0v.28A.28.28,0,0,1,87.54,155.2Zm0-2a.28.28,0,0,1-.28-.28v-.28a.28.28,0,1,1,.57,0v.28A.28.28,0,0,1,87.54,153.2Zm0-2a.28.28,0,0,1-.28-.28v-.28a.28.28,0,1,1,.57,0v.28A.28.28,0,0,1,87.54,151.21Zm0-2a.28.28,0,0,1-.28-.28v-.28a.28.28,0,1,1,.57,0v.28A.28.28,0,0,1,87.54,149.22Zm0-2a.28.28,0,0,1-.28-.28v-.28a.28.28,0,1,1,.57,0v.28A.28.28,0,0,1,87.54,147.23Zm0-2a.28.28,0,0,1-.28-.28v-.28a.28.28,0,0,1,.57,0v.28A.28.28,0,0,1,87.54,145.23Zm0-2a.28.28,0,0,1-.28-.28v-.28a.28.28,0,1,1,.57,0V143A.28.28,0,0,1,87.54,143.24Zm0-2a.28.28,0,0,1-.28-.28v-.28a.28.28,0,0,1,.57,0V141A.28.28,0,0,1,87.54,141.25Zm0-2a.28.28,0,0,1-.28-.28v-.28a.28.28,0,1,1,.57,0V139A.28.28,0,0,1,87.54,139.25Zm0-2a.28.28,0,0,1-.28-.28v-.28a.28.28,0,1,1,.57,0V137A.28.28,0,0,1,87.54,137.26Zm0-2a.28.28,0,0,1-.28-.28v-.28a.28.28,0,0,1,.57,0V135A.28.28,0,0,1,87.54,135.27Zm0-2a.28.28,0,0,1-.28-.28v-.28a.28.28,0,1,1,.57,0V133A.28.28,0,0,1,87.54,133.28Zm0-2a.28.28,0,0,1-.28-.28v-.28a.28.28,0,0,1,.57,0V131A.28.28,0,0,1,87.54,131.28Zm0-2a.28.28,0,0,1-.28-.28v-.28a.28.28,0,1,1,.57,0V129A.28.28,0,0,1,87.54,129.29Zm0-2a.28.28,0,0,1-.28-.28v-.28a.28.28,0,1,1,.57,0V127A.28.28,0,0,1,87.54,127.3Zm0-2a.28.28,0,0,1-.28-.28v-.28a.28.28,0,0,1,.57,0V125A.28.28,0,0,1,87.54,125.31Zm0-2a.28.28,0,0,1-.28-.28v-.28a.28.28,0,1,1,.57,0V123A.28.28,0,0,1,87.54,123.31Zm0-2a.28.28,0,0,1-.28-.28v-.28a.28.28,0,0,1,.57,0V121A.28.28,0,0,1,87.54,121.32Zm0-2a.28.28,0,0,1-.28-.28v-.28a.28.28,0,1,1,.57,0V119A.28.28,0,0,1,87.54,119.33Zm0-2a.28.28,0,0,1-.28-.28v-.28a.28.28,0,1,1,.57,0v.28A.28.28,0,0,1,87.54,117.34Zm0-2a.28.28,0,0,1-.28-.28v-.28a.28.28,0,1,1,.57,0v.28A.28.28,0,0,1,87.54,115.34Zm0-2a.28.28,0,0,1-.28-.28v-.28a.28.28,0,1,1,.57,0v.28A.28.28,0,0,1,87.54,113.35Zm0-2a.28.28,0,0,1-.28-.28v-.28a.28.28,0,0,1,.57,0v.28A.28.28,0,0,1,87.54,111.36Zm0-2a.28.28,0,0,1-.28-.28v-.28a.28.28,0,1,1,.57,0v.28A.28.28,0,0,1,87.54,109.37Zm0-2a.28.28,0,0,1-.28-.28v-.28a.28.28,0,0,1,.57,0v.28A.28.28,0,0,1,87.54,107.37Zm0-2a.28.28,0,0,1-.28-.28v-.28a.28.28,0,1,1,.57,0v.28A.28.28,0,0,1,87.54,105.38Zm0-2a.28.28,0,0,1-.28-.28v-.28a.28.28,0,1,1,.57,0v.28A.28.28,0,0,1,87.54,103.39Zm0-2a.28.28,0,0,1-.28-.28v-.28a.28.28,0,0,1,.57,0v.28A.28.28,0,0,1,87.54,101.39Zm0-2a.28.28,0,0,1-.28-.28v-.28a.28.28,0,0,1,.57,0v.28A.28.28,0,0,1,87.54,99.4Zm0-2a.28.28,0,0,1-.28-.28v-.28a.28.28,0,0,1,.57,0v.28A.28.28,0,0,1,87.54,97.41Zm0-2a.28.28,0,0,1-.28-.28v-.28a.28.28,0,1,1,.57,0v.28A.28.28,0,0,1,87.54,95.42Zm0-2a.28.28,0,0,1-.28-.28v-.28a.28.28,0,1,1,.57,0v.28A.28.28,0,0,1,87.54,93.42Zm0-2a.28.28,0,0,1-.28-.28v-.28a.28.28,0,1,1,.57,0v.28A.28.28,0,0,1,87.54,91.43Zm0-2a.28.28,0,0,1-.28-.28v-.28a.28.28,0,1,1,.57,0v.28A.28.28,0,0,1,87.54,89.44Zm0-2a.28.28,0,0,1-.28-.28v-.28a.28.28,0,1,1,.57,0v.28A.28.28,0,0,1,87.54,87.45Z"/><path class="cls-4" d="M126.54,115.34a.28.28,0,0,1-.28-.28v-.28a.28.28,0,1,1,.57,0v.28A.28.28,0,0,1,126.54,115.34Zm0-2a.28.28,0,0,1-.28-.28v-.28a.28.28,0,1,1,.57,0v.28A.28.28,0,0,1,126.54,113.35Zm0-2a.28.28,0,0,1-.28-.28v-.28a.28.28,0,0,1,.57,0v.28A.28.28,0,0,1,126.54,111.36Zm0-2a.28.28,0,0,1-.28-.28v-.28a.28.28,0,1,1,.57,0v.28A.28.28,0,0,1,126.54,109.37Zm0-2a.28.28,0,0,1-.28-.28v-.28a.28.28,0,0,1,.57,0v.28A.28.28,0,0,1,126.54,107.37Zm0-2a.28.28,0,0,1-.28-.28v-.28a.28.28,0,1,1,.57,0v.28A.28.28,0,0,1,126.54,105.38Zm0-2a.28.28,0,0,1-.28-.28v-.28a.28.28,0,1,1,.57,0v.28A.28.28,0,0,1,126.54,103.39Zm0-2a.28.28,0,0,1-.28-.28v-.28a.28.28,0,0,1,.57,0v.28A.28.28,0,0,1,126.54,101.39Zm0-2a.28.28,0,0,1-.28-.28v-.28a.28.28,0,1,1,.57,0v.28A.28.28,0,0,1,126.54,99.4Zm0-2a.28.28,0,0,1-.28-.28v-.28a.28.28,0,1,1,.57,0v.28A.28.28,0,0,1,126.54,97.41Zm0-2a.28.28,0,0,1-.28-.28v-.28a.28.28,0,1,1,.57,0v.28A.28.28,0,0,1,126.54,95.42Zm0-2a.28.28,0,0,1-.28-.28v-.28a.28.28,0,1,1,.57,0v.28A.28.28,0,0,1,126.54,93.42Zm0-2a.28.28,0,0,1-.28-.28v-.28a.28.28,0,1,1,.57,0v.28A.28.28,0,0,1,126.54,91.43Zm0-2a.28.28,0,0,1-.28-.28v-.28a.28.28,0,1,1,.57,0v.28A.28.28,0,0,1,126.54,89.44Zm0-2a.28.28,0,0,1-.28-.28v-.28a.28.28,0,1,1,.57,0v.28A.28.28,0,0,1,126.54,87.45Z"/><path class="cls-4" d="M165.54,101.39a.28.28,0,0,1-.28-.28v-.28a.28.28,0,0,1,.57,0v.28A.28.28,0,0,1,165.54,101.39Zm0-2a.28.28,0,0,1-.28-.28v-.28a.28.28,0,1,1,.57,0v.28A.28.28,0,0,1,165.54,99.4Zm0-2a.28.28,0,0,1-.28-.28v-.28a.28.28,0,1,1,.57,0v.28A.28.28,0,0,1,165.54,97.41Zm0-2a.28.28,0,0,1-.28-.28v-.28a.28.28,0,1,1,.57,0v.28A.28.28,0,0,1,165.54,95.42Zm0-2a.28.28,0,0,1-.28-.28v-.28a.28.28,0,1,1,.57,0v.28A.28.28,0,0,1,165.54,93.42Zm0-2a.28.28,0,0,1-.28-.28v-.28a.28.28,0,1,1,.57,0v.28A.28.28,0,0,1,165.54,91.43Zm0-2a.28.28,0,0,1-.28-.28v-.28a.28.28,0,1,1,.57,0v.28A.28.28,0,0,1,165.54,89.44Zm0-2a.28.28,0,0,1-.28-.28v-.28a.28.28,0,1,1,.57,0v.28A.28.28,0,0,1,165.54,87.45Z"/><path class="cls-4" d="M204.54,129.29a.28.28,0,0,1-.28-.28v-.28a.28.28,0,1,1,.57,0V129A.28.28,0,0,1,204.54,129.29Zm0-2a.28.28,0,0,1-.28-.28v-.28a.28.28,0,1,1,.57,0V127A.28.28,0,0,1,204.54,127.3Zm0-2a.28.28,0,0,1-.28-.28v-.28a.28.28,0,0,1,.57,0V125A.28.28,0,0,1,204.54,125.31Zm0-2a.28.28,0,0,1-.28-.28v-.28a.28.28,0,1,1,.57,0V123A.28.28,0,0,1,204.54,123.31Zm0-2a.28.28,0,0,1-.28-.28v-.28a.28.28,0,0,1,.57,0V121A.28.28,0,0,1,204.54,121.32Zm0-2a.28.28,0,0,1-.28-.28v-.28a.28.28,0,1,1,.57,0V119A.28.28,0,0,1,204.54,119.33Zm0-2a.28.28,0,0,1-.28-.28v-.28a.28.28,0,1,1,.57,0v.28A.28.28,0,0,1,204.54,117.34Zm0-2a.28.28,0,0,1-.28-.28v-.28a.28.28,0,1,1,.57,0v.28A.28.28,0,0,1,204.54,115.34Zm0-2a.28.28,0,0,1-.28-.28v-.28a.28.28,0,1,1,.57,0v.28A.28.28,0,0,1,204.54,113.35Zm0-2a.28.28,0,0,1-.28-.28v-.28a.28.28,0,0,1,.57,0v.28A.28.28,0,0,1,204.54,111.36Zm0-2a.28.28,0,0,1-.28-.28v-.28a.28.28,0,1,1,.57,0v.28A.28.28,0,0,1,204.54,109.37Zm0-2a.28.28,0,0,1-.28-.28v-.28a.28.28,0,0,1,.57,0v.28A.28.28,0,0,1,204.54,107.37Zm0-2a.28.28,0,0,1-.28-.28v-.28a.28.28,0,1,1,.57,0v.28A.28.28,0,0,1,204.54,105.38Zm0-2a.28.28,0,0,1-.28-.28v-.28a.28.28,0,1,1,.57,0v.28A.28.28,0,0,1,204.54,103.39Zm0-2a.28.28,0,0,1-.28-.28v-.28a.28.28,0,0,1,.57,0v.28A.28.28,0,0,1,204.54,101.39Zm0-2a.28.28,0,0,1-.28-.28v-.28a.28.28,0,1,1,.57,0v.28A.28.28,0,0,1,204.54,99.4Zm0-2a.28.28,0,0,1-.28-.28v-.28a.28.28,0,1,1,.57,0v.28A.28.28,0,0,1,204.54,97.41Zm0-2a.28.28,0,0,1-.28-.28v-.28a.28.28,0,1,1,.57,0v.28A.28.28,0,0,1,204.54,95.42Zm0-2a.28.28,0,0,1-.28-.28v-.28a.28.28,0,1,1,.57,0v.28A.28.28,0,0,1,204.54,93.42Zm0-2a.28.28,0,0,1-.28-.28v-.28a.28.28,0,1,1,.57,0v.28A.28.28,0,0,1,204.54,91.43Zm0-2a.28.28,0,0,1-.28-.28v-.28a.28.28,0,1,1,.57,0v.28A.28.28,0,0,1,204.54,89.44Zm0-2a.28.28,0,0,1-.28-.28v-.28a.28.28,0,1,1,.57,0v.28A.28.28,0,0,1,204.54,87.45Z"/><circle class="cls-5" cx="48.54" cy="86.88" r="4.27"/><circle class="cls-5" cx="48.54" cy="101.11" r="4.27"/><circle class="cls-5" cx="48.54" cy="115.34" r="4.27"/><circle class="cls-6" cx="48.54" cy="129.58" r="4.27"/><circle class="cls-5" cx="87.54" cy="86.88" r="4.27"/><circle class="cls-5" cx="87.54" cy="101.11" r="4.27"/><circle class="cls-5" cx="87.54" cy="115.34" r="4.27"/><circle class="cls-5" cx="87.54" cy="129.58" r="4.27"/><circle class="cls-5" cx="126.54" cy="86.88" r="4.27"/><circle class="cls-5" cx="126.54" cy="101.11" r="4.27"/><circle class="cls-5" cx="165.54" cy="86.88" r="4.27"/><circle class="cls-5" cx="204.54" cy="86.88" r="4.27"/><circle class="cls-5" cx="204.54" cy="101.11" r="4.27"/><circle class="cls-5" cx="204.54" cy="115.34" r="4.27"/><circle class="cls-5" cx="87.54" cy="143.81" r="4.27"/><circle class="cls-6" cx="87.51" cy="157.97" r="4.27"/><path class="cls-4" d="M50.89,129.3v.56a.43.43,0,0,1-.43.43H49.33v1.13a.43.43,0,0,1-.43.43h-.56a.43.43,0,0,1-.43-.43v-1.13H46.77a.43.43,0,0,1-.43-.43v-.56a.43.43,0,0,1,.43-.43H47.9v-1.13a.43.43,0,0,1,.43-.43h.56a.43.43,0,0,1,.43.43v1.13h1.13A.43.43,0,0,1,50.89,129.3Z"/><path class="cls-4" d="M89.78,157.69v.56a.43.43,0,0,1-.43.43H88.22v1.13a.43.43,0,0,1-.43.43h-.56a.43.43,0,0,1-.43-.43v-1.13H85.66a.43.43,0,0,1-.43-.43v-.56a.43.43,0,0,1,.43-.43h1.13v-1.13a.43.43,0,0,1,.43-.43h.56a.43.43,0,0,1,.43.43v1.13h1.13A.43.43,0,0,1,89.78,157.69Z"/><circle class="cls-6" cx="126.5" cy="115.27" r="4.27"/><path class="cls-4" d="M128.78,115v.56a.43.43,0,0,1-.43.43h-1.13v1.13a.43.43,0,0,1-.43.43h-.56a.43.43,0,0,1-.43-.43V116h-1.13a.43.43,0,0,1-.43-.43V115a.43.43,0,0,1,.43-.43h1.13v-1.13a.43.43,0,0,1,.43-.43h.56a.43.43,0,0,1,.43.43v1.13h1.13A.43.43,0,0,1,128.78,115Z"/><circle class="cls-6" cx="165.5" cy="101.04" r="4.27"/><path class="cls-4" d="M167.78,100.76v.56a.43.43,0,0,1-.43.43h-1.13v1.13a.43.43,0,0,1-.43.43h-.56a.43.43,0,0,1-.43-.43v-1.13h-1.13a.43.43,0,0,1-.43-.43v-.56a.43.43,0,0,1,.43-.43h1.13V99.19a.43.43,0,0,1,.43-.43h.56a.43.43,0,0,1,.43.43v1.13h1.13A.43.43,0,0,1,167.78,100.76Z"/><path class="cls-4" d="M211.05,50.89v.56a.43.43,0,0,1-.43.43h-1.13V53a.43.43,0,0,1-.43.43h-.56a.43.43,0,0,1-.43-.43V51.89h-1.13a.43.43,0,0,1-.43-.43v-.56a.43.43,0,0,1,.43-.43h1.13V49.33a.43.43,0,0,1,.43-.43h.56a.43.43,0,0,1,.43.43v1.13h1.13A.43.43,0,0,1,211.05,50.89Z"/><circle class="cls-6" cx="204.5" cy="129.5" r="4.27"/><path class="cls-4" d="M206.78,129.22v.56a.43.43,0,0,1-.43.43h-1.13v1.13a.43.43,0,0,1-.43.43h-.56a.43.43,0,0,1-.43-.43v-1.13h-1.13a.43.43,0,0,1-.43-.43v-.56a.43.43,0,0,1,.43-.43h1.13v-1.13a.43.43,0,0,1,.43-.43h.56a.43.43,0,0,1,.43.43v1.13h1.13A.43.43,0,0,1,206.78,129.22Z"/><rect class="cls-7" x="72.45" y="47.31" width="129.81" height="7.97" rx="3.65" ry="3.65"/><path class="cls-8" d="M135.09,67.09H43.26a1.41,1.41,0,0,1-1.41-1.41V61.39A1.41,1.41,0,0,1,43.26,60h91.83a1.41,1.41,0,0,1,1.41,1.41v4.29A1.41,1.41,0,0,1,135.09,67.09ZM43.26,60.26a1.13,1.13,0,0,0-1.13,1.13v4.29a1.13,1.13,0,0,0,1.13,1.13h91.83a1.13,1.13,0,0,0,1.13-1.13V61.39a1.13,1.13,0,0,0-1.13-1.13Z"/><path class="cls-8" d="M176.61,67.09H142.28a1.41,1.41,0,0,1-1.41-1.41V61.39A1.41,1.41,0,0,1,142.28,60h34.33A1.41,1.41,0,0,1,178,61.39v4.29A1.41,1.41,0,0,1,176.61,67.09Zm-34.33-6.83a1.13,1.13,0,0,0-1.13,1.13v4.29a1.13,1.13,0,0,0,1.13,1.13h34.33a1.13,1.13,0,0,0,1.13-1.13V61.39a1.13,1.13,0,0,0-1.13-1.13Z"/><path class="cls-8" d="M218.12,67.09H183.79a1.41,1.41,0,0,1-1.41-1.41V61.39A1.41,1.41,0,0,1,183.79,60h34.33a1.41,1.41,0,0,1,1.41,1.41v4.29A1.41,1.41,0,0,1,218.12,67.09Zm-34.33-6.83a1.13,1.13,0,0,0-1.13,1.13v4.29a1.13,1.13,0,0,0,1.13,1.13h34.33a1.13,1.13,0,0,0,1.13-1.13V61.39a1.13,1.13,0,0,0-1.13-1.13Z"/><path class="cls-8" d="M230.74,67.09h-5.43a1.41,1.41,0,0,1-1.41-1.41V61.39A1.41,1.41,0,0,1,225.31,60h5.43a1.41,1.41,0,0,1,1.41,1.41v4.29A1.41,1.41,0,0,1,230.74,67.09Zm-5.43-6.83a1.13,1.13,0,0,0-1.13,1.13v4.29a1.13,1.13,0,0,0,1.13,1.13h5.43a1.13,1.13,0,0,0,1.13-1.13V61.39a1.13,1.13,0,0,0-1.13-1.13Z"/><circle class="cls-4" cx="219.39" cy="50.05" r="1.29"/><path class="cls-4" d="M219.26,51.34h.27A1.48,1.48,0,0,1,221,52.81v.78a0,0,0,0,1,0,0h-3.23a0,0,0,0,1,0,0v-.78A1.48,1.48,0,0,1,219.26,51.34Z"/><rect class="cls-4" x="227.88" y="49.02" width="0.85" height="0.85"/><rect class="cls-4" x="229.59" y="49.02" width="0.85" height="0.85"/><rect class="cls-4" x="231.3" y="49.02" width="0.85" height="0.85"/><rect class="cls-4" x="227.88" y="50.72" width="0.85" height="0.85"/><rect class="cls-4" x="229.59" y="50.72" width="0.85" height="0.85"/><rect class="cls-4" x="231.3" y="50.72" width="0.85" height="0.85"/><rect class="cls-4" x="227.88" y="52.43" width="0.85" height="0.85"/><rect class="cls-4" x="229.59" y="52.43" width="0.85" height="0.85"/><rect class="cls-4" x="231.3" y="52.43" width="0.85" height="0.85"/><rect class="cls-9" x="41.71" y="54.65" width="0.85" height="0.71"/><path class="cls-9" d="M42.59,53.62l-.85-.08A5.74,5.74,0,0,1,42,52.13l.8.29A4.89,4.89,0,0,0,42.59,53.62Zm9.78,0a4.89,4.89,0,0,0-.27-1.2l.8-.29a5.74,5.74,0,0,1,.31,1.41Zm-9.09-2.08-.73-.44A5.79,5.79,0,0,1,43.43,50l.6.61A4.94,4.94,0,0,0,43.27,51.53Zm8.4,0a4.94,4.94,0,0,0-.76-1l.6-.61a5.79,5.79,0,0,1,.89,1.13ZM44.8,50l-.47-.72a5.74,5.74,0,0,1,1.3-.63l.27.81A4.89,4.89,0,0,0,44.8,50Zm5.35,0a4.89,4.89,0,0,0-1.1-.53l.27-.81a5.75,5.75,0,0,1,1.3.63Zm-3.29-.75-.11-.85a5.86,5.86,0,0,1,1.44,0l-.1.85A5,5,0,0,0,46.86,49.2Z"/><rect class="cls-9" x="52.39" y="54.65" width="0.85" height="0.71"/><rect class="cls-10" x="56.23" y="85.74" width="16.23" height="2.56" rx="1.17" ry="1.17"/><rect class="cls-10" x="56.23" y="99.9" width="15.09" height="2.56" rx="1.17" ry="1.17"/><rect class="cls-10" x="56.23" y="114.06" width="17.93" height="2.56" rx="1.17" ry="1.17"/><rect class="cls-10" x="95.23" y="85.6" width="16.23" height="2.56" rx="1.17" ry="1.17"/><rect class="cls-10" x="133.94" y="85.6" width="14.52" height="2.56" rx="1.17" ry="1.17"/><rect class="cls-10" x="133.94" y="99.97" width="17.65" height="2.42" rx="1.11" ry="1.11"/><rect class="cls-10" x="172.94" y="85.6" width="16.23" height="2.56" rx="1.17" ry="1.17"/><rect class="cls-10" x="95.23" y="99.97" width="7.97" height="2.42" rx="1.11" ry="1.11"/><rect class="cls-10" x="95.23" y="114.06" width="11.67" height="2.56" rx="1.17" ry="1.17"/><rect class="cls-10" x="212.22" y="85.6" width="15.66" height="2.56" rx="1.17" ry="1.17"/><rect class="cls-10" x="212.22" y="99.83" width="10.25" height="2.56" rx="1.17" ry="1.17"/><rect class="cls-10" x="212.22" y="114.06" width="15.66" height="2.56" rx="1.17" ry="1.17"/><rect class="cls-10" x="95.23" y="128.3" width="17.65" height="2.56" rx="1.17" ry="1.17"/><rect class="cls-10" x="95.23" y="142.53" width="15.37" height="2.56" rx="1.17" ry="1.17"/><path class="cls-8" d="M72.79,166.72h-28a3.51,3.51,0,0,1-3.51-3.51V73.73a3.51,3.51,0,0,1,3.51-3.51h28a3.51,3.51,0,0,1,3.51,3.51v89.49A3.51,3.51,0,0,1,72.79,166.72Zm-28-96.22a3.23,3.23,0,0,0-3.22,3.22v89.49a3.23,3.23,0,0,0,3.22,3.22h28A3.23,3.23,0,0,0,76,163.22V73.73a3.23,3.23,0,0,0-3.22-3.22Z"/><rect class="cls-8" x="41.43" y="76.49" width="34.73" height="0.28"/><path class="cls-8" d="M111.79,166.72h-28a3.51,3.51,0,0,1-3.51-3.51V73.73a3.51,3.51,0,0,1,3.51-3.51h28a3.51,3.51,0,0,1,3.51,3.51v89.49A3.51,3.51,0,0,1,111.79,166.72Zm-28-96.22a3.23,3.23,0,0,0-3.22,3.22v89.49a3.23,3.23,0,0,0,3.22,3.22h28a3.23,3.23,0,0,0,3.22-3.22V73.73a3.23,3.23,0,0,0-3.22-3.22Z"/><rect class="cls-8" x="80.42" y="76.49" width="34.73" height="0.28"/><path class="cls-8" d="M150.79,166.72h-28a3.51,3.51,0,0,1-3.51-3.51V73.73a3.51,3.51,0,0,1,3.51-3.51h28a3.51,3.51,0,0,1,3.51,3.51v89.49A3.51,3.51,0,0,1,150.79,166.72Zm-28-96.22a3.23,3.23,0,0,0-3.22,3.22v89.49a3.23,3.23,0,0,0,3.22,3.22h28a3.23,3.23,0,0,0,3.22-3.22V73.73a3.23,3.23,0,0,0-3.22-3.22Z"/><rect class="cls-8" x="119.42" y="76.49" width="34.73" height="0.28"/><path class="cls-8" d="M189.79,166.72h-28a3.51,3.51,0,0,1-3.51-3.51V73.73a3.51,3.51,0,0,1,3.51-3.51h28a3.51,3.51,0,0,1,3.51,3.51v89.49A3.51,3.51,0,0,1,189.79,166.72Zm-28-96.22a3.23,3.23,0,0,0-3.22,3.22v89.49a3.23,3.23,0,0,0,3.22,3.22h28a3.23,3.23,0,0,0,3.22-3.22V73.73a3.23,3.23,0,0,0-3.22-3.22Z"/><rect class="cls-8" x="158.42" y="76.49" width="34.73" height="0.28"/><path class="cls-8" d="M228.79,166.72h-28a3.51,3.51,0,0,1-3.51-3.51V73.73a3.51,3.51,0,0,1,3.51-3.51h28a3.51,3.51,0,0,1,3.51,3.51v89.49A3.51,3.51,0,0,1,228.79,166.72Zm-28-96.22a3.23,3.23,0,0,0-3.22,3.22v89.49a3.23,3.23,0,0,0,3.22,3.22h28a3.23,3.23,0,0,0,3.22-3.22V73.73a3.23,3.23,0,0,0-3.22-3.22Z"/><rect class="cls-8" x="197.42" y="76.49" width="34.73" height="0.28"/><path class="cls-1" d="M2,181.24v4.84c1.33,2.77,5,3.42,8.26,3.42H264.74c3.61,0,6.26-.85,8.26-3.42v-4.84Z"/><line class="cls-11" x1="273" y1="185.5" x2="2" y2="185.5"/><path class="cls-12" d="M156,181.24v.26a2.87,2.87,0,0,1-2.87,2.87H121a2.87,2.87,0,0,1-2.87-2.87v-.26"/></svg>