<?xml version="1.0" encoding="UTF-8" standalone="no"?>
<svg width="275px" height="222px" viewBox="0 0 275 222" version="1.1" xmlns="http://www.w3.org/2000/svg" xmlns:xlink="http://www.w3.org/1999/xlink">
    <!-- Generator: Sketch 40.1 (33804) - http://www.bohemiancoding.com/sketch -->
    <title>Artboard</title>
    <desc>Created with Sketch.</desc>
    <defs></defs>
    <g id="Page-1" stroke="none" stroke-width="1" fill="none" fill-rule="evenodd">
        <g id="Artboard">
            <polygon id="Path-4" stroke="#5D5D5D" stroke-width="2" stroke-linejoin="round" fill="#FFFFFF" points="86.3151974 208.102906 180.844939 181.034487 268.456493 208.324301 226.028168 37.5856792 165.499163 11 102.192696 37.8253848 50.3413893 11.7041351 8 181.127705"></polygon>
            <path d="M58.000111,50 C58.000111,50 37.9023687,142.794526 125.122852,169.974414" id="Path-2" stroke="#0A7BFF" stroke-width="2" stroke-linecap="round" stroke-dasharray="2,5"></path>
            <path d="M221.002965,90.6744356 C221.002965,90.6744356 151.304373,65.6715921 126,168.562575" id="Path-3" stroke="#0A7BFF" stroke-width="2" stroke-linecap="round" stroke-dasharray="2,5"></path>
            <path d="M66.3515635,37.3282196 C66.9867256,36.0806248 67.3448315,34.6683404 67.3448315,33.1724158 C67.3448315,28.1066304 63.2382011,24 58.1724158,24 C53.1066304,24 49,28.1066304 49,33.1724158 C49,34.7687264 49.4077809,36.2697946 50.1248567,37.5771347 C51.7162908,41.3492962 56.3493539,51.9509941 58.1716321,52.000006 C60.0371012,52.0501796 64.86731,40.8726228 66.3515635,37.3282196 Z M58.1724158,34.6206919 C59.5055172,34.6206919 60.5862094,33.5399997 60.5862094,32.2068983 C60.5862094,30.8737969 59.5055172,29.7931047 58.1724158,29.7931047 C56.8393144,29.7931047 55.7586221,30.8737969 55.7586221,32.2068983 C55.7586221,33.5399997 56.8393144,34.6206919 58.1724158,34.6206919 Z" id="Combined-Shape-Copy-3" stroke="#5D5D5D" stroke-width="2" fill="#FFFFFF"></path>
            <path d="M138.928817,150.612263 C139.768137,148.963659 140.241348,147.097428 140.241348,145.120674 C140.241348,138.426611 134.814737,133 128.120674,133 C121.426611,133 116,138.426611 116,145.120674 C116,147.230081 116.538852,149.213633 117.486416,150.941186 C119.589379,155.925821 125.711632,169.935186 128.119638,169.999952 C130.584719,170.066253 136.967485,155.295932 138.928817,150.612263 Z M128.120674,147.034465 C129.88227,147.034465 131.310325,145.606409 131.310325,143.844813 C131.310325,142.083218 129.88227,140.655162 128.120674,140.655162 C126.359078,140.655162 124.931023,142.083218 124.931023,143.844813 C124.931023,145.606409 126.359078,147.034465 128.120674,147.034465 Z" id="Combined-Shape-Copy-4" stroke="#5D5D5D" stroke-width="2" fill="#FFFFFF"></path>
            <path d="M228.971258,75.8042244 C229.629105,74.512073 230,73.0493501 230,71.5 C230,66.2532949 225.746705,62 220.5,62 C215.253295,62 211,66.2532949 211,71.5 C211,73.1533213 211.422344,74.7079989 212.16503,76.0620293 C213.813301,79.96891 218.611829,90.9492376 220.499188,91 C222.431281,91.0519655 227.433996,79.4752128 228.971258,75.8042244 Z M220.5,73 C221.880712,73 223,71.8807119 223,70.5 C223,69.1192881 221.880712,68 220.5,68 C219.119288,68 218,69.1192881 218,70.5 C218,71.8807119 219.119288,73 220.5,73 Z" id="Combined-Shape-Copy-5" stroke="#5D5D5D" stroke-width="2" fill="#FFFFFF"></path>
            <path d="M102.148995,37.9335724 L86.2462891,208.110228" id="Line" stroke="#5D5D5D" stroke-linecap="square"></path>
            <path d="M165.481863,10.7852239 L180.860528,181.098865" id="Line-Copy" stroke="#5D5D5D" stroke-linecap="square"></path>
        </g>
    </g>
</svg>