<svg id="Layer_1" data-name="Layer 1" xmlns="http://www.w3.org/2000/svg" viewBox="0 0 275 222"><defs><style>.cls-1{fill:#f9f9f9;}.cls-1,.cls-3{stroke:#3f3f41;stroke-miterlimit:10;stroke-width:0.75px;}.cls-2{fill:#939498;}.cls-3{fill:none;}.cls-4{fill:#5af;}.cls-5{fill:#c0e6ff;}.cls-6{fill:#d1d2d4;}</style></defs><title>ticket</title><rect class="cls-1" x="16" y="69.97" width="246" height="104.03" rx="7.99" ry="7.99"/><polygon class="cls-2" points="144 81.4 14 81.4 14 99 128.25 99 144 81.4"/><line class="cls-3" x1="204" y1="70" x2="204" y2="174"/><rect class="cls-4" x="23.31" y="117" width="23.84" height="23.84" rx="3.62" ry="3.62"/><rect class="cls-4" x="56.66" y="117" width="23.84" height="23.84" rx="3.62" ry="3.62"/><rect class="cls-5" x="90" y="117" width="108" height="9" rx="4.25" ry="4.25"/><rect class="cls-5" x="90" y="132" width="69.15" height="9" rx="4.25" ry="4.25"/><polygon class="cls-2" points="219.72 113.63 219.72 174 210.2 174 210.2 105 219.72 113.63"/><rect class="cls-4" x="229.45" y="157.36" width="12.89" height="12.89" rx="3.62" ry="3.62" transform="translate(72.08 399.69) rotate(-90)"/><rect class="cls-4" x="229.45" y="139.34" width="12.89" height="12.89" rx="3.62" ry="3.62" transform="translate(90.11 381.67) rotate(-90)"/><rect class="cls-5" x="202.69" y="102.57" width="58.38" height="4.87" rx="2.43" ry="2.43" transform="translate(126.87 336.88) rotate(-90)"/><rect class="cls-5" x="221.3" y="113.07" width="37.38" height="4.87" rx="2.43" ry="2.43" transform="translate(124.48 355.49) rotate(-90)"/><path class="cls-6" d="M26.51,152.5h169a3,3,0,0,1,3,3v5a3,3,0,0,1-3,3H26.5a3,3,0,0,1-3-3v-5A3,3,0,0,1,26.51,152.5Z"/><rect class="cls-6" x="204.95" y="120.05" width="94" height="5.91" rx="1" ry="1" transform="translate(128.95 374.95) rotate(-90)"/><path class="cls-1" d="M16,78a8,8,0,0,1,8-8H254a8,8,0,0,1,.93.06A8,8,0,0,0,247,63H17a8,8,0,0,0-8,8v88A8,8,0,0,0,16.07,167a8,8,0,0,1-.07-1Z"/><line class="cls-3" x1="206" y1="174" x2="223" y2="174"/></svg>